<?xml version="1.0" encoding="utf-8"?>
<!-- Generator: Adobe Illustrator 16.0.0, SVG Export Plug-In . SVG Version: 6.00 Build 0)  -->
<!DOCTYPE svg PUBLIC "-//W3C//DTD SVG 1.1//EN" "http://www.w3.org/Graphics/SVG/1.1/DTD/svg11.dtd">
<svg version="1.1" id="bfbaf7a0-974e-4549-a5a8-91cbda3f7252"
	 xmlns="http://www.w3.org/2000/svg" xmlns:xlink="http://www.w3.org/1999/xlink" x="0px" y="0px" width="892.043px" height="637px"
	 viewBox="0 0 892.043 637" enable-background="new 0 0 892.043 637" xml:space="preserve">
<path fill="#E5E5E5" d="M660.67,635.994l-0.901-0.339c-0.198-0.074-19.915-7.628-29.15-24.757
	c-9.237-17.129-4.714-37.753-4.667-37.959l0.213-0.939l0.9,0.339c0.198,0.074,19.914,7.628,29.15,24.757
	c9.237,17.129,4.714,37.753,4.667,37.959L660.67,635.994z M632.097,610.101c7.809,14.482,23.39,21.905,27.337,23.601
	c0.751-4.231,3.104-21.341-4.697-35.81c-7.801-14.466-23.388-21.901-27.337-23.601C626.649,578.525,624.295,595.634,632.097,610.101
	z"/>
<path fill="#E5E5E5" d="M637.676,604.89c16.599,9.985,22.991,29.821,22.991,29.821s-20.519,3.644-37.117-6.342
	c-16.598-9.986-22.99-29.821-22.99-29.821S621.078,594.904,637.676,604.89z"/>
<path fill="none" d="M827.405,360.353H327.183v-284h500.222V360.353z"/>
<path fill="#E5E5E5" d="M827.405,360.353H327.183v-284h500.222V360.353z M333.182,354.353h488.223v-272H333.182V354.353z"/>
<rect x="416.267" y="168.189" fill="#8BC53F" width="322.053" height="8.053"/>
<rect x="416.267" y="214.189" fill="#8BC53F" width="322.053" height="8.053"/>
<rect x="416.267" y="260.189" fill="#8BC53F" width="322.053" height="8.053"/>
<rect x="456.585" y="156.216" fill="#6C63FF" width="14" height="32"/>
<rect x="555.585" y="202.491" fill="#6C63FF" width="14" height="32"/>
<rect x="679.585" y="248.491" fill="#6C63FF" width="14" height="32"/>
<rect x="330.268" y="403.189" fill="#CBCBCB" width="194.052" height="8.053"/>
<rect x="330.268" y="430.189" fill="#CBCBCB" width="194.052" height="8.053"/>
<rect x="330.268" y="457.189" fill="#CBCBCB" width="95.052" height="8.053"/>
<path fill="#FFFFFF" d="M516.585,516.353h-59v-59h59V516.353z"/>
<path fill="#CBCBCB" d="M516.585,516.353h-59v-59h59V516.353z M459.585,514.353h55v-55h-55V514.353z"/>
<path fill="#FFFFFF" d="M824.585,516.353h-59v-59h59V516.353z"/>
<path fill="#E5E5E5" d="M824.585,516.353h-59v-59h59V516.353z M767.585,514.353h55v-55h-55V514.353z"/>
<rect x="630.267" y="403.189" fill="#E5E5E5" width="194.053" height="8.053"/>
<rect x="630.267" y="430.189" fill="#E5E5E5" width="194.053" height="8.053"/>
<rect x="630.267" y="457.189" fill="#E5E5E5" width="95.053" height="8.053"/>
<path fill="#FFB7B7" d="M186.55,409.919c3.93-3.065,4.63-8.736,1.564-12.665c-0.021-0.027-0.043-0.055-0.064-0.081
	c-0.312-0.391-0.655-0.756-1.026-1.091l-2.688-118.369l-19.407,3.465l8.766,115.879c-2.603,3.295-2.594,7.947,0.021,11.232
	C176.823,412.257,182.547,412.983,186.55,409.919z"/>
<path fill="#CBCBCB" d="M181.192,255.867c-0.235-0.057-0.472-0.107-0.712-0.153c-7.514-1.409-14.747,3.539-16.157,11.053
	c-0.079,0.425-0.14,0.853-0.179,1.282l-0.54,5.868l2.12,63.316l20.652-0.114l4.37-52.938l0.988-13.88
	C192.216,263.561,187.759,257.459,181.192,255.867z"/>
<polygon fill="#FFB7B7" points="264.245,624.885 275.689,624.885 281.132,580.747 264.243,580.747 "/>
<path fill="#2F2E41" d="M261.326,621.149l22.535-0.001h0.001c7.932,0,14.361,6.43,14.362,14.361v0.467l-36.897,0.001
	L261.326,621.149z"/>
<polygon fill="#FFB7B7" points="87.497,611.492 97.854,616.357 121.547,578.721 106.26,571.543 "/>
<path fill="#2F2E41" d="M86.443,606.87l20.398,9.58l0.001,0.001c7.179,3.372,10.265,11.925,6.893,19.104l-0.198,0.423L80.14,620.292
	L86.443,606.87z"/>
<circle fill="#FFB8B8" cx="184.877" cy="220.151" r="26.735"/>
<path fill="#2F2E41" d="M192.603,258.969l-24.313-7.151l-16.306,41.191l30.321,62.646l0.572,11.156c0,0-21.331,26.136-23.17,64.361
	l-8.01,22.025l-9.439,20.882L85.236,590.76l23.46,14.799l103.589-172.166l50.892,177.94l21.343,1.195l-19.899-224.975
	l-22.017-44.395l-9.745-22.018c0,0,11.053-24.115-10.346-35.415L192.603,258.969z"/>
<path fill="#2F2E41" d="M213.365,190.799c-6.61-5.442-17.341-4.924-24.751-0.11c-9.068-5.264-20.5-4.052-28.263,2.995
	c-7.389,7.007-9.321,19.104-5.381,28.52c3.349,9.886,1.571,20.789-4.743,29.1c7.165,0.418,14.331,0.836,21.515,0.957
	c1.666-1.054,3.205-2.295,4.587-3.701c2.857,3.076,5.734,4.656,6.308,4.561c7.681-0.969,15.45-0.995,23.138-0.079
	c-3.646-11.595-7.294-23.189-11.767-33.455c7.533,4.069,17.964,1.497,22.742-5.608C221.528,206.871,219.976,196.241,213.365,190.799
	z"/>
<path fill="#FFB7B7" d="M242.867,410.633c3.099-3.903,2.446-9.579-1.458-12.678c-0.026-0.021-0.054-0.043-0.081-0.063
	c-0.396-0.307-0.814-0.58-1.254-0.819l-30.447-114.418l-18.049,7.932l35.769,110.568c-1.755,3.814-0.652,8.335,2.661,10.913
	C233.964,415.192,239.698,414.552,242.867,410.633z"/>
<path fill="#CBCBCB" d="M201.435,262.16c-0.241,0-0.483,0.007-0.728,0.02c-7.635,0.396-13.502,6.907-13.105,14.541
	c0.022,0.432,0.065,0.862,0.128,1.289l0.854,5.83l16.949,61.043l20.047-4.967l-8.2-52.481l-2.304-13.723
	C213.959,267.047,208.193,262.164,201.435,262.16z"/>
<path fill="#CBCBCB" d="M382,637H1c-0.553,0-1-0.447-1-1c0-0.552,0.447-1,1-1h381c0.552,0,1,0.448,1,1
	C383,636.552,382.552,637,382,637z"/>
<path fill="#CBCBCB" d="M716,637H568c-0.553,0-1-0.447-1-1c0-0.552,0.447-1,1-1h148c0.552,0,1,0.448,1,1
	C717,636.552,716.552,637,716,637z"/>
<rect x="470.585" y="168.189" fill="#F27B91" width="267.734" height="8.053"/>
<rect x="569.585" y="214.189" fill="#F27B91" width="168.734" height="8.053"/>
<rect x="693.585" y="260.465" fill="#F27B91" width="44.734" height="8.053"/>
<path id="bc2b8cae-94aa-4e1c-8c4f-fe8a4409e542_1_" fill="#8BC53F" d="M790.864,495.58l-7.097-9.128l4.126-3.211l3.362,4.321
	l11.353-11.984l3.797,3.597L790.864,495.58z"/>
<g>
	<line fill="none" stroke="#F27B91" stroke-width="5" stroke-miterlimit="10" x1="497.01" y1="478" x2="477.16" y2="497.807"/>
	<line fill="none" stroke="#F27B91" stroke-width="5" stroke-miterlimit="10" x1="477.16" y1="478" x2="497.01" y2="497.807"/>
</g>
</svg>
