<?xml version="1.0" encoding="utf-8"?>
<!-- Generator: Adobe Illustrator 16.0.0, SVG Export Plug-In . SVG Version: 6.00 Build 0)  -->
<!DOCTYPE svg PUBLIC "-//W3C//DTD SVG 1.1//EN" "http://www.w3.org/Graphics/SVG/1.1/DTD/svg11.dtd">
<svg version="1.1" id="bb61c743-ca18-43ba-937f-96e2ff3f6e25"
	 xmlns="http://www.w3.org/2000/svg" xmlns:xlink="http://www.w3.org/1999/xlink" x="0px" y="0px" width="817.963px"
	 height="609.717px" viewBox="0 0 817.963 609.717" enable-background="new 0 0 817.963 609.717" xml:space="preserve">
<ellipse fill="#E6E6E6" cx="70" cy="594.378" rx="70" ry="5.339"/>
<ellipse fill="#E6E6E6" cx="221" cy="604.378" rx="70" ry="5.339"/>
<path fill="#E6E6E6" d="M753.274,0H400.048c-4.288,0.006-7.764,3.48-7.769,7.77v591.472c0.001,4.29,3.479,7.768,7.769,7.77h353.227
	c3.822,0.003,7.076-2.78,7.665-6.558c0.071-0.399,0.106-0.806,0.104-1.212V7.769C761.038,3.48,757.562,0.006,753.274,0z
	 M757.935,599.241c0,2.574-2.087,4.661-4.661,4.662H400.048c-2.574-0.001-4.661-2.088-4.661-4.662V7.769
	c0.004-2.573,2.089-4.658,4.661-4.662h353.227c2.572,0.004,4.657,2.089,4.661,4.662V599.241z"/>
<path fill="#E6E6E6" d="M428.016,43.631c-1.716,0.002-3.106,1.392-3.107,3.107v128.445c0.001,1.716,1.392,3.105,3.107,3.107h297.289
	c1.716-0.002,3.106-1.392,3.108-3.107V46.738c-0.002-1.716-1.393-3.106-3.108-3.107H428.016z"/>
<path fill="#6C63FF" d="M303.841,144.13c-1.656,0.002-2.998,1.344-3,3v124c0.002,1.656,1.344,2.998,3,3h287
	c1.656-0.002,2.998-1.344,3-3v-124c-0.002-1.656-1.344-2.998-3-3H303.841z"/>
<path fill="#EFB7B9" d="M157.759,432.15c0.377,9.287-5.555,17.52-11.109,24.918c-2.533,3.466-26.073,26.951-33.184,37.216
	c-1.722,2.488-43.993,51.28-46.159,55.802c-0.51,1.07-0.929,2.182-1.255,3.322c-1.267,4.332-1.322,8.998-1.211,13.619v3.233
	c0.222,7.054,0.544,14.142,2.222,20.974c0.244,1,0.522,2.011,0.667,3.022c-0.449-0.295-0.873-0.625-1.267-0.989l-22.975-17.053
	l-1.433-1.066c-1.467-4.244-2.855-8.532-4.422-12.72c-0.933-2.488,0.067-5.333,1.711-7.41c1.781-1.967,3.745-3.76,5.866-5.354
	c1.627-1.685,3.079-3.531,4.332-5.511c15.854-23.073,60.501-105.871,63.756-122.534c4.291-0.8,8.688-0.856,12.998-0.167
	l22.919,3.044c2.477,0.333,5.188,0.789,6.799,2.688C157.114,428.609,157.725,430.35,157.759,432.15z"/>
<path fill="#EFB7B9" d="M255.587,451.08c-0.488,3.463-1.712,6.781-3.589,9.732c-2.355,3.588-29.406,73.165-37.815,101.894
	c-1.544,5.277-0.733,10.376-0.9,12.143c-0.133,1.466-0.255,2.933-0.366,4.388c-0.155,1.812-0.278,3.622-0.411,5.422
	c-0.345,4.766-0.645,9.776,1.366,14.108c0.789,1.711,1.978,3.188,2.5,4.899c-0.784-0.403-1.509-0.912-2.155-1.511l-22.974-17.053
	c-1.874-5.309-3.318-10.759-4.322-16.298c-0.577-3.144-0.855-6.754,1.111-9.165c0.113-0.148,0.235-0.289,0.366-0.422
	c0.642-0.602,1.358-1.117,2.134-1.533c0.71-0.39,1.393-0.827,2.044-1.311c0.488-0.383,0.928-0.823,1.311-1.312
	c1.889-2.333,2.566-5.609,3.133-8.688c2.222-12.598,21.041-89.896,20.686-91.807c-0.389-1.877-11.076-19.885-18.408-23.885
	c7.607-6.372,16.285-11.345,25.629-14.687c1.646-0.767,3.47-1.078,5.277-0.899c0.967,0.213,1.892,0.588,2.732,1.11
	c5.033,2.822,8.888,7.266,12.576,11.71C251.01,434.605,256.509,442.47,255.587,451.08z"/>
<path fill="#2F2E41" d="M245.561,424.315c-0.712,6.719-19.588,12.664-43.458,16.363c-6.164,0.955-21.311-36.354-27.914-35.724
	c-7.941,0.758-7.387,39.378-15.24,39.585c-26.736,0.706-44.013-2.034-49.599-9.96c-3.021-0.733-6.665-2.466-6.521-5.555
	c0.1-1.767,1.5-3.332,1.488-5.065c0-3.021,8.766-36.105,13.931-51.803c1.289-3.899,2.223-7.898,3.678-11.754
	c6.288-17.374,8.987-30.706,20.475-45.17c1.757-2.029,3.202-4.31,4.288-6.766c0.985-2.948,1.499-6.034,1.521-9.143l0.634-10.876
	c17.03-0.8,33.572-0.478,50.235,3.121c1.883-0.056,3.455,1.426,3.511,3.309v0.024c0.645,3.978,1.097,7.973,1.355,11.987
	c0.008,0.887,0.135,1.769,0.378,2.622c0.438,1.078,1.045,2.08,1.8,2.966c9.643,12.643,15.553,27.773,20.219,42.926
	c4.666,15.153,8.376,30.729,14.242,45.548c2.021,5.11,4.666,10.854,5.199,16.331C247.894,418.849,247.427,422.393,245.561,424.315z"
	/>
<path fill="#EFB7B9" d="M261.748,242.145c2.933-2.478,5.865-4.966,8.554-7.699c3.794-4.021,7.298-8.305,10.487-12.819
	c3.399-4.633,6.776-9.377,8.888-14.731c2.389-6.132,3.121-13.108,7.276-18.197c0.47-0.661,1.122-1.17,1.877-1.466
	c2.367-0.744,4.133,2.222,4.589,4.677c2.222,12.021-3.077,24.019-8.232,35.105c-1.699,3.655-3.477,7.41-6.421,10.176
	c-1.615,1.381-3.303,2.675-5.055,3.877c-2.603,2.116-4.998,4.475-7.154,7.044c-3.703,4.206-7.225,8.564-10.565,13.075
	c-4.144,5.555-8.031,11.376-12.942,16.275c-4.91,4.899-11.054,8.887-17.93,9.854c1.966-0.267,1.322-11.809,1.11-13.265
	c-0.3-2.11-1.744-4.599-1.788-6.665c-0.056-2.533,0.978-2.899,3.066-4.677L261.748,242.145z"/>
<path fill="#EFB7B9" d="M179.295,169.446c0,0-6.666,33.328-14.442,38.883s42.216,12.22,42.216,12.22s1.11-26.662,14.441-38.882
	C234.841,169.446,179.295,169.446,179.295,169.446z"/>
<path fill="#E6E6E6" d="M224.088,301.791c1.647,0.517,3.373,0.742,5.099,0.666c5.833-0.062,11.581-1.401,16.842-3.921
	c0.493-0.191,0.929-0.505,1.267-0.911c0.396-0.86,0.417-1.847,0.056-2.722c-3.133-12.665,2.91-27.029-3.089-38.604
	c-6.521,2.121-13.676,4.443-20.196,6.51c-1,0.406-2.077,0.588-3.155,0.533c-1.292-0.269-2.475-0.914-3.399-1.855
	c-7.065-6.11-11.521-14.62-15.553-23.029c-4.033-8.41-7.987-17.086-14.342-23.93c-6.354-6.843-12.299-10.465-21.586-9.476
	c-3.297,0.45-6.323,2.066-8.531,4.555c-5.244,5.644-6.288,14.23-4.444,21.719c1.845,7.487,6.077,14.119,10.477,20.44
	c5.732,8.243,11.897,16.364,19.863,22.485c4.309,3.121,8.781,6.01,13.397,8.654"/>
<circle fill="#EFB7B9" cx="205.401" cy="161.115" r="33.328"/>
<path fill="#E6E6E6" d="M218.732,257.032c-10.019,11.813-12.136,26.907-14.187,41.804c-10.064-3.41-21.219,2.311-31.639,0.222
	c-5.233-1.742-10.771-2.385-16.264-1.887c-3.855-0.368-7.677-2.79-11.354-1.557c-6.112,3.872-0.159-20.113-0.522-27.085
	C141.562,150.935,236.942,208.142,218.732,257.032z"/>
<path fill="#EFB7B9" d="M275.079,246.589c2.933-2.478,5.865-4.966,8.554-7.698c3.794-4.021,7.298-8.305,10.487-12.82
	c3.399-4.633,6.776-9.376,8.888-14.73c2.389-6.133,3.121-13.109,7.276-18.197c0.47-0.661,1.122-1.171,1.877-1.467
	c2.367-0.744,4.133,2.222,4.589,4.677c2.222,12.021-3.077,24.019-8.232,35.105c-1.699,3.655-3.477,7.41-6.421,10.176
	c-1.615,1.381-3.303,2.676-5.055,3.878c-2.603,2.115-4.998,4.474-7.154,7.043c-3.703,4.207-7.225,8.565-10.565,13.075
	c-4.144,5.555-8.031,11.376-12.941,16.275c-4.911,4.899-11.055,8.888-17.931,9.854c1.966-0.267,1.322-11.81,1.11-13.265
	c-0.3-2.111-1.744-4.6-1.788-6.666c-0.056-2.533,0.978-2.899,3.066-4.677L275.079,246.589z"/>
<path opacity="0.1" enable-background="new    " d="M215.4,258.142l-0.078,0.145c-1.922,3.566-4.799,6.565-6.776,10.12
	c-2.223,4.021-3.255,8.61-4.145,13.132c-0.614,3.036-1.181,6.076-1.699,9.12c-3.989-2.288-7.847-4.799-11.554-7.521
	c-7.965-6.121-14.131-14.242-19.863-22.496c-4.443-6.321-8.665-12.954-10.476-20.431c-1.812-7.477-0.756-16.074,4.443-21.718
	c2.208-2.491,5.234-4.11,8.532-4.566c9.287-0.988,15.152,2.6,21.507,9.432s10.287,15.554,14.342,23.93
	C211.433,250.922,213.278,254.643,215.4,258.142z"/>
<path fill="#E6E6E6" d="M179.361,209.495c-3.296,0.451-6.323,2.066-8.531,4.555c-5.244,5.644-6.288,14.231-4.444,21.719
	c1.845,7.487,6.077,14.12,10.477,20.441c5.732,8.243,11.897,16.363,19.863,22.484c4.309,3.121,8.781,6.01,13.397,8.654
	c7.671,4.726,15.043,3.254,22.074,8.888c1.541,1.396,3.307,2.522,5.222,3.333c1.647,0.516,3.373,0.741,5.099,0.666
	c5.833-0.063,11.581-3.623,16.842-6.144c0.493-0.19,0.929-0.504,1.267-0.911c0.396-0.859,0.417-1.846,0.056-2.722
	c-3.133-12.664,2.91-18.141-3.089-29.717c-6.521,2.122-13.675,4.443-20.196,6.51c-1,0.406-2.077,0.588-3.155,0.533
	c-1.292-0.269-2.475-0.914-3.399-1.855c-7.065-6.109-11.521-14.619-15.553-23.029c-4.033-8.409-7.987-17.086-14.342-23.929
	C194.593,212.128,188.648,208.507,179.361,209.495z"/>
<path fill="#2F2E41" d="M225.769,604.066c-3.05,3.1-7.769,3.839-11.62,1.821c-0.784-0.403-1.509-0.911-2.155-1.511l-22.975-17.053
	l-9.109-6.766c-3.9-3.627-4.121-9.729-0.495-13.629c0.114-0.122,0.23-0.241,0.351-0.357l6.044-4.71l2.499-1.956l3.355-2.621
	l2.933-2.289l18.819,10.554l0.322,0.622l14.242,27.462C229.339,597.245,228.475,601.316,225.769,604.066z"/>
<path fill="#2F2E41" d="M78.016,595.178c-3.05,3.1-7.769,3.84-11.621,1.821c-0.3-0.155-0.6-0.333-0.889-0.521
	c-0.448-0.294-0.872-0.625-1.266-0.989l-22.975-17.053l-1.433-1.066l-7.677-5.698c-3.9-3.627-4.122-9.729-0.495-13.629
	c0.114-0.123,0.23-0.242,0.351-0.358l6.044-4.71l2.499-1.955l3.355-2.622l2.933-2.288l0.478,0.267l16.509,9.254l1.833,1.033
	l0.321,0.622l14.242,27.462C81.585,588.357,80.722,592.428,78.016,595.178z"/>
<path fill="#2F2E41" d="M236.781,132.704c-12.905-14.621-27.456-21.614-44.902-15.193c-27.992-9.396-64.787,55.174-42.13,78.59
	l38.37,3.199l11.75-21.156l-4.158,21.914l30.692,3.063C210.746,178.776,215.768,155.376,236.781,132.704z"/>
<circle fill="#FFFFFF" cx="381.335" cy="209.13" r="29.121"/>
<path id="b7967eb0-3852-4b4e-922e-fc5c5c10b32f" fill="#F27B91" d="M447.06,205.256c-1.88,0.03-3.38,1.58-3.349,3.461
	c0.03,1.837,1.512,3.318,3.349,3.349h91.946c1.88,0.031,3.43-1.469,3.46-3.349c0.031-1.881-1.468-3.431-3.349-3.461
	c-0.037-0.001-0.074-0.001-0.111,0H447.06z"/>
<path id="ad32ad83-e01c-4d2e-9894-1e4be88f9c53" fill="#FFFFFF" d="M447.06,185.528c-1.88,0.031-3.38,1.58-3.349,3.461
	c0.03,1.837,1.512,3.318,3.349,3.349h45.916c1.88,0.031,3.43-1.468,3.46-3.349c0.031-1.881-1.468-3.43-3.349-3.461
	c-0.037,0-0.074,0-0.111,0H447.06z"/>
<path id="b8c03661-e17a-4fab-8534-eccbef804c4d" fill="#FFFFFF" d="M447.06,225.922c-1.88,0.031-3.38,1.581-3.349,3.461
	c0.03,1.837,1.512,3.319,3.349,3.349h91.946c1.88,0.031,3.43-1.468,3.46-3.349c0.031-1.88-1.468-3.43-3.349-3.461l0,0
	c-0.037,0-0.074,0-0.111,0H447.06z"/>
<circle fill="#F27B91" cx="474.934" cy="315.024" r="7.251"/>
<path id="b77325d6-50dc-43c0-8216-f2a1d6b85c22" fill="#E6E6E6" d="M504.817,311.269c-2.074,0.035-3.726,1.745-3.69,3.818
	c0.034,2.023,1.667,3.656,3.69,3.69h177.004c2.074,0.024,3.775-1.636,3.8-3.71c0.024-2.061-1.616-3.756-3.676-3.799
	c-0.041-0.001-0.082-0.001-0.124,0H504.817z"/>
<circle fill="#8BC53F" cx="474.934" cy="350.243" r="7.251"/>
<path id="e824ced5-faa4-4682-b917-364e7ee8d226" fill="#E6E6E6" d="M504.817,346.488c-2.074,0.035-3.727,1.744-3.691,3.818
	c0.034,2.024,1.667,3.657,3.691,3.691h177.004c2.074,0.026,3.777-1.633,3.804-3.707c0.026-2.063-1.617-3.762-3.68-3.803
	c-0.041,0-0.082,0-0.124,0H504.817z"/>
<circle fill="#6C63FF" cx="474.934" cy="385.462" r="7.251"/>
<path id="bbf5fbba-a419-4277-8479-b5449b0fda76" fill="#E6E6E6" d="M504.817,381.708c-2.074,0.035-3.726,1.744-3.69,3.818
	c0.034,2.023,1.667,3.655,3.69,3.69h177.004c2.074,0.024,3.775-1.637,3.8-3.71c0.024-2.061-1.616-3.756-3.676-3.799
	c-0.041-0.001-0.082-0.001-0.124,0H504.817z"/>
<circle fill="#F27B91" cx="474.934" cy="420.681" r="7.251"/>
<path id="aac1deb1-7452-4c7b-a77e-b2a8d40303c2" fill="#E6E6E6" d="M504.817,416.927c-2.074,0.035-3.726,1.745-3.69,3.818
	c0.034,2.023,1.667,3.656,3.69,3.69h177.004c2.074,0.044,3.79-1.603,3.833-3.676c0.044-2.073-1.602-3.789-3.675-3.832
	c-0.012-0.001-0.023-0.001-0.034-0.001c-0.041-0.001-0.082-0.001-0.124,0H504.817z"/>
<circle fill="#6C63FF" cx="474.934" cy="455.9" r="7.251"/>
<path id="a9b6ff26-3939-4f3a-ae63-2579aa7f3255" fill="#E6E6E6" d="M504.817,452.145c-2.074,0.035-3.726,1.745-3.69,3.818
	c0.034,2.024,1.667,3.656,3.69,3.69h177.004c2.074,0.025,3.775-1.636,3.8-3.71c0.024-2.061-1.616-3.756-3.676-3.799
	c-0.041-0.001-0.082-0.001-0.124,0H504.817z"/>
<circle fill="#8BC53F" cx="474.934" cy="491.119" r="7.251"/>
<path id="aecc0378-d450-4bc8-9586-b48de5acca36" fill="#E6E6E6" d="M504.817,487.365c-2.074,0.035-3.726,1.744-3.69,3.818
	c0.034,2.023,1.667,3.655,3.69,3.69h177.004c2.074,0.024,3.775-1.637,3.8-3.71c0.024-2.061-1.616-3.756-3.676-3.799
	c-0.041-0.001-0.082-0.001-0.124,0H504.817z"/>
<circle fill="#F27B91" cx="474.934" cy="526.338" r="7.251"/>
<path id="f8010015-3a79-4c4e-95e1-7b3292a2fa58" fill="#E6E6E6" d="M504.817,522.584c-2.074,0.035-3.726,1.744-3.69,3.818
	c0.034,2.023,1.667,3.656,3.69,3.69h177.004c2.074,0.024,3.775-1.637,3.8-3.71c0.024-2.061-1.616-3.756-3.676-3.799
	c-0.041-0.001-0.082-0.001-0.124,0H504.817z"/>
<path fill="#E6E6E6" d="M817.963,474.618c-0.155,3.822-4.019,82.723-57.023,125.835c-2.217,1.803-4.52,3.539-6.909,5.211
	l-1.803-1.761h1.047c2.574-0.001,4.661-2.088,4.661-4.662V443.719c1.108-5.967,2.154-11.83,3.107-17.537
	c5.169-31.023,7.562-57.23,3.688-68.118c1.679,4.206,35.364,90.224,17.071,177.866C799.919,511.121,817.114,485.08,817.963,474.618z
	"/>
</svg>
