<?xml version="1.0" encoding="utf-8"?>
<!-- Generator: Adobe Illustrator 16.0.0, SVG Export Plug-In . SVG Version: 6.00 Build 0)  -->
<!DOCTYPE svg PUBLIC "-//W3C//DTD SVG 1.1//EN" "http://www.w3.org/Graphics/SVG/1.1/DTD/svg11.dtd">
<svg version="1.1" id="Layer_1" xmlns="http://www.w3.org/2000/svg" xmlns:xlink="http://www.w3.org/1999/xlink" x="0px" y="0px"
	 width="141.73px" height="141.73px" viewBox="0 0 141.73 141.73" enable-background="new 0 0 141.73 141.73" xml:space="preserve">
<g id="freepik--Plants--inject-74">
	<path fill="#8CC63F" d="M122.886,72.121c0,0,0-1.417-1.984-3.382c-1.983-1.965-3.243-3.104-3.243-3.104s-0.986,3.242,0.852,5.218
		c1.348,1.388,2.811,2.66,4.37,3.805L122.886,72.121z"/>
	<path fill="#8CC63F" d="M120.023,80.925c0,0,0-1.417-1.984-3.381c-1.984-1.965-3.237-3.104-3.237-3.104s-0.989,3.243,0.851,5.219
		c1.348,1.388,2.811,2.66,4.371,3.804V80.925z"/>
	<path fill="#8CC63F" d="M122.762,74.521c0,0,0.149-1.4,2.32-3.154c2.172-1.755,3.553-2.741,3.553-2.741s0.637,3.328-1.393,5.103
		c-1.486,1.237-3.075,2.349-4.748,3.322L122.762,74.521z"/>
	<path fill="#8CC63F" d="M119.303,84.919c0,0,0.283-1.377,2.639-2.894s3.818-2.354,3.818-2.354s0.283,3.379-1.919,4.924
		c-1.608,1.075-3.306,2.014-5.071,2.807L119.303,84.919z"/>
	<path fill="#8CC63F" d="M119.952,96.258c0,0,0-1.418,1.983-3.385c1.984-1.967,3.24-3.101,3.24-3.101s0.99,3.242-0.85,5.215
		c-1.348,1.39-2.811,2.663-4.371,3.808L119.952,96.258z"/>
	<path fill="#8CC63F" d="M119.921,99.024c0,0,0.198-1.395-1.474-3.629c-1.673-2.233-2.77-3.531-2.77-3.531s-1.438,3.069,0.096,5.283
		c1.137,1.565,2.402,3.033,3.785,4.388L119.921,99.024z"/>
	<path fill="#8CC63F" d="M117.974,107.224c0,0,0-1.417,1.983-3.382c1.984-1.964,3.243-3.104,3.243-3.104s0.987,3.242-0.851,5.219
		c-1.348,1.388-2.811,2.661-4.371,3.807L117.974,107.224z"/>
	<path fill="#8CC63F" d="M119.291,114.66c0,0-0.356-1.364,1.053-3.773c1.408-2.409,2.352-3.821,2.352-3.821s1.775,2.886,0.502,5.262
		c-0.951,1.684-2.043,3.285-3.262,4.787L119.291,114.66z"/>
	<path fill="none" stroke="#263238" stroke-width="0.25" stroke-linecap="round" stroke-linejoin="round" d="M123.064,71.76
		c-0.1,1.468-0.279,2.929-0.539,4.377c-0.781,4.03-2.732,6.633-3.512,10.272s1.46,8.331,0.851,13.008
		c-0.609,4.678-2.418,7.276-1.899,10.397c0.52,3.121,3.252,11.573,3.252,11.573"/>
	
		<line fill="none" stroke="#263238" stroke-width="0.25" stroke-linecap="round" stroke-linejoin="round" x1="122.744" y1="75.46" x2="124.87" y2="73.827"/>
	
		<line fill="none" stroke="#263238" stroke-width="0.25" stroke-linecap="round" stroke-linejoin="round" x1="122.844" y1="73.581" x2="121.95" y2="71.996"/>
	<path fill="none" stroke="#263238" stroke-width="0.25" stroke-linecap="round" stroke-linejoin="round" d="M119.133,86.243
		c0,0,1.78-1.335,3.611-2.671"/>
	<path fill="none" stroke="#263238" stroke-width="0.25" stroke-linecap="round" stroke-linejoin="round" d="M120.023,83.462
		c0,0-1.486-2.908-3.167-4.836"/>
	<path fill="none" stroke="#263238" stroke-width="0.25" stroke-linecap="round" stroke-linejoin="round" d="M120.023,98.264
		c1.015-1.877,2.299-3.596,3.809-5.103"/>
	<path fill="none" stroke="#263238" stroke-width="0.25" stroke-linecap="round" stroke-linejoin="round" d="M119.678,100.243
		c-0.541-1.272-1.187-2.498-1.932-3.662c-1.037-1.534-1.188-1.732-1.188-1.732"/>
	<path fill="none" stroke="#263238" stroke-width="0.25" stroke-linecap="round" stroke-linejoin="round" d="M117.974,109.815
		c0.452-1.117,0.988-2.198,1.604-3.234c0.616-0.963,1.311-1.873,2.078-2.721"/>
	<path fill="none" stroke="#263238" stroke-width="0.25" stroke-linecap="round" stroke-linejoin="round" d="M119.936,117.114
		c-0.104-1.068,0.08-2.145,0.532-3.118c0.743-1.434,1.582-3.313,1.928-4.056"/>
	<path fill="#8CC63F" d="M106.779,90.957c0,0-0.152-0.885,0.871-2.339s1.7-2.296,1.7-2.296s0.97,1.928,0.034,3.362
		c-0.695,1.017-1.473,1.975-2.327,2.862L106.779,90.957z"/>
	<path fill="#8CC63F" d="M109.532,96.167c0,0-0.153-0.885,0.87-2.339s1.701-2.296,1.701-2.296s0.969,1.928,0.033,3.364
		c-0.695,1.017-1.473,1.974-2.327,2.86L109.532,96.167z"/>
	<path fill="#8CC63F" d="M107.117,92.448c0,0-0.244-0.851-1.797-1.727c-1.554-0.876-2.523-1.335-2.523-1.335
		s-0.039,2.157,1.418,3.047c1.066,0.614,2.182,1.139,3.336,1.567L107.117,92.448z"/>
	<path fill="#8CC63F" d="M110.416,98.594c0,0-0.334-0.834-1.967-1.531s-2.653-1.06-2.653-1.06s0.187,2.148,1.741,2.88
		c1.125,0.498,2.29,0.902,3.482,1.207L110.416,98.594z"/>
	<path fill="#8CC63F" d="M111.238,105.773c0,0-0.15-0.885-1.604-1.908c-1.455-1.022-2.371-1.593-2.371-1.593
		s-0.266,2.141,1.098,3.178c0.996,0.726,2.051,1.365,3.154,1.913L111.238,105.773z"/>
	<path fill="#8CC63F" d="M111.562,107.505c0,0-0.283-0.85,0.53-2.438c0.813-1.587,1.352-2.515,1.352-2.515s1.233,1.77,0.514,3.325
		c-0.543,1.105-1.177,2.162-1.896,3.161L111.562,107.505z"/>
	<path fill="#8CC63F" d="M114.039,114.634c0,0,0.102-0.89,1.494-1.983c1.392-1.095,2.268-1.727,2.268-1.727s0.389,2.123-0.913,3.237
		c-0.952,0.779-1.97,1.479-3.038,2.089L114.039,114.634z"/>
	<path fill="#8CC63F" d="M113.668,112.434c0,0-0.153-0.885-1.604-1.907c-1.452-1.023-2.364-1.594-2.364-1.594
		s-0.267,2.141,1.098,3.181c0.996,0.725,2.051,1.364,3.154,1.913L113.668,112.434z"/>
	<path fill="#8CC63F" d="M113.668,117.242c0,0,0.073-0.896-1.072-2.254c-1.145-1.357-1.887-2.14-1.887-2.14
		s-0.803,2.001,0.254,3.354c0.775,0.952,1.629,1.838,2.552,2.647L113.668,117.242z"/>
	<path fill="none" stroke="#263238" stroke-width="0.25" stroke-linecap="round" stroke-linejoin="round" d="M106.629,90.747
		c0.223,0.91,0.494,1.807,0.814,2.688c0.926,2.443,2.432,3.863,3.316,6.061c0.884,2.196,0,5.386,0.873,8.251
		c0.873,2.866,2.318,4.3,2.318,6.312s-0.782,7.611-0.782,7.611"/>
	
		<line fill="none" stroke="#263238" stroke-width="0.25" stroke-linecap="round" stroke-linejoin="round" x1="107.233" y1="93.032" x2="105.723" y2="92.241"/>
	
		<line fill="none" stroke="#263238" stroke-width="0.25" stroke-linecap="round" stroke-linejoin="round" x1="106.967" y1="91.864" x2="107.352" y2="90.775"/>
	<path fill="none" stroke="#263238" stroke-width="0.25" stroke-linecap="round" stroke-linejoin="round" d="M110.666,99.404
		c0,0-1.262-0.644-2.551-1.284"/>
	<path fill="none" stroke="#263238" stroke-width="0.25" stroke-linecap="round" stroke-linejoin="round" d="M109.807,97.757
		c0.372-1.168,0.861-2.295,1.46-3.364"/>
	<path fill="none" stroke="#263238" stroke-width="0.25" stroke-linecap="round" stroke-linejoin="round" d="M111.414,107.037
		c-0.841-1.063-1.832-2.001-2.942-2.78"/>
	<path fill="none" stroke="#263238" stroke-width="0.25" stroke-linecap="round" stroke-linejoin="round" d="M111.846,108.239
		c0.201-0.855,0.473-1.692,0.812-2.503c0.484-1.074,0.567-1.216,0.567-1.216"/>
	<path fill="none" stroke="#263238" stroke-width="0.25" stroke-linecap="round" stroke-linejoin="round" d="M113.883,115.587
		c0.492-0.609,1.036-1.174,1.627-1.687c0.377-0.277,0.729-0.584,1.055-0.919"/>
	<path fill="none" stroke="#263238" stroke-width="0.25" stroke-linecap="round" stroke-linejoin="round" d="M113.951,114.058
		c-0.404-0.653-0.859-1.274-1.357-1.859c-0.492-0.536-1.026-1.031-1.6-1.479"/>
	<path fill="none" stroke="#263238" stroke-width="0.25" stroke-linecap="round" stroke-linejoin="round" d="M113.515,118.849
		c-0.051-0.682-0.282-1.338-0.672-1.899c-0.62-0.819-1.353-1.908-1.649-2.336"/>
</g>
<g id="freepik--Bookshelf--inject-74">
	<polygon fill="#8CC63F" points="25.665,78.582 24.423,75.036 25.665,76.541 24.69,71.22 26.198,75.036 26.731,67.584 
		27.618,74.678 28.593,73.261 28.593,75.036 29.747,72.64 29.126,76.807 30.189,76.098 28.505,78.403 	"/>
	<polygon fill="#263238" stroke="#263238" stroke-width="0.25" stroke-linecap="round" stroke-linejoin="round" points="
		29.568,77.694 24.956,77.694 25.787,87.007 28.738,87.007 	"/>
	
		<rect x="22.507" y="86.901" fill="#FFFFFF" stroke="#263238" stroke-width="0.25" stroke-linecap="round" stroke-linejoin="round" width="15.712" height="33.278"/>
	
		<rect x="30.362" y="86.901" fill="#FFFFFF" stroke="#263238" stroke-width="0.25" stroke-linecap="round" stroke-linejoin="round" width="8.716" height="33.278"/>
	
		<rect x="30.362" y="86.901" fill="#263238" stroke="#263238" stroke-width="0.25" stroke-linecap="round" stroke-linejoin="round" width="7.736" height="33.278"/>
	<rect x="30.362" y="112.441" fill="#F27B92" width="6.866" height="6.814"/>
	
		<rect x="30.362" y="112.809" fill="#FFFFFF" stroke="#263238" stroke-width="0.25" stroke-linecap="round" stroke-linejoin="round" width="6.866" height="0.873"/>
	
		<rect x="30.362" y="117.827" fill="#FFFFFF" stroke="#263238" stroke-width="0.25" stroke-linecap="round" stroke-linejoin="round" width="6.866" height="0.873"/>
	
		<line fill="none" stroke="#263238" stroke-width="0.25" stroke-linecap="round" stroke-linejoin="round" x1="31.663" y1="112.583" x2="31.663" y2="121.2"/>
	
		<line fill="none" stroke="#263238" stroke-width="0.25" stroke-linecap="round" stroke-linejoin="round" x1="34.058" y1="112.583" x2="34.058" y2="121.2"/>
	
		<line fill="none" stroke="#263238" stroke-width="0.25" stroke-linecap="round" stroke-linejoin="round" x1="36.162" y1="112.583" x2="36.162" y2="121.2"/>
	<rect x="30.362" y="88.137" fill="#F27B92" width="6.866" height="10.021"/>
	
		<rect x="30.362" y="88.556" fill="#FFFFFF" stroke="#263238" stroke-width="0.25" stroke-linecap="round" stroke-linejoin="round" width="6.866" height="0.992"/>
	
		<rect x="30.362" y="94.98" fill="#FFFFFF" stroke="#263238" stroke-width="0.25" stroke-linecap="round" stroke-linejoin="round" width="6.866" height="0.992"/>
	
		<line fill="none" stroke="#263238" stroke-width="0.25" stroke-linecap="round" stroke-linejoin="round" x1="31.663" y1="88.296" x2="31.663" y2="98.09"/>
	
		<line fill="none" stroke="#263238" stroke-width="0.25" stroke-linecap="round" stroke-linejoin="round" x1="34.058" y1="88.296" x2="34.058" y2="98.09"/>
	
		<line fill="none" stroke="#263238" stroke-width="0.25" stroke-linecap="round" stroke-linejoin="round" x1="36.162" y1="88.296" x2="36.162" y2="98.09"/>
	<rect x="30.362" y="100.213" fill="#F27B92" width="6.866" height="10.021"/>
	
		<rect x="30.362" y="100.633" fill="#FFFFFF" stroke="#263238" stroke-width="0.25" stroke-linecap="round" stroke-linejoin="round" width="6.866" height="0.991"/>
	
		<rect x="30.362" y="107.055" fill="#FFFFFF" stroke="#263238" stroke-width="0.25" stroke-linecap="round" stroke-linejoin="round" width="6.866" height="0.992"/>
	
		<line fill="none" stroke="#263238" stroke-width="0.25" stroke-linecap="round" stroke-linejoin="round" x1="31.663" y1="100.374" x2="31.663" y2="110.165"/>
	
		<line fill="none" stroke="#263238" stroke-width="0.25" stroke-linecap="round" stroke-linejoin="round" x1="34.058" y1="100.374" x2="34.058" y2="110.165"/>
	
		<line fill="none" stroke="#263238" stroke-width="0.25" stroke-linecap="round" stroke-linejoin="round" x1="36.162" y1="100.374" x2="36.162" y2="110.165"/>
	
		<rect x="30.362" y="98.018" fill="#FFFFFF" stroke="#263238" stroke-width="0.25" stroke-linecap="round" stroke-linejoin="round" width="7.855" height="1.14"/>
	
		<rect x="30.362" y="110.171" fill="#FFFFFF" stroke="#263238" stroke-width="0.25" stroke-linecap="round" stroke-linejoin="round" width="7.855" height="1.14"/>
	
		<line fill="none" stroke="#263238" stroke-width="0.25" stroke-linecap="round" stroke-linejoin="round" x1="38.217" y1="86.901" x2="38.217" y2="120.177"/>
	<polygon fill="#FFFFFF" stroke="#263238" stroke-width="0.25" stroke-linecap="round" stroke-linejoin="round" points="
		29.253,86.901 29.253,120.177 30.362,120.177 30.362,88.137 38.081,88.137 38.081,86.887 	"/>
	
		<line fill="none" stroke="#263238" stroke-width="0.25" stroke-linecap="round" stroke-linejoin="round" x1="30.362" y1="88.137" x2="30.362" y2="86.901"/>
</g>
<g id="freepik--Character--inject-74">
	<path fill="#FFFFFF" d="M38.761,71.641c-0.825-1.59-1.171-2.729-1.171-2.993c0-0.521,1.134-0.833,1.134-0.833
		c1.769-0.936,10.088,0.416,13.833,1.04c2.096,0.365,4.217,0.574,6.344,0.624c0,0,0.519-0.414,1.134-0.936s3.535-3.952,4.68-4.252
		c1.145-0.301,2.183,0.416,2.183,0.416s1.874,1.135,1.559,1.353c-0.315,0.219-4.887,4.158-6.032,4.887s-3.535,0.417-5.615,0.834
		c-1.792,0.356-9.048,0.799-10.712,0.935c-1.25,0.297-2.562,0.188-3.745-0.312"/>
	<g>
		<defs>
			<path id="SVGID_1_" d="M38.761,71.641c-0.825-1.59-1.171-2.729-1.171-2.993c0-0.521,1.134-0.833,1.134-0.833
				c1.769-0.936,10.088,0.416,13.833,1.04c2.096,0.365,4.217,0.574,6.344,0.624c0,0,0.519-0.414,1.134-0.936s3.535-3.952,4.68-4.252
				c1.145-0.301,2.183,0.416,2.183,0.416s1.874,1.135,1.559,1.353c-0.315,0.219-4.887,4.158-6.032,4.887s-3.535,0.417-5.615,0.834
				c-1.792,0.356-9.048,0.799-10.712,0.935c-1.25,0.297-2.562,0.188-3.745-0.312"/>
		</defs>
		<clipPath id="SVGID_2_">
			<use xlink:href="#SVGID_1_"  overflow="visible"/>
		</clipPath>
		<g clip-path="url(#SVGID_2_)">
			<path fill="#6665C2" d="M66.917,64.697c0,0-1.04-0.729-2.183-0.417c-1.142,0.312-4.056,3.745-4.68,4.252
				c-0.624,0.508-1.134,0.936-1.134,0.936c-2.127-0.05-4.248-0.258-6.344-0.624c-3.744-0.623-12.064-1.983-13.833-1.04
				c0,0-1.134,0.312-1.134,0.834c0.039,0.291,0.114,0.577,0.224,0.85l0.156,0.057c0,0,2.078-0.218,6.562-0.11
				s14.856,0.723,15.522,0.964c0.284,0.107,2.293-0.346,4.521-1.134c1.701-1.386,3.699-3.118,3.9-3.24
				C68.791,65.84,66.917,64.697,66.917,64.697z"/>
			<path opacity="0.5" fill="#FFFFFF" enable-background="new    " d="M66.917,64.697c0,0-1.04-0.729-2.183-0.417
				c-1.142,0.312-4.056,3.745-4.68,4.252c-0.624,0.508-1.134,0.936-1.134,0.936c-2.127-0.05-4.248-0.258-6.344-0.624
				c-3.744-0.623-12.064-1.983-13.833-1.04c0,0-1.134,0.312-1.134,0.834c0.039,0.291,0.114,0.577,0.224,0.85l0.156,0.057
				c0,0,2.078-0.218,6.562-0.11s14.856,0.723,15.522,0.964c0.284,0.107,2.293-0.346,4.521-1.134c1.701-1.386,3.699-3.118,3.9-3.24
				C68.791,65.84,66.917,64.697,66.917,64.697z"/>
		</g>
	</g>
	<path fill="none" stroke="#263238" stroke-width="0.25" stroke-linecap="round" stroke-linejoin="round" d="M38.761,71.641
		c-0.825-1.59-1.171-2.729-1.171-2.993c0-0.521,1.134-0.833,1.134-0.833c1.769-0.936,10.088,0.416,13.833,1.04
		c2.096,0.365,4.217,0.574,6.344,0.624c0,0,0.519-0.414,1.134-0.936s3.535-3.952,4.68-4.252c1.145-0.301,2.183,0.416,2.183,0.416
		s1.874,1.135,1.559,1.353c-0.315,0.219-4.887,4.158-6.032,4.887s-3.535,0.417-5.615,0.834c-1.792,0.356-9.048,0.799-10.712,0.935
		c-1.25,0.297-2.562,0.188-3.745-0.312"/>
	<path fill="#FFFFFF" d="M79.837,80.888c0.384-0.729,1.139-1.184,1.962-1.183h18.906c0,0,1.366,0,0.958,2.597
		s-6.015,18.45-7.37,23.244c-1.354,4.793-1.641,14.896-1.641,14.896H69.975C69.975,120.442,71.772,96.283,79.837,80.888z"/>
	<g>
		<defs>
			<path id="SVGID_3_" d="M79.837,80.888c0.384-0.729,1.139-1.184,1.962-1.183h18.906c0,0,1.366,0,0.958,2.597
				s-6.015,18.45-7.37,23.244c-1.354,4.793-1.641,14.896-1.641,14.896H69.975C69.975,120.442,71.772,96.283,79.837,80.888z"/>
		</defs>
		<clipPath id="SVGID_4_">
			<use xlink:href="#SVGID_3_"  overflow="visible"/>
		</clipPath>
		<g clip-path="url(#SVGID_4_)">
			<path opacity="0.16" enable-background="new    " d="M88.352,79.706h-6.553c-0.823-0.001-1.578,0.454-1.962,1.183
				c-8.064,15.395-9.882,39.545-9.882,39.545h10.171l2.509-9.526l10.459,2.156c0.074-0.799,0.159-1.612,0.258-2.415l-0.229-2.551
				c0,0-2.144-2.254-2.818-2.817c-0.674-0.564-0.227-1.582-0.34-5.979s-4.059-7.557-5.527-10.264s0.791-4.399,2.82-7.106
				C87.98,80.953,88.275,80.233,88.352,79.706z"/>
		</g>
	</g>
	<path fill="none" stroke="#263238" stroke-width="0.25" stroke-linecap="round" stroke-linejoin="round" d="M79.837,80.888
		c0.384-0.729,1.139-1.184,1.962-1.183h18.906c0,0,1.366,0,0.958,2.597s-6.015,18.45-7.37,23.244
		c-1.354,4.793-1.641,14.896-1.641,14.896H69.975C69.975,120.442,71.772,96.283,79.837,80.888z"/>
	<path fill="#263238" stroke="#263238" stroke-width="0.25" stroke-linecap="round" stroke-linejoin="round" d="M97.426,84.216
		c-1.91,4.459-5.953,22.11-6.611,36.218h1.826c0,0,0.283-10.113,1.641-14.896c1.358-4.782,6.971-20.639,7.371-23.244
		c0.399-2.604-0.959-2.596-0.959-2.596S98.959,80.641,97.426,84.216z"/>
	<path fill="#263238" stroke="#263238" stroke-width="0.25" stroke-linecap="round" stroke-linejoin="round" d="M64.212,75.304
		c0,0-3.016-1.77-4.158-4.888c-1.143-3.118,8.943-8.112,13.323-8.424c4.379-0.312,5.615,0.83,8.221,5.304
		c2.604,4.473,4.367,10.606,3.016,13.623c-1.353,3.016-3.64,3.744-1.984,6.235c1.655,2.492,6.344,9.567,6.031,12.895
		c-0.311,3.328-3.534,6.236-8.22,6.554s-10.922-2.497-16.12-7.086c-5.199-4.59-3.85-11.339-1.984-13.521s4.68-3.016,4.887-5.198
		S64.212,75.304,64.212,75.304z"/>
	<path fill="none" stroke="#FFFFFF" stroke-width="0.25" stroke-linecap="round" stroke-linejoin="round" d="M77.067,70.369
		c1.602,2.982,3.605,6.976,4.231,9.389c1.095,4.223-4.535,6.882-2.973,8.914"/>
	<path fill="none" stroke="#FFFFFF" stroke-width="0.25" stroke-linecap="round" stroke-linejoin="round" d="M74.885,66.463
		c0,0,0.623,1.063,1.485,2.628"/>
	<path fill="none" stroke="#FFFFFF" stroke-width="0.25" stroke-linecap="round" stroke-linejoin="round" d="M83.287,73.966
		c0.184,0.56,0.304,1.138,0.356,1.724"/>
	<path fill="none" stroke="#FFFFFF" stroke-width="0.25" stroke-linecap="round" stroke-linejoin="round" d="M75.967,64.912
		c0,0,4.928,3.64,6.895,7.997"/>
	<path fill="none" stroke="#FFFFFF" stroke-width="0.25" stroke-linecap="round" stroke-linejoin="round" d="M69.13,67.642
		c-3.518,0.986-8.578,2.588-8.167,3.512"/>
	<path fill="none" stroke="#FFFFFF" stroke-width="0.25" stroke-linecap="round" stroke-linejoin="round" d="M72.382,66.774
		c0,0-0.751,0.188-1.871,0.488"/>
	<path fill="none" stroke="#FFFFFF" stroke-width="0.25" stroke-linecap="round" stroke-linejoin="round" d="M68.031,64.938
		c2.015-0.636,4.125-0.914,6.236-0.822"/>
	<path fill="none" stroke="#FFFFFF" stroke-width="0.25" stroke-linecap="round" stroke-linejoin="round" d="M66.596,65.524
		c0.319-0.166,0.648-0.31,0.987-0.431"/>
	<path fill="#FFFFFF" d="M37.59,68.648c-0.001,0.02-0.001,0.04,0,0.06C37.588,68.688,37.588,68.668,37.59,68.648z M38.761,71.641
		c-0.478-0.874-0.858-1.798-1.134-2.755C37.901,69.844,38.282,70.768,38.761,71.641z M37.596,68.724c0,0.018,0,0.037,0,0.062
		C37.601,68.761,37.599,68.742,37.596,68.724z M37.61,68.804c0.003,0.027,0.009,0.055,0.017,0.082
		C37.619,68.859,37.613,68.832,37.61,68.804z M38.761,71.638c1.06,2.009,2.379,3.868,3.923,5.533
		c3.745,4.057,14.562,14.667,15.59,15.396c1.029,0.728,0.729,2.806,0,4.887c-0.729,2.08-3.433,5.102-3.328,8.424
		c0.104,3.322,1.134,8.425,1.04,9.465c-0.093,1.04-2.696,4.578-2.696,4.578h26.833c0,0-3.345-4.252-3.345-5.706
		s4.592-20.086,4.799-21.438c0.207-1.352-0.624-2.287-2.288-2.393c-1.663-0.104-8.007-1.456-8.319-2.497
		c-0.312-1.04,1.664-4.991,1.664-4.991l-6.236,0.312c0,0-0.312,2.704-0.729,3.226s-1.041-0.521-2.498-1.247
		C61.715,84.46,58.92,83.834,57.869,83c-1.052-0.833-11.024-10.204-11.024-10.204"/>
	<g>
		<defs>
			<path id="SVGID_5_" d="M37.59,68.648c-0.001,0.02-0.001,0.04,0,0.06C37.588,68.688,37.588,68.668,37.59,68.648z M38.761,71.641
				c-0.478-0.874-0.858-1.798-1.134-2.755C37.901,69.844,38.282,70.768,38.761,71.641z M37.596,68.724c0,0.018,0,0.037,0,0.062
				C37.601,68.761,37.599,68.742,37.596,68.724z M37.61,68.804c0.003,0.027,0.009,0.055,0.017,0.082
				C37.619,68.859,37.613,68.832,37.61,68.804z M38.761,71.638c1.06,2.009,2.379,3.868,3.923,5.533
				c3.745,4.057,14.562,14.667,15.59,15.396c1.029,0.728,0.729,2.806,0,4.887c-0.729,2.08-3.433,5.102-3.328,8.424
				c0.104,3.322,1.134,8.425,1.04,9.465c-0.093,1.04-2.696,4.578-2.696,4.578h26.833c0,0-3.345-4.252-3.345-5.706
				s4.592-20.086,4.799-21.438c0.207-1.352-0.624-2.287-2.288-2.393c-1.663-0.104-8.007-1.456-8.319-2.497
				c-0.312-1.04,1.664-4.991,1.664-4.991l-6.236,0.312c0,0-0.312,2.704-0.729,3.226s-1.041-0.521-2.498-1.247
				C61.715,84.46,58.92,83.834,57.869,83c-1.052-0.833-11.024-10.204-11.024-10.204"/>
		</defs>
		<clipPath id="SVGID_6_">
			<use xlink:href="#SVGID_5_"  overflow="visible"/>
		</clipPath>
		<g clip-path="url(#SVGID_6_)">
			<path fill="#6665C2" d="M59.461,83.802c0.519,0.906,1.038,1.726,1.038,1.726s1.749,0.984,2.186,0.984s3.062,1.417,3.062,1.417
				s2.188-0.547,1.417-2.407c-0.243-0.476-0.55-0.916-0.913-1.31c-0.13,0.825-0.34,1.905-0.587,2.214
				c-0.417,0.52-1.04-0.521-2.497-1.247C62.223,84.709,60.695,84.278,59.461,83.802z"/>
			<path fill="#6665C2" d="M54.121,79.593c-3.211-2.974-7.276-6.786-7.276-6.786l-2.364-0.34l-0.284,0.159
				c0,0,6.673,5.904,8.093,6.562C52.865,79.452,53.489,79.59,54.121,79.593z"/>
			<path fill="#6665C2" d="M57.486,82.671l-0.255-0.227c0.13,0.216,0.204,0.352,0.204,0.352L57.486,82.671z"/>
			<g opacity="0.5">
				<path fill="#FFFFFF" d="M59.461,83.802c0.519,0.906,1.038,1.726,1.038,1.726s1.749,0.984,2.186,0.984s3.062,1.417,3.062,1.417
					s2.188-0.547,1.417-2.407c-0.243-0.476-0.55-0.916-0.913-1.31c-0.13,0.825-0.34,1.905-0.587,2.214
					c-0.417,0.52-1.04-0.521-2.497-1.247C62.223,84.709,60.695,84.278,59.461,83.802z"/>
				<path fill="#FFFFFF" d="M54.121,79.593c-3.211-2.974-7.276-6.786-7.276-6.786l-2.364-0.34l-0.284,0.159
					c0,0,6.673,5.904,8.093,6.562C52.865,79.452,53.489,79.59,54.121,79.593z"/>
				<path fill="#FFFFFF" d="M57.486,82.671l-0.255-0.227c0.13,0.216,0.204,0.352,0.204,0.352L57.486,82.671z"/>
			</g>
		</g>
	</g>
	<path fill="none" stroke="#263238" stroke-width="0.25" stroke-linecap="round" stroke-linejoin="round" d="M37.59,68.648
		c-0.001,0.02-0.001,0.04,0,0.06C37.588,68.688,37.588,68.668,37.59,68.648z M38.761,71.641c-0.478-0.874-0.858-1.798-1.134-2.755
		C37.901,69.844,38.282,70.768,38.761,71.641z M37.596,68.724c0,0.018,0,0.037,0,0.062C37.601,68.761,37.599,68.742,37.596,68.724z
		 M37.61,68.804c0.003,0.027,0.009,0.055,0.017,0.082C37.619,68.859,37.613,68.832,37.61,68.804z M38.761,71.638
		c1.06,2.009,2.379,3.868,3.923,5.533c3.745,4.057,14.562,14.667,15.59,15.396c1.029,0.728,0.729,2.806,0,4.887
		c-0.729,2.08-3.433,5.102-3.328,8.424c0.104,3.322,1.134,8.425,1.04,9.465c-0.093,1.04-2.696,4.578-2.696,4.578h26.833
		c0,0-3.345-4.252-3.345-5.706s4.592-20.086,4.799-21.438c0.207-1.352-0.624-2.287-2.288-2.393
		c-1.663-0.104-8.007-1.456-8.319-2.497c-0.312-1.04,1.664-4.991,1.664-4.991l-6.236,0.312c0,0-0.312,2.704-0.729,3.226
		s-1.041-0.521-2.498-1.247C61.715,84.46,58.92,83.834,57.869,83c-1.052-0.833-11.024-10.204-11.024-10.204"/>
	<path fill="none" stroke="#263238" stroke-width="0.25" stroke-linecap="round" stroke-linejoin="round" d="M46.845,72.806
		c0,0-3.322,0.062-5.176-1.465"/>
	<path fill="#FFFFFF" d="M70.973,87.886c-0.312-1.037,1.664-4.991,1.664-4.991l-6.236,0.312c0,0-0.312,2.704-0.729,3.226
		c-0.417,0.521-1.041-0.521-2.498-1.247c-0.11-0.057-0.232-0.11-0.357-0.164l-0.377,5.927c0,0,0.547,5.74,7.106,4.648
		c2.656-0.441,5.49-2.812,7.937-5.476C74.967,89.658,71.211,88.683,70.973,87.886z"/>
	<g>
		<defs>
			<path id="SVGID_7_" d="M70.973,87.886c-0.312-1.037,1.664-4.991,1.664-4.991l-6.236,0.312c0,0-0.312,2.704-0.729,3.226
				c-0.417,0.521-1.041-0.521-2.498-1.247c-0.11-0.057-0.232-0.11-0.357-0.164l-0.377,5.927c0,0,0.547,5.74,7.106,4.648
				c2.656-0.441,5.49-2.812,7.937-5.476C74.967,89.658,71.211,88.683,70.973,87.886z"/>
		</defs>
		<clipPath id="SVGID_8_">
			<use xlink:href="#SVGID_7_"  overflow="visible"/>
		</clipPath>
		<g clip-path="url(#SVGID_8_)">
			<path fill="#6665C2" d="M70.797,83.68c0,0-0.377,2.114-0.681,4.453c-0.303,2.338-0.527,4.079-0.527,4.079l1.383-4.326
				l1.559-4.583C72.532,83.303,71.024,83.303,70.797,83.68z"/>
			<path opacity="0.5" fill="#FFFFFF" enable-background="new    " d="M70.797,83.68c0,0-0.377,2.114-0.681,4.453
				c-0.303,2.338-0.527,4.079-0.527,4.079l1.383-4.326l1.559-4.583C72.532,83.303,71.024,83.303,70.797,83.68z"/>
		</g>
	</g>
	<path fill="none" stroke="#263238" stroke-width="0.25" stroke-linecap="round" stroke-linejoin="round" d="M70.973,87.886
		c-0.312-1.037,1.664-4.991,1.664-4.991l-6.236,0.312c0,0-0.312,2.704-0.729,3.226c-0.417,0.521-1.041-0.521-2.498-1.247
		c-0.11-0.057-0.232-0.11-0.357-0.164l-0.377,5.927c0,0,0.547,5.74,7.106,4.648c2.656-0.441,5.49-2.812,7.937-5.476
		C74.967,89.658,71.211,88.683,70.973,87.886z"/>
	<path fill="#6665C2" d="M65.669,86.432c-0.417,0.519-1.041-0.521-2.498-1.247c-0.918-0.462-2.381-0.882-3.591-1.335
		c-0.343-0.813-0.796-1.874-1.088-2.515c-0.519-1.134-1.352-0.416-1.352-0.416c-0.435-0.495-0.786-1.057-1.041-1.664
		c-0.519-1.134-1.352-1.04-2.494-1.247c-1.143-0.207-3.538-2.393-3.538-2.393s-1.12-0.851-1.582-1.272
		c-0.539,1.06-1.829,2.925-4.618,4.09c4.447,4.646,13.47,13.473,14.417,14.136c1.041,0.727,0.729,2.807,0,4.888
		c-0.729,2.08-3.433,5.102-3.328,8.424s1.134,8.425,1.04,9.465c-0.093,0.927-2.168,3.832-2.619,4.456l1.058,0.119h5.504
		c-0.031-2.789-0.028-14.173,1.879-18.708C64.005,96,65.669,86.432,65.669,86.432z"/>
	<g>
		<defs>
			<path id="SVGID_9_" d="M65.669,86.432c-0.417,0.519-1.041-0.521-2.498-1.247c-0.918-0.462-2.381-0.882-3.591-1.335
				c-0.343-0.813-0.796-1.874-1.088-2.515c-0.519-1.134-1.352-0.416-1.352-0.416c-0.435-0.495-0.786-1.057-1.041-1.664
				c-0.519-1.134-1.352-1.04-2.494-1.247c-1.143-0.207-3.538-2.393-3.538-2.393s-1.12-0.851-1.582-1.272
				c-0.539,1.06-1.829,2.925-4.618,4.09c4.447,4.646,13.47,13.473,14.417,14.136c1.041,0.727,0.729,2.807,0,4.888
				c-0.729,2.08-3.433,5.102-3.328,8.424s1.134,8.425,1.04,9.465c-0.093,0.927-2.168,3.832-2.619,4.456l1.058,0.119h5.504
				c-0.031-2.789-0.028-14.173,1.879-18.708C64.005,96,65.669,86.432,65.669,86.432z"/>
		</defs>
		<clipPath id="SVGID_10_">
			<use xlink:href="#SVGID_9_"  overflow="visible"/>
		</clipPath>
		<g clip-path="url(#SVGID_10_)">
			<path opacity="0.16" enable-background="new    " d="M63.172,85.185c-0.918-0.462-2.381-0.882-3.591-1.335
				c-0.343-0.813-0.796-1.874-1.088-2.515c-0.519-1.134-1.352-0.416-1.352-0.416c-0.435-0.495-0.786-1.057-1.041-1.664
				c-0.519-1.134-1.352-1.041-2.494-1.247c-1.143-0.207-3.538-2.393-3.538-2.393s-1.12-0.851-1.582-1.272
				c-0.231,0.449-0.505,0.876-0.819,1.272c1.859,1.573,3.912,3.239,4.629,3.571c1.417,0.655,1.749,0.107,2.834,0.766
				c1.085,0.657,2.296,2.834,2.296,2.834s0.658-1.751,1.205-0.547c0.547,1.205,1.86,3.28,1.86,3.28s1.749,0.983,2.186,0.983
				c0.343,0,2.024,0.873,2.738,1.25c0.159-0.831,0.247-1.329,0.247-1.329C65.253,86.951,64.629,85.911,63.172,85.185z"/>
		</g>
	</g>
	<path fill="none" stroke="#263238" stroke-width="0.25" stroke-linecap="round" stroke-linejoin="round" d="M65.669,86.432
		c-0.417,0.519-1.041-0.521-2.498-1.247c-0.918-0.462-2.381-0.882-3.591-1.335c-0.343-0.813-0.796-1.874-1.088-2.515
		c-0.519-1.134-1.352-0.416-1.352-0.416c-0.435-0.495-0.786-1.057-1.041-1.664c-0.519-1.134-1.352-1.04-2.494-1.247
		c-1.143-0.207-3.538-2.393-3.538-2.393s-1.12-0.851-1.582-1.272c-0.539,1.06-1.829,2.925-4.618,4.09
		c4.447,4.646,13.47,13.473,14.417,14.136c1.041,0.727,0.729,2.807,0,4.888c-0.729,2.08-3.433,5.102-3.328,8.424
		s1.134,8.425,1.04,9.465c-0.093,0.927-2.168,3.832-2.619,4.456l1.058,0.119h5.504c-0.031-2.789-0.028-14.173,1.879-18.708
		C64.005,96,65.669,86.432,65.669,86.432z"/>
	<path fill="#6665C2" d="M65.743,86.07c0,0-1.292-0.397-2.089,0.3c-0.796,0.697-1.984,4.275-2.684,8.155
		c-0.432,2.259-0.134,4.597,0.85,6.676c0,0,1.636-4.289,2.132-6.378S65.743,86.07,65.743,86.07z"/>
	<g>
		<defs>
			<path id="SVGID_11_" d="M65.743,86.07c0,0-1.292-0.397-2.089,0.3c-0.796,0.697-1.984,4.275-2.684,8.155
				c-0.432,2.259-0.134,4.597,0.85,6.676c0,0,1.636-4.289,2.132-6.378S65.743,86.07,65.743,86.07z"/>
		</defs>
		<clipPath id="SVGID_12_">
			<use xlink:href="#SVGID_11_"  overflow="visible"/>
		</clipPath>
		<g clip-path="url(#SVGID_12_)">
			<path opacity="0.16" enable-background="new    " d="M63.263,86.702c0,0,0.936-0.227,1.321-0.097
				c0.324,0.14,0.628,0.323,0.901,0.547l0.258-1.082c-0.387-0.198-0.826-0.271-1.256-0.207
				C63.844,85.993,63.263,86.702,63.263,86.702z"/>
		</g>
	</g>
	<path fill="none" stroke="#263238" stroke-width="0.25" stroke-linecap="round" stroke-linejoin="round" d="M65.743,86.07
		c0,0-1.292-0.397-2.089,0.3c-0.796,0.697-1.984,4.275-2.684,8.155c-0.432,2.259-0.134,4.597,0.85,6.676
		c0,0,1.636-4.289,2.132-6.378S65.743,86.07,65.743,86.07z"/>
	<polyline fill="none" stroke="#263238" stroke-width="0.25" stroke-linecap="round" stroke-linejoin="round" points="57.038,86.41 
		58.702,93.171 54.958,84.641 	"/>
	<path fill="#6665C2" d="M68,119.921h12.126c0,0-3.345-4.252-3.345-5.706s4.592-20.086,4.799-21.438
		c0.207-1.352-0.623-2.287-2.287-2.393c-1.664-0.104-8.008-1.456-8.32-2.497c0,0-2.393,8.425-3.223,14.145
		C67.036,106.938,67.775,117.12,68,119.921z"/>
	<g>
		<defs>
			<path id="SVGID_13_" d="M68,119.921h12.126c0,0-3.345-4.252-3.345-5.706s4.592-20.086,4.799-21.438
				c0.207-1.352-0.623-2.287-2.287-2.393c-1.664-0.104-8.008-1.456-8.32-2.497c0,0-2.393,8.425-3.223,14.145
				C67.036,106.938,67.775,117.12,68,119.921z"/>
		</defs>
		<clipPath id="SVGID_14_">
			<use xlink:href="#SVGID_13_"  overflow="visible"/>
		</clipPath>
		<g clip-path="url(#SVGID_14_)">
			<path opacity="0.16" enable-background="new    " d="M79.293,90.384c-1.363-0.085-5.868-1.009-7.623-1.91l0.639,1.474
				c1.154,0.613,2.398,1.046,3.685,1.281c2.112,0.378,4.076,0.304,5.36,2.191l0.062,0.094c0.079-0.363,0.133-0.618,0.15-0.737
				C81.79,91.425,80.957,90.489,79.293,90.384z"/>
		</g>
	</g>
	<path fill="none" stroke="#263238" stroke-width="0.25" stroke-linecap="round" stroke-linejoin="round" d="M68,119.921h12.126
		c0,0-3.345-4.252-3.345-5.706s4.592-20.086,4.799-21.438c0.207-1.352-0.623-2.287-2.287-2.393c-1.664-0.104-8.008-1.456-8.32-2.497
		c0,0-2.393,8.425-3.223,14.145C67.036,106.938,67.775,117.12,68,119.921z"/>
	<path fill="#6665C2" d="M70.973,87.886c0,0-3.209,10.205-3.223,14.145c0,0,4.559-5.519,5.153-9.396S70.973,87.886,70.973,87.886z"
		/>
	<g>
		<defs>
			<path id="SVGID_15_" d="M70.973,87.886c0,0-3.209,10.205-3.223,14.145c0,0,4.559-5.519,5.153-9.396S70.973,87.886,70.973,87.886z
				"/>
		</defs>
		<clipPath id="SVGID_16_">
			<use xlink:href="#SVGID_15_"  overflow="visible"/>
		</clipPath>
		<g clip-path="url(#SVGID_16_)">
			<path opacity="0.16" enable-background="new    " d="M70.42,89.19c0.978-0.032,1.911,0.419,2.492,1.208
				c0,0-0.629-1.851-1.939-2.512L70.42,89.19z"/>
		</g>
	</g>
	<path fill="none" stroke="#263238" stroke-width="0.25" stroke-linecap="round" stroke-linejoin="round" d="M70.973,87.886
		c0,0-3.209,10.205-3.223,14.145c0,0,4.559-5.519,5.153-9.396S70.973,87.886,70.973,87.886z"/>
	<path fill="#FFFFFF" d="M105.229,118.002c0,0,2.351,0.097,3.89,0.317c1.026,0.139,2.06,0.222,3.095,0.246
		c0,0-0.85-1.718-1.757-2.202s-2.552-1.352-3.929-1.159s-3.348,1.582-3.184,2.023C103.508,117.67,104.242,117.868,105.229,118.002z"
		/>
	<g>
		<defs>
			<path id="SVGID_17_" d="M105.229,118.002c0,0,2.351,0.097,3.89,0.317c1.026,0.139,2.06,0.222,3.095,0.246
				c0,0-0.85-1.718-1.757-2.202s-2.552-1.352-3.929-1.159s-3.348,1.582-3.184,2.023C103.508,117.67,104.242,117.868,105.229,118.002
				z"/>
		</defs>
		<clipPath id="SVGID_18_">
			<use xlink:href="#SVGID_17_"  overflow="visible"/>
		</clipPath>
		<g clip-path="url(#SVGID_18_)">
			<path fill="#6665C2" d="M105.229,118.002c0,0,2.351,0.097,3.89,0.317c1.026,0.139,2.06,0.222,3.095,0.246
				c0,0-0.85-1.718-1.757-2.202s-2.552-1.352-3.929-1.159s-3.348,1.582-3.184,2.023C103.508,117.67,104.242,117.868,105.229,118.002
				z"/>
			<path opacity="0.5" fill="#FFFFFF" enable-background="new    " d="M105.229,118.002c0,0,2.351,0.097,3.89,0.317
				c1.026,0.139,2.06,0.222,3.095,0.246c0,0-0.85-1.718-1.757-2.202s-2.552-1.352-3.929-1.159s-3.348,1.582-3.184,2.023
				C103.508,117.67,104.242,117.868,105.229,118.002z"/>
		</g>
	</g>
	<path fill="none" stroke="#263238" stroke-width="0.25" stroke-linecap="round" stroke-linejoin="round" d="M105.229,118.002
		c0,0,2.351,0.097,3.89,0.317c1.026,0.139,2.06,0.222,3.095,0.246c0,0-0.85-1.718-1.757-2.202s-2.552-1.352-3.929-1.159
		s-3.348,1.582-3.184,2.023C103.508,117.67,104.242,117.868,105.229,118.002z"/>
	<path fill="#FFFFFF" d="M109.133,117.299c0,0,1.861-0.967,2.326-0.952c0.465,0.014,3.555,2.103,3.402,2.438
		c-0.213,0.318-0.605,0.464-0.976,0.362c-0.343-0.161-2.423-1.046-2.423-1.046l-1.361,0.32L109.133,117.299z"/>
	<g>
		<defs>
			<path id="SVGID_19_" d="M109.133,117.299c0,0,1.861-0.967,2.326-0.952c0.465,0.014,3.555,2.103,3.402,2.438
				c-0.213,0.318-0.605,0.464-0.976,0.362c-0.343-0.161-2.423-1.046-2.423-1.046l-1.361,0.32L109.133,117.299z"/>
		</defs>
		<clipPath id="SVGID_20_">
			<use xlink:href="#SVGID_19_"  overflow="visible"/>
		</clipPath>
		<g clip-path="url(#SVGID_20_)">
			<path fill="#6665C2" d="M109.133,117.299c0,0,1.861-0.967,2.326-0.952c0.465,0.014,3.555,2.103,3.402,2.438
				c-0.153,0.334-0.885,0.606-0.976,0.362c-0.091-0.243-2.423-1.046-2.423-1.046l-1.361,0.32L109.133,117.299z"/>
			<path opacity="0.5" fill="#FFFFFF" enable-background="new    " d="M109.133,117.299c0,0,1.861-0.967,2.326-0.952
				c0.465,0.014,3.555,2.103,3.402,2.438c-0.153,0.334-0.885,0.606-0.976,0.362c-0.091-0.243-2.423-1.046-2.423-1.046l-1.361,0.32
				L109.133,117.299z"/>
		</g>
	</g>
	<path fill="none" stroke="#263238" stroke-width="0.25" stroke-linecap="round" stroke-linejoin="round" d="M109.133,117.299
		c0,0,1.861-0.967,2.326-0.952c0.465,0.014,3.555,2.103,3.402,2.438c-0.213,0.318-0.605,0.464-0.976,0.362
		c-0.343-0.161-2.423-1.046-2.423-1.046l-1.361,0.32L109.133,117.299z"/>
	<path fill="#FFFFFF" d="M107.803,115.709c0,0,2.483-0.08,2.977,0.17c0.493,0.249,2.721,4.07,2.387,4.348
		c-0.334,0.278-1.259,0.196-1.23-0.113c0.028-0.309-2.053-2.355-2.053-2.355l-1.617-0.354L107.803,115.709z"/>
	<g>
		<defs>
			<path id="SVGID_21_" d="M107.803,115.709c0,0,2.483-0.08,2.977,0.17c0.493,0.249,2.721,4.07,2.387,4.348
				c-0.334,0.278-1.259,0.196-1.23-0.113c0.028-0.309-2.053-2.355-2.053-2.355l-1.617-0.354L107.803,115.709z"/>
		</defs>
		<clipPath id="SVGID_22_">
			<use xlink:href="#SVGID_21_"  overflow="visible"/>
		</clipPath>
		<g clip-path="url(#SVGID_22_)">
			<path fill="#6665C2" d="M107.803,115.709c0,0,2.483-0.08,2.977,0.17c0.493,0.249,2.721,4.07,2.387,4.348
				c-0.334,0.278-1.259,0.196-1.23-0.113c0.028-0.309-2.053-2.355-2.053-2.355l-1.617-0.354L107.803,115.709z"/>
			<path opacity="0.5" fill="#FFFFFF" enable-background="new    " d="M107.803,115.709c0,0,2.483-0.08,2.977,0.17
				c0.493,0.249,2.721,4.07,2.387,4.348c-0.334,0.278-1.259,0.196-1.23-0.113c0.028-0.309-2.053-2.355-2.053-2.355l-1.617-0.354
				L107.803,115.709z"/>
		</g>
	</g>
	<path fill="none" stroke="#263238" stroke-width="0.25" stroke-linecap="round" stroke-linejoin="round" d="M107.803,115.709
		c0,0,2.483-0.08,2.977,0.17c0.493,0.249,2.721,4.07,2.387,4.348c-0.334,0.278-1.259,0.196-1.23-0.113
		c0.028-0.309-2.053-2.355-2.053-2.355l-1.617-0.354L107.803,115.709z"/>
	<path fill="#FFFFFF" d="M106.332,115.195c0,0,2.514-0.082,3.013,0.173c0.499,0.256,2.755,4.119,2.415,4.402
		s-1.27,0.195-1.241-0.116s-2.077-2.384-2.077-2.384l-1.639-0.36L106.332,115.195z"/>
	<g>
		<defs>
			<path id="SVGID_23_" d="M106.332,115.195c0,0,2.514-0.082,3.013,0.173c0.499,0.256,2.755,4.119,2.415,4.402
				s-1.27,0.195-1.241-0.116s-2.077-2.384-2.077-2.384l-1.639-0.36L106.332,115.195z"/>
		</defs>
		<clipPath id="SVGID_24_">
			<use xlink:href="#SVGID_23_"  overflow="visible"/>
		</clipPath>
		<g clip-path="url(#SVGID_24_)">
			<path fill="#6665C2" d="M106.332,115.195c0,0,2.514-0.082,3.013,0.173c0.499,0.256,2.755,4.119,2.415,4.402
				s-1.27,0.195-1.241-0.116s-2.077-2.384-2.077-2.384l-1.639-0.36L106.332,115.195z"/>
			<path opacity="0.5" fill="#FFFFFF" enable-background="new    " d="M106.332,115.195c0,0,2.514-0.082,3.013,0.173
				c0.499,0.256,2.755,4.119,2.415,4.402s-1.27,0.195-1.241-0.116s-2.077-2.384-2.077-2.384l-1.639-0.36L106.332,115.195z"/>
		</g>
	</g>
	<path fill="none" stroke="#263238" stroke-width="0.25" stroke-linecap="round" stroke-linejoin="round" d="M106.332,115.195
		c0,0,2.514-0.082,3.013,0.173c0.499,0.256,2.755,4.119,2.415,4.402s-1.27,0.195-1.241-0.116s-2.077-2.384-2.077-2.384l-1.639-0.36
		L106.332,115.195z"/>
	<path fill="#6665C2" d="M77.744,100.79c1.82,2.804,5.475,9.907,6.54,10.706c1.664,1.247,12.787,4.274,13.858,5.103
		s0.998,1.658,2.013,1.962c1.015,0.303,4.819,1.173,6.271,1.31c1.451,0.136,0.802-0.763,0.802-0.763l-2.475-1.701l2.157-0.532
		c0,0,2.162,2.602,2.568,2.743c0.404,0.142,1.119,0,1.074-0.32c-0.08-0.513-2.387-4.711-3.206-4.89s-5.791,0.511-5.791,0.511
		s-10.429-7.033-10.616-7.282c0,0-0.623-1.769-1.133-2.497c-0.511-0.729-0.834-0.52-0.834-0.52s0.21-0.938-0.102-1.25l-1.664-1.663
		l-0.061,0.079c-0.283-0.567-0.566-1.213-0.878-1.95c-0.87-2.05-3.952-7.801-4.47-8.632c-0.389-0.62-3.643-1.065-5.293-1.253"/>
	<g>
		<defs>
			<path id="SVGID_25_" d="M77.744,100.79c1.82,2.804,5.475,9.907,6.54,10.706c1.664,1.247,12.787,4.274,13.858,5.103
				s0.998,1.658,2.013,1.962c1.015,0.303,4.819,1.173,6.271,1.31c1.451,0.136,0.802-0.763,0.802-0.763l-2.475-1.701l2.157-0.532
				c0,0,2.162,2.602,2.568,2.743c0.404,0.142,1.119,0,1.074-0.32c-0.08-0.513-2.387-4.711-3.206-4.89s-5.791,0.511-5.791,0.511
				s-10.429-7.033-10.616-7.282c0,0-0.623-1.769-1.133-2.497c-0.511-0.729-0.834-0.52-0.834-0.52s0.21-0.938-0.102-1.25
				l-1.664-1.663l-0.061,0.079c-0.283-0.567-0.566-1.213-0.878-1.95c-0.87-2.05-3.952-7.801-4.47-8.632
				c-0.389-0.62-3.643-1.065-5.293-1.253"/>
		</defs>
		<clipPath id="SVGID_26_">
			<use xlink:href="#SVGID_25_"  overflow="visible"/>
		</clipPath>
		<g clip-path="url(#SVGID_26_)">
			<path opacity="0.16" enable-background="new    " d="M84.99,100.969c1.36,1.207,0.906,1.207,0.604,2.268s0.227-0.377,1.511-0.301
				c1.284,0.077,0.907,1.735,0.754,2.038c-0.153,0.304,1.587,0.681,1.284,1.358c-0.303,0.677-2.038,1.661-3.019,2.645
				c-0.981,0.983,2.565-1.588,3.772-1.661c0.369-0.025,0.672,0.022,0.928,0.017c-0.268-0.758-0.611-1.487-1.027-2.177
				c-0.521-0.729-0.832-0.519-0.832-0.519s0.209-0.938-0.103-1.25l-1.664-1.664l-0.06,0.079c-0.283-0.566-0.566-1.213-0.879-1.95
				c-0.87-2.049-3.951-7.801-4.47-8.631c-0.389-0.621-3.643-1.066-5.292-1.253l0.15,1.312l0.036,0.028c0,0,2.038,0.377,2.718,0.453
				c0.682,0.077,1.512,0.678,1.436,1.134c-0.077,0.457-2.039,2.492-1.436,2.645c0.604,0.153,1.285-1.511,1.965-1.284
				C82.048,94.483,83.621,99.76,84.99,100.969z"/>
		</g>
	</g>
	<path fill="none" stroke="#263238" stroke-width="0.25" stroke-linecap="round" stroke-linejoin="round" d="M77.744,100.79
		c1.82,2.804,5.475,9.907,6.54,10.706c1.664,1.247,12.787,4.274,13.858,5.103s0.998,1.658,2.013,1.962
		c1.015,0.303,4.819,1.173,6.271,1.31c1.451,0.136,0.802-0.763,0.802-0.763l-2.475-1.701l2.157-0.532c0,0,2.162,2.602,2.568,2.743
		c0.404,0.142,1.119,0,1.074-0.32c-0.08-0.513-2.387-4.711-3.206-4.89s-5.791,0.511-5.791,0.511s-10.429-7.033-10.616-7.282
		c0,0-0.623-1.769-1.133-2.497c-0.511-0.729-0.834-0.52-0.834-0.52s0.21-0.938-0.102-1.25l-1.664-1.663l-0.061,0.079
		c-0.283-0.567-0.566-1.213-0.878-1.95c-0.87-2.05-3.952-7.801-4.47-8.632c-0.389-0.62-3.643-1.065-5.293-1.253"/>
	<path fill="none" stroke="#263238" stroke-width="0.25" stroke-linecap="round" stroke-linejoin="round" d="M77.773,96.943
		c-0.076,0.255-0.143,0.511-0.193,0.771"/>
	<path fill="none" stroke="#263238" stroke-width="0.25" stroke-linecap="round" stroke-linejoin="round" d="M80.528,92.252
		c-0.891,1.016-1.642,2.146-2.233,3.359"/>
	<path fill="none" stroke="#263238" stroke-width="0.25" stroke-linecap="round" stroke-linejoin="round" d="M84.692,108.346
		c0.766-1.134,1.984-2.57,3.327-2.981"/>
	<path fill="none" stroke="#263238" stroke-width="0.25" stroke-linecap="round" stroke-linejoin="round" d="M83.845,109.742
		c0,0,0.136-0.267,0.38-0.669"/>
	<path fill="none" stroke="#263238" stroke-width="0.25" stroke-linecap="round" stroke-linejoin="round" d="M83.845,107.95
		c0,0,1.392-3.48,2.784-4.377c1.391-0.896,0.595,0.896,0.595,0.896"/>
	<path fill="#FFFFFF" d="M98.143,116.601c1.074,0.83,0.998,1.658,2.013,1.962c1.015,0.303,4.819,1.173,6.271,1.31
		c1.451,0.136,0.802-0.763,0.802-0.763l-2.475-1.701l2.157-0.533c0,0,2.162,2.603,2.568,2.744c0.404,0.142,1.176,0.193,1.074-0.32
		c-0.199-0.992-2.387-4.711-3.206-4.89s-5.791,0.511-5.791,0.511s-9.499-6.52-10.539-7.226c-4.034,0.389-5.952,2.5-6.761,3.767
		l0.028,0.023C85.948,112.743,97.071,115.77,98.143,116.601z"/>
	<g>
		<defs>
			<path id="SVGID_27_" d="M98.143,116.601c1.074,0.83,0.998,1.658,2.013,1.962c1.015,0.303,4.819,1.173,6.271,1.31
				c1.451,0.136,0.802-0.763,0.802-0.763l-2.475-1.701l2.157-0.533c0,0,2.162,2.603,2.568,2.744c0.404,0.142,1.176,0.193,1.074-0.32
				c-0.199-0.992-2.387-4.711-3.206-4.89s-5.791,0.511-5.791,0.511s-9.499-6.52-10.539-7.226c-4.034,0.389-5.952,2.5-6.761,3.767
				l0.028,0.023C85.948,112.743,97.071,115.77,98.143,116.601z"/>
		</defs>
		<clipPath id="SVGID_28_">
			<use xlink:href="#SVGID_27_"  overflow="visible"/>
		</clipPath>
		<g clip-path="url(#SVGID_28_)">
			<path fill="#6665C2" d="M110.55,119.311c-0.517-1.262-2.387-4.711-3.206-4.89s-5.791,0.51-5.791,0.51s-9.499-6.52-10.539-7.226
				c-1.059,0.093-2.098,0.344-3.081,0.746c1.499,0.851,11.494,6.52,12.755,6.771c1.338,0.283,5.803-0.45,6.588,0.077
				c0.499,0.334,1.984,2.689,2.988,4.362C110.55,119.62,110.654,119.566,110.55,119.311z"/>
			<path opacity="0.5" fill="#FFFFFF" enable-background="new    " d="M110.55,119.311c-0.806-1.806-2.387-4.711-3.206-4.89
				s-5.791,0.51-5.791,0.51s-9.499-6.52-10.539-7.226c-1.059,0.093-2.098,0.344-3.081,0.746c1.499,0.851,11.494,6.52,12.755,6.771
				c1.338,0.283,5.803-0.45,6.588,0.077c0.499,0.334,1.984,2.689,2.988,4.362C110.55,119.62,110.663,119.563,110.55,119.311z"/>
		</g>
	</g>
	<path fill="none" stroke="#263238" stroke-width="0.25" stroke-linecap="round" stroke-linejoin="round" d="M98.143,116.601
		c1.074,0.83,0.998,1.658,2.013,1.962c1.015,0.303,4.819,1.173,6.271,1.31c1.451,0.136,0.802-0.763,0.802-0.763l-2.475-1.701
		l2.157-0.533c0,0,2.162,2.603,2.568,2.744c0.404,0.142,1.176,0.193,1.074-0.32c-0.199-0.992-2.387-4.711-3.206-4.89
		s-5.791,0.511-5.791,0.511s-9.499-6.52-10.539-7.226c-4.034,0.389-5.952,2.5-6.761,3.767l0.028,0.023
		C85.948,112.743,97.071,115.77,98.143,116.601z"/>
	<path fill="#FFFFFF" d="M73.09,67.103l-8.537,3.563c-0.104,1.5-0.475,2.97-1.097,4.34c-1.009,2.134-0.419,6.174,0.55,8.354
		c0.97,2.18,5.241,1.326,6.803,1.055c1.059-0.202,2.097-0.505,3.098-0.904c0.928,0.356,1.973,0.211,2.768-0.386
		C76.674,83.125,72.104,70.298,73.09,67.103z"/>
	<g>
		<defs>
			<path id="SVGID_29_" d="M73.09,67.103l-8.537,3.563c-0.104,1.5-0.475,2.97-1.097,4.34c-1.009,2.134-0.419,6.174,0.55,8.354
				c0.97,2.18,5.241,1.326,6.803,1.055c1.059-0.202,2.097-0.505,3.098-0.904c0.928,0.356,1.973,0.211,2.768-0.386
				C76.674,83.125,72.104,70.298,73.09,67.103z"/>
		</defs>
		<clipPath id="SVGID_30_">
			<use xlink:href="#SVGID_29_"  overflow="visible"/>
		</clipPath>
		<g clip-path="url(#SVGID_30_)">
			<path fill="#6665C2" d="M73.09,67.103l-8.537,3.563c-0.104,1.5-0.475,2.97-1.097,4.34c-1.009,2.134-0.419,6.174,0.55,8.354
				c0.163,0.351,0.423,0.646,0.751,0.851v-0.165c0,0-1.585-3.926-1.284-6.19c0.3-2.265,1.587-3.401,1.737-4.833
				c0.15-1.432,0.074-2.112,2.945-3.169c2.872-1.058,4.076-2.038,4.377-0.983c0.3,1.054,1.511,8.005,2.341,9.666
				c0.831,1.66,0.754,3.401-0.527,4.152c-1.295,0.777-2.682,1.389-4.129,1.819l0.604-0.104c1.059-0.201,2.096-0.504,3.098-0.904
				c0.928,0.357,1.973,0.212,2.767-0.386C76.685,83.113,72.104,70.298,73.09,67.103z"/>
			<path opacity="0.5" fill="#FFFFFF" enable-background="new    " d="M73.09,67.103l-8.537,3.563c-0.104,1.5-0.475,2.97-1.097,4.34
				c-1.009,2.134-0.419,6.174,0.55,8.354c0.163,0.351,0.423,0.646,0.751,0.851v-0.165c0,0-1.585-3.926-1.284-6.19
				c0.3-2.265,1.587-3.401,1.737-4.833c0.15-1.432,0.074-2.112,2.945-3.169c2.872-1.058,4.076-2.038,4.377-0.983
				c0.3,1.054,1.511,8.005,2.341,9.666c0.831,1.66,0.754,3.401-0.527,4.152c-1.295,0.777-2.682,1.389-4.129,1.819l0.604-0.104
				c1.059-0.201,2.096-0.504,3.098-0.904c0.928,0.357,1.973,0.212,2.767-0.386C76.685,83.113,72.104,70.298,73.09,67.103z"/>
		</g>
	</g>
	<path fill="none" stroke="#263238" stroke-width="0.25" stroke-linecap="round" stroke-linejoin="round" d="M73.09,67.103
		l-8.537,3.563c-0.104,1.5-0.475,2.97-1.097,4.34c-1.009,2.134-0.419,6.174,0.55,8.354c0.97,2.18,5.241,1.326,6.803,1.055
		c1.059-0.202,2.097-0.505,3.098-0.904c0.928,0.356,1.973,0.211,2.768-0.386C76.674,83.125,72.104,70.298,73.09,67.103z"/>
	<path fill="none" stroke="#263238" stroke-width="0.25" stroke-linecap="round" stroke-linejoin="round" d="M68.776,72.69
		c0.023,0.502-0.04,1.005-0.185,1.485c-0.227,0.567-2.367,2.795-2.302,3.036c0.065,0.241,0.258,1.015,0.638,1.089"/>
	<path fill="none" stroke="#263238" stroke-width="0.25" stroke-linecap="round" stroke-linejoin="round" d="M71.149,74.683
		c0.297-0.596,1.275-0.015,1.261,1.326"/>
	<path fill="none" stroke="#263238" stroke-width="0.25" stroke-linecap="round" stroke-linejoin="round" d="M66.302,72.931
		c0,0,0.833-0.365,1.579,0.983"/>
	<path fill="none" stroke="#263238" stroke-width="0.25" stroke-linecap="round" stroke-linejoin="round" d="M69.964,76.647
		c0.963,0.049,1.878,0.433,2.588,1.086"/>
	<path fill="none" stroke="#263238" stroke-width="0.25" stroke-linecap="round" stroke-linejoin="round" d="M65.295,74.876
		c0.498,0.066,0.984,0.201,1.445,0.399"/>
	<path fill="#263238" d="M68.683,71.432c-0.446-0.236-0.978-0.249-1.435-0.034c-0.762,0.365-1.23,0.768-1.179,0.3
		c0.051-0.468,0.946-0.983,1.216-1.052C67.554,70.579,68.759,70.391,68.683,71.432z"/>
	<path fill="#263238" d="M70.82,70.375c0.794,0.643,1.426,1.465,1.842,2.397c0.567,1.418,1.016-0.13,0.567-1.057
		S71.486,69.802,70.82,70.375z"/>
	<path fill="#6665C2" stroke="#263238" stroke-width="0.25" stroke-linecap="round" stroke-linejoin="round" d="M76.798,85.549
		c0,0.66-0.374,1.196-0.833,1.196s-0.83-0.536-0.83-1.196c0-0.661,0.371-2.342,0.83-2.342S76.798,84.887,76.798,85.549z"/>
	<path fill="#263238" d="M71.222,74.426c-0.032,0.086-0.058,0.176-0.076,0.267c-0.083,0.419-0.165,1.295,0,1.332
		c0.164,0.037,0.567-0.782,0.637-1.202c0.017-0.082,0.025-0.166,0.029-0.249C71.619,74.512,71.422,74.463,71.222,74.426z"/>
	<path fill="#263238" d="M66.387,72.849c-0.025,0.074-0.045,0.149-0.06,0.227c-0.085,0.42-0.083,1.341,0.096,1.375
		s0.471-0.828,0.553-1.247c0.021-0.103,0.032-0.205,0.034-0.31C66.807,72.839,66.595,72.823,66.387,72.849z"/>
	<path fill="none" stroke="#263238" stroke-width="0.25" stroke-linecap="round" stroke-linejoin="round" d="M71.149,74.697
		l0.283-0.527c0.449,0.088,0.857,0.323,1.157,0.669"/>
	<path fill="none" stroke="#263238" stroke-width="0.25" stroke-linecap="round" stroke-linejoin="round" d="M66.387,72.849
		l0.283-0.332c0,0,0.122-0.06,0.791,0.244"/>
	<path fill="none" stroke="#263238" stroke-width="0.25" stroke-linecap="round" stroke-linejoin="round" d="M65.312,80.537
		c0,0,0.476-0.876,1.114-0.876s1.114,1.432,1.114,1.432"/>
</g>
<g id="freepik--Mug--inject-74">
	<path fill="#FFFFFF" d="M44.787,118.31c-0.617-0.03-1.222-0.175-1.786-0.425c-0.32-0.118-0.483-0.474-0.365-0.794
		c0.119-0.32,0.474-0.483,0.794-0.365c0.02,0.007,0.04,0.016,0.059,0.025c0.567,0.24,1.301,0.391,1.497,0.306
		c0.36-0.402,0.913-2.834,0.198-4.008c-0.162-0.261-0.312-0.309-0.411-0.32c-0.406-0.057-1.006,0.36-1.219,0.566
		c-0.249,0.235-0.641,0.224-0.876-0.025c-0.234-0.249-0.223-0.641,0.026-0.876c0.11-0.107,1.134-1.028,2.225-0.881
		c0.548,0.08,1.028,0.411,1.298,0.896c1.051,1.715,0.332,4.978-0.477,5.624C45.47,118.231,45.13,118.329,44.787,118.31z"/>
	<g>
		<defs>
			<path id="SVGID_31_" d="M44.787,118.31c-0.617-0.03-1.222-0.175-1.786-0.425c-0.32-0.118-0.483-0.474-0.365-0.794
				c0.119-0.32,0.474-0.483,0.794-0.365c0.02,0.007,0.04,0.016,0.059,0.025c0.567,0.24,1.301,0.391,1.497,0.306
				c0.36-0.402,0.913-2.834,0.198-4.008c-0.162-0.261-0.312-0.309-0.411-0.32c-0.406-0.057-1.006,0.36-1.219,0.566
				c-0.249,0.235-0.641,0.224-0.876-0.025c-0.234-0.249-0.223-0.641,0.026-0.876c0.11-0.107,1.134-1.028,2.225-0.881
				c0.548,0.08,1.028,0.411,1.298,0.896c1.051,1.715,0.332,4.978-0.477,5.624C45.47,118.231,45.13,118.329,44.787,118.31z"/>
		</defs>
		<clipPath id="SVGID_32_">
			<use xlink:href="#SVGID_31_"  overflow="visible"/>
		</clipPath>
		<g clip-path="url(#SVGID_32_)">
			<path fill="#6665C2" d="M45.618,112.862c-0.151-0.357-0.47-0.616-0.851-0.691c-0.708-0.113-1.375,0.599-1.449,0.678
				c-0.138,0.167-0.162,0.401-0.059,0.592c0.111-0.021,0.214-0.075,0.297-0.152c0.213-0.198,0.813-0.615,1.219-0.567
				c0.1,0,0.25,0.06,0.411,0.32c0.714,1.162,0.162,3.605-0.198,4.009c-0.196,0.085-0.927-0.065-1.497-0.307
				c-0.07-0.029-0.145-0.046-0.221-0.048c0.01,0.157,0.1,0.3,0.238,0.377c0.359,0.191,0.754,0.304,1.16,0.328
				c0.231,0.012,0.458-0.067,0.632-0.221C45.833,116.689,46.303,114.18,45.618,112.862z"/>
			<path opacity="0.5" fill="#FFFFFF" enable-background="new    " d="M45.618,112.862c-0.151-0.357-0.47-0.616-0.851-0.691
				c-0.708-0.113-1.375,0.599-1.449,0.678c-0.138,0.167-0.162,0.401-0.059,0.592c0.111-0.021,0.214-0.075,0.297-0.152
				c0.213-0.198,0.813-0.615,1.219-0.567c0.1,0,0.25,0.06,0.411,0.32c0.714,1.162,0.162,3.605-0.198,4.009
				c-0.196,0.085-0.927-0.065-1.497-0.307c-0.07-0.029-0.145-0.046-0.221-0.048c0.01,0.157,0.1,0.3,0.238,0.377
				c0.359,0.191,0.754,0.304,1.16,0.328c0.231,0.012,0.458-0.067,0.632-0.221C45.833,116.689,46.303,114.18,45.618,112.862z"/>
		</g>
	</g>
	<path fill="none" stroke="#263238" stroke-width="0.25" stroke-linecap="round" stroke-linejoin="round" d="M44.787,118.31
		c-0.617-0.03-1.222-0.175-1.786-0.425c-0.32-0.118-0.483-0.474-0.365-0.794c0.119-0.32,0.474-0.483,0.794-0.365
		c0.02,0.007,0.04,0.016,0.059,0.025c0.567,0.24,1.301,0.391,1.497,0.306c0.36-0.402,0.913-2.834,0.198-4.008
		c-0.162-0.261-0.312-0.309-0.411-0.32c-0.406-0.057-1.006,0.36-1.219,0.566c-0.249,0.235-0.641,0.224-0.876-0.025
		c-0.234-0.249-0.223-0.641,0.026-0.876c0.11-0.107,1.134-1.028,2.225-0.881c0.548,0.08,1.028,0.411,1.298,0.896
		c1.051,1.715,0.332,4.978-0.477,5.624C45.47,118.231,45.13,118.329,44.787,118.31z"/>
	<rect x="36.887" y="110.997" fill="#FFFFFF" width="6.817" height="9.049"/>
	<g>
		<defs>
			<rect id="SVGID_33_" x="36.887" y="110.997" width="6.817" height="9.049"/>
		</defs>
		<clipPath id="SVGID_34_">
			<use xlink:href="#SVGID_33_"  overflow="visible"/>
		</clipPath>
		<g clip-path="url(#SVGID_34_)">
			<rect x="36.887" y="110.997" fill="#6665C2" width="2.792" height="9.049"/>
			<rect x="36.887" y="110.997" opacity="0.5" fill="#FFFFFF" enable-background="new    " width="2.792" height="9.049"/>
		</g>
	</g>
	
		<rect x="36.887" y="110.997" fill="none" stroke="#263238" stroke-width="0.25" stroke-linecap="round" stroke-linejoin="round" width="6.817" height="9.049"/>
</g>
<g id="freepik--Device--inject-74">
	<path fill="#F27B92" d="M81.166,119.921H52.043l-0.95-16.01c-0.1-0.593,0.299-1.154,0.892-1.255
		c0.057-0.01,0.114-0.015,0.171-0.016h28.884c0.602,0,1.09,0.486,1.09,1.088c0,0.062-0.005,0.122-0.016,0.183L81.166,119.921z"/>
	<path fill="none" stroke="#FFFFFF" stroke-width="0.25" stroke-linecap="round" stroke-linejoin="round" d="M53.478,103.023h27.354
		c0.585-0.006,1.064,0.464,1.07,1.05c0.001,0.061-0.004,0.121-0.014,0.181"/>
	<path fill="none" stroke="#FFFFFF" stroke-width="0.25" stroke-linecap="round" stroke-linejoin="round" d="M51.307,104.002
		c0.047-0.556,0.514-0.981,1.071-0.979"/>
	
		<rect x="51.921" y="118.361" fill="#FFFFFF" stroke="#263238" stroke-width="0.25" stroke-linecap="round" stroke-linejoin="round" width="29.367" height="1.56"/>
	
		<ellipse fill="#FFFFFF" stroke="#263238" stroke-width="0.25" stroke-linecap="round" stroke-linejoin="round" cx="66.5" cy="111.343" rx="2.081" ry="1.248"/>
</g>
<g id="freepik--Table--inject-74">
	<rect x="16.206" y="119.736" fill="#263238" width="109.376" height="2.656"/>
</g>
<g id="freepik--pop-up-window--inject-74">
	<path opacity="0.6" fill="#6665C2" d="M44.603,21.26h52.618c1.774,0,3.213,1.438,3.213,3.212v30.191
		c0,1.773-1.438,3.211-3.213,3.211H44.603c-1.773,0-3.211-1.438-3.211-3.211V24.471C41.391,22.697,42.829,21.26,44.603,21.26z"/>
	<circle fill="#F27B92" cx="70.912" cy="33.658" r="8.753"/>
	<path fill="#FFFFFF" d="M70.845,35.276l-2.917,3.745c-0.202,0.316-0.549,0.511-0.924,0.516c-0.253,0.004-0.498-0.093-0.68-0.27
		c-0.188-0.172-0.291-0.417-0.284-0.672c0.009-0.281,0.109-0.553,0.284-0.773l3.325-4.113l-3.118-4.115
		c-0.145-0.193-0.225-0.428-0.227-0.669c-0.001-0.291,0.119-0.57,0.332-0.769c0.2-0.209,0.476-0.326,0.765-0.326
		c0.372,0.006,0.716,0.2,0.913,0.517l2.818,3.71l2.835-3.648c0.205-0.346,0.57-0.565,0.972-0.586
		c0.248-0.001,0.485,0.102,0.655,0.283c0.18,0.17,0.283,0.406,0.283,0.654c-0.003,0.22-0.079,0.433-0.216,0.604l-3.336,4.269
		l3.223,4.252c0.152,0.189,0.237,0.426,0.241,0.669c0.002,0.285-0.121,0.557-0.338,0.742c-0.207,0.2-0.484,0.312-0.773,0.312
		c-0.374-0.005-0.72-0.199-0.918-0.517L70.845,35.276z"/>
	<path fill="#FFFFFF" d="M87.59,51.533H54.223c-1.409,0-2.551-1.143-2.551-2.551l0,0c0-1.409,1.142-2.552,2.551-2.552H87.59
		c1.408,0,2.551,1.143,2.551,2.552l0,0C90.141,50.39,88.998,51.533,87.59,51.533z"/>
	<path fill="#8CC63F" d="M58.795,49.803c-0.045,0-0.088-0.018-0.119-0.051c-0.034-0.033-0.052-0.08-0.051-0.127
		c0-0.04,0.011-0.079,0.031-0.114l0.255-0.396H58.39c-0.049,0.003-0.096-0.016-0.13-0.051c-0.06-0.07-0.06-0.174,0-0.244
		c0.034-0.035,0.082-0.054,0.13-0.051l0.513,0.015l-0.227-0.369c-0.022-0.037-0.035-0.08-0.037-0.125
		c-0.001-0.047,0.017-0.094,0.051-0.127c0.032-0.033,0.076-0.052,0.122-0.051c0.065-0.001,0.124,0.036,0.15,0.096l0.25,0.445
		l0.238-0.425c0.031-0.067,0.096-0.112,0.17-0.116c0.045,0,0.088,0.018,0.119,0.051c0.034,0.031,0.052,0.075,0.051,0.122
		c0,0.04-0.012,0.079-0.034,0.113l-0.25,0.399l0.519-0.015c0.049-0.002,0.096,0.017,0.13,0.052c0.06,0.07,0.06,0.174,0,0.243
		c-0.034,0.035-0.082,0.055-0.13,0.052h-0.524l0.232,0.362c0.026,0.044,0.041,0.094,0.042,0.145
		c0.001,0.047-0.016,0.092-0.048,0.125c-0.03,0.032-0.072,0.051-0.116,0.051c-0.072-0.002-0.136-0.045-0.165-0.11l-0.235-0.417
		l-0.235,0.417C58.942,49.769,58.871,49.809,58.795,49.803z"/>
	<path fill="#8CC63F" d="M61.397,49.803c-0.045,0-0.088-0.018-0.119-0.051c-0.034-0.033-0.053-0.08-0.051-0.127
		c0-0.04,0.011-0.079,0.031-0.114l0.255-0.396h-0.521c-0.049,0.003-0.096-0.016-0.13-0.051c-0.06-0.07-0.06-0.174,0-0.244
		c0.034-0.035,0.082-0.054,0.13-0.051l0.513,0.015l-0.241-0.383c-0.023-0.038-0.036-0.081-0.037-0.125
		c-0.001-0.048,0.017-0.094,0.051-0.128c0.032-0.032,0.076-0.051,0.122-0.051c0.065-0.001,0.124,0.037,0.15,0.097l0.25,0.444
		l0.238-0.425c0.031-0.067,0.096-0.112,0.17-0.116c0.045,0,0.088,0.019,0.119,0.051c0.033,0.032,0.052,0.076,0.051,0.122
		c0,0.04-0.012,0.08-0.034,0.113l-0.25,0.4l0.519-0.015c0.049-0.003,0.096,0.016,0.13,0.051c0.06,0.07,0.06,0.174,0,0.244
		c-0.034,0.035-0.082,0.054-0.13,0.051h-0.524l0.232,0.363c0.026,0.043,0.041,0.093,0.042,0.145
		c0.001,0.046-0.016,0.091-0.048,0.124c-0.03,0.032-0.072,0.051-0.116,0.052c-0.072-0.001-0.136-0.045-0.164-0.111L61.8,49.271
		l-0.235,0.416C61.537,49.756,61.471,49.801,61.397,49.803z"/>
	<path fill="#8CC63F" d="M64,49.803c-0.045,0-0.088-0.018-0.119-0.051c-0.034-0.033-0.052-0.08-0.051-0.127
		c0-0.04,0.011-0.079,0.031-0.114l0.255-0.396h-0.521c-0.049,0.003-0.097-0.016-0.131-0.051c-0.06-0.07-0.06-0.174,0-0.244
		c0.034-0.035,0.082-0.054,0.131-0.051l0.513,0.015l-0.241-0.383c-0.023-0.038-0.036-0.081-0.037-0.125
		c-0.001-0.048,0.017-0.094,0.051-0.128c0.032-0.032,0.076-0.051,0.122-0.051c0.065-0.001,0.125,0.037,0.15,0.097l0.25,0.444
		l0.238-0.425c0.03-0.067,0.096-0.112,0.17-0.116c0.045,0,0.088,0.019,0.119,0.051c0.034,0.032,0.052,0.076,0.051,0.122
		c0,0.04-0.012,0.08-0.034,0.113l-0.25,0.4l0.519-0.015c0.049-0.003,0.097,0.016,0.13,0.051c0.06,0.07,0.06,0.174,0,0.244
		c-0.034,0.035-0.082,0.054-0.13,0.051h-0.524l0.232,0.363c0.026,0.043,0.041,0.093,0.042,0.145
		c0.002,0.046-0.016,0.091-0.048,0.124c-0.03,0.032-0.072,0.051-0.117,0.052c-0.072-0.001-0.136-0.045-0.164-0.111l-0.235-0.416
		l-0.235,0.416C64.139,49.756,64.073,49.801,64,49.803z"/>
	<path fill="#8CC63F" d="M66.613,49.803c-0.045,0-0.088-0.018-0.119-0.051c-0.034-0.033-0.052-0.08-0.051-0.127
		c0-0.04,0.011-0.079,0.031-0.114l0.255-0.396h-0.521c-0.049,0.003-0.096-0.016-0.13-0.051c-0.06-0.07-0.06-0.174,0-0.244
		c0.034-0.035,0.082-0.054,0.13-0.051l0.513,0.015l-0.241-0.383c-0.022-0.038-0.035-0.081-0.037-0.125
		c-0.001-0.048,0.017-0.094,0.051-0.128c0.032-0.032,0.076-0.051,0.122-0.051c0.065-0.001,0.124,0.037,0.15,0.097l0.249,0.444
		l0.238-0.425c0.031-0.067,0.096-0.112,0.17-0.116c0.045,0,0.088,0.019,0.119,0.051c0.034,0.032,0.052,0.076,0.051,0.122
		c0,0.04-0.012,0.08-0.034,0.113l-0.25,0.4l0.519-0.015c0.049-0.003,0.096,0.016,0.13,0.051c0.06,0.07,0.06,0.174,0,0.244
		c-0.034,0.035-0.082,0.054-0.13,0.051h-0.524l0.232,0.363c0.026,0.043,0.041,0.093,0.042,0.145
		c0.001,0.046-0.016,0.091-0.048,0.124c-0.03,0.032-0.072,0.051-0.116,0.052c-0.072-0.002-0.136-0.045-0.165-0.111l-0.235-0.416
		l-0.235,0.416C66.752,49.756,66.687,49.801,66.613,49.803z"/>
	<path fill="#8CC63F" d="M69.204,49.803c-0.045,0-0.088-0.018-0.119-0.051c-0.034-0.033-0.052-0.08-0.051-0.127
		c0.001-0.04,0.012-0.079,0.031-0.114l0.255-0.396h-0.521c-0.049,0.003-0.096-0.016-0.13-0.051c-0.06-0.07-0.06-0.174,0-0.244
		c0.034-0.035,0.082-0.054,0.13-0.051l0.513,0.015l-0.241-0.383c-0.022-0.038-0.035-0.081-0.037-0.125
		c-0.001-0.048,0.017-0.094,0.051-0.128c0.032-0.032,0.076-0.051,0.122-0.051c0.065-0.001,0.124,0.037,0.15,0.097l0.249,0.444
		l0.238-0.425c0.031-0.067,0.096-0.112,0.17-0.116c0.045-0.001,0.089,0.018,0.119,0.051c0.034,0.032,0.052,0.076,0.051,0.122
		c0,0.04-0.012,0.08-0.034,0.113l-0.25,0.4l0.519-0.015c0.049-0.003,0.096,0.016,0.13,0.051c0.06,0.07,0.06,0.174,0,0.244
		c-0.034,0.035-0.082,0.054-0.13,0.051h-0.524l0.232,0.363c0.026,0.043,0.041,0.093,0.042,0.145
		c0.001,0.046-0.016,0.091-0.048,0.124c-0.03,0.032-0.072,0.051-0.116,0.052c-0.072-0.002-0.136-0.045-0.165-0.111l-0.235-0.416
		l-0.235,0.416C69.343,49.756,69.278,49.801,69.204,49.803z"/>
	<path fill="#8CC63F" d="M71.807,49.803c-0.045,0-0.088-0.018-0.119-0.051c-0.034-0.033-0.053-0.08-0.051-0.127
		c0.001-0.04,0.012-0.079,0.031-0.114l0.254-0.396h-0.518c-0.05,0.003-0.099-0.016-0.134-0.051c-0.06-0.07-0.06-0.174,0-0.244
		c0.035-0.035,0.083-0.054,0.134-0.051l0.51,0.015l-0.241-0.383c-0.022-0.038-0.035-0.081-0.036-0.125
		c-0.002-0.048,0.017-0.094,0.051-0.128c0.031-0.032,0.076-0.051,0.121-0.051c0.065-0.001,0.125,0.037,0.15,0.097l0.25,0.444
		l0.238-0.425c0.03-0.067,0.096-0.112,0.17-0.116c0.045-0.001,0.088,0.018,0.119,0.051c0.033,0.032,0.052,0.076,0.051,0.122
		c0,0.04-0.012,0.08-0.034,0.113l-0.249,0.4l0.519-0.015c0.049-0.003,0.097,0.016,0.13,0.051c0.061,0.07,0.061,0.174,0,0.244
		c-0.033,0.035-0.081,0.054-0.13,0.051h-0.524l0.232,0.363c0.026,0.043,0.041,0.093,0.043,0.145
		c0.001,0.046-0.016,0.091-0.049,0.124c-0.03,0.032-0.072,0.051-0.116,0.052c-0.071-0.002-0.136-0.045-0.164-0.111l-0.235-0.416
		l-0.235,0.416C71.945,49.756,71.88,49.801,71.807,49.803z"/>
	<path fill="#8CC63F" d="M74.408,49.803c-0.045,0-0.088-0.018-0.119-0.051c-0.033-0.033-0.052-0.08-0.051-0.127
		c0-0.04,0.011-0.079,0.031-0.114l0.256-0.396h-0.522c-0.048,0.003-0.097-0.016-0.13-0.051c-0.061-0.07-0.061-0.174,0-0.244
		c0.033-0.035,0.082-0.054,0.13-0.051l0.513,0.015l-0.249-0.369c-0.022-0.037-0.035-0.08-0.036-0.125
		c-0.002-0.047,0.017-0.094,0.051-0.127c0.031-0.033,0.076-0.052,0.121-0.051c0.065-0.001,0.125,0.036,0.15,0.096l0.25,0.445
		l0.238-0.425c0.03-0.067,0.096-0.112,0.17-0.116c0.045-0.001,0.088,0.018,0.119,0.051c0.033,0.031,0.052,0.075,0.051,0.122
		c0,0.04-0.012,0.079-0.034,0.113l-0.249,0.399l0.519-0.015c0.049-0.002,0.097,0.017,0.13,0.052c0.061,0.07,0.061,0.174,0,0.243
		c-0.033,0.035-0.081,0.055-0.13,0.052h-0.524l0.232,0.362c0.025,0.044,0.041,0.094,0.043,0.145
		c0.001,0.047-0.017,0.092-0.049,0.125c-0.03,0.032-0.072,0.051-0.116,0.051c-0.071-0.002-0.136-0.045-0.165-0.11l-0.234-0.417
		l-0.235,0.417C74.536,49.761,74.476,49.801,74.408,49.803z"/>
	<path fill="#8CC63F" d="M77.011,49.803c-0.045,0-0.088-0.018-0.119-0.051c-0.034-0.033-0.052-0.08-0.051-0.127
		c0.001-0.04,0.012-0.079,0.03-0.114l0.256-0.396h-0.52c-0.049,0.004-0.096-0.015-0.13-0.051c-0.063-0.068-0.063-0.175,0-0.244
		c0.034-0.036,0.081-0.055,0.13-0.051l0.511,0.015l-0.241-0.383c-0.022-0.038-0.035-0.081-0.037-0.125
		c-0.002-0.096,0.072-0.176,0.168-0.179c0.002,0,0.004,0,0.006,0c0.064-0.001,0.124,0.037,0.15,0.097l0.249,0.444l0.238-0.425
		c0.03-0.067,0.097-0.112,0.17-0.116c0.046-0.001,0.089,0.018,0.119,0.051c0.034,0.032,0.052,0.076,0.051,0.122
		c0,0.04-0.013,0.08-0.034,0.113l-0.249,0.399l0.519-0.014c0.049-0.003,0.097,0.016,0.131,0.051c0.061,0.07,0.061,0.174,0,0.244
		c-0.034,0.035-0.082,0.054-0.131,0.051h-0.524l0.232,0.363c0.026,0.043,0.041,0.093,0.042,0.145
		c0.004,0.094-0.07,0.172-0.164,0.176l0,0c-0.071-0.002-0.135-0.045-0.164-0.111l-0.235-0.416l-0.235,0.416
		C77.149,49.756,77.084,49.801,77.011,49.803z"/>
	<path fill="#8CC63F" d="M79.613,49.803c-0.045,0-0.088-0.018-0.119-0.051c-0.034-0.033-0.053-0.08-0.051-0.127
		c0-0.04,0.012-0.079,0.031-0.114l0.254-0.396h-0.521c-0.047,0.003-0.094-0.016-0.127-0.051c-0.064-0.068-0.064-0.175,0-0.244
		c0.033-0.035,0.08-0.054,0.127-0.051l0.514,0.015l-0.241-0.383c-0.022-0.038-0.035-0.081-0.036-0.125
		c-0.004-0.096,0.071-0.176,0.166-0.179c0.002,0,0.004,0,0.006,0c0.065-0.001,0.125,0.037,0.15,0.097l0.25,0.444l0.238-0.425
		c0.03-0.067,0.096-0.112,0.17-0.116c0.045-0.001,0.088,0.018,0.119,0.051c0.033,0.032,0.052,0.076,0.051,0.122
		c0,0.04-0.012,0.08-0.034,0.113l-0.249,0.399l0.518-0.014c0.049-0.003,0.098,0.016,0.131,0.051c0.061,0.07,0.061,0.174,0,0.244
		c-0.033,0.035-0.082,0.054-0.131,0.051h-0.523l0.232,0.363c0.025,0.043,0.041,0.093,0.043,0.145
		c0.002,0.094-0.071,0.172-0.165,0.176l0,0c-0.071-0.002-0.136-0.045-0.165-0.111l-0.234-0.416l-0.235,0.416
		C79.752,49.756,79.687,49.801,79.613,49.803z"/>
	<path fill="#8CC63F" d="M82.203,49.803c-0.045,0-0.088-0.018-0.119-0.051c-0.033-0.033-0.052-0.08-0.051-0.127
		c0.002-0.04,0.012-0.079,0.031-0.114l0.256-0.396h-0.521c-0.049,0.003-0.096-0.016-0.128-0.051c-0.064-0.068-0.064-0.175,0-0.244
		c0.032-0.035,0.079-0.054,0.128-0.051l0.513,0.015l-0.241-0.383c-0.022-0.038-0.035-0.081-0.037-0.125
		c-0.001-0.048,0.018-0.094,0.051-0.128c0.033-0.032,0.076-0.051,0.123-0.051c0.064-0.001,0.123,0.037,0.149,0.097l0.249,0.444
		l0.238-0.425c0.031-0.067,0.097-0.112,0.17-0.116c0.046-0.001,0.09,0.018,0.119,0.051c0.034,0.032,0.053,0.076,0.052,0.122
		c-0.001,0.04-0.013,0.08-0.034,0.113l-0.25,0.4l0.52-0.015c0.049-0.003,0.096,0.016,0.13,0.051c0.061,0.07,0.061,0.174,0,0.244
		c-0.034,0.035-0.081,0.054-0.13,0.051h-0.524l0.232,0.363c0.026,0.043,0.04,0.093,0.042,0.145c0.002,0.046-0.016,0.091-0.048,0.124
		c-0.03,0.032-0.072,0.051-0.116,0.052c-0.072-0.002-0.136-0.045-0.164-0.111l-0.236-0.416l-0.234,0.416
		C82.342,49.756,82.277,49.801,82.203,49.803z"/>
	
		<line fill="none" stroke="#FFFFFF" stroke-width="0.25" stroke-linecap="round" stroke-linejoin="round" x1="91.121" y1="56.074" x2="94.588" y2="56.074"/>
	<path fill="none" stroke="#FFFFFF" stroke-width="0.25" stroke-linecap="round" stroke-linejoin="round" d="M43.038,30.549v23.025
		c0,1.389,1.125,2.515,2.514,2.515H87.83"/>
	
		<line fill="none" stroke="#FFFFFF" stroke-width="0.25" stroke-linecap="round" stroke-linejoin="round" x1="43.038" y1="24.443" x2="43.038" y2="27.895"/>
</g>
</svg>
