<?xml version="1.0" encoding="utf-8"?>
<!-- Generator: Adobe Illustrator 16.0.0, SVG Export Plug-In . SVG Version: 6.00 Build 0)  -->
<!DOCTYPE svg PUBLIC "-//W3C//DTD SVG 1.1//EN" "http://www.w3.org/Graphics/SVG/1.1/DTD/svg11.dtd">
<svg version="1.1" id="b956ec1c-bd7a-448a-8f35-9e7289c73b78"
	 xmlns="http://www.w3.org/2000/svg" xmlns:xlink="http://www.w3.org/1999/xlink" x="0px" y="0px" width="826.062px"
	 height="335.01px" viewBox="0 0 826.062 335.01" enable-background="new 0 0 826.062 335.01" xml:space="preserve">
<path fill="#F1F1F1" d="M79.597,290.018l-1.302-1.519c11.01-9.435,24.711-21.177,29.84-36.696
	c5.055-15.299,1.252-33.769-9.925-48.202c-9.513-12.283-24.201-21.956-42.478-27.974c-3.604-1.187-7.348-2.24-10.967-3.261
	c-8.749-2.464-17.797-5.013-25.809-9.67C7.922,156.281-2.101,143.68,0.382,129.99c1.72-8.937,8.375-16.116,17.156-18.508
	l0.531,1.928c-8.044,2.19-14.143,8.765-15.723,16.951c-2.308,12.722,7.184,24.541,17.615,30.605
	c7.793,4.53,16.717,7.044,25.346,9.475c3.641,1.025,7.404,2.086,11.051,3.286c18.656,6.143,33.675,16.049,43.433,28.648
	c11.579,14.952,15.504,34.132,10.242,50.055C104.731,268.479,90.794,280.422,79.597,290.018z"/>
<ellipse transform="matrix(-0.2112 -0.9774 0.9774 -0.2112 -71.5323 163.8726)" fill="#F1F1F1" cx="30.359" cy="110.801" rx="8.5" ry="17.5"/>
<ellipse transform="matrix(-0.2112 -0.9774 0.9774 -0.2112 -91.247 251.5229)" fill="#F1F1F1" cx="55.869" cy="162.581" rx="8.5" ry="17.5"/>
<ellipse transform="matrix(-0.2112 -0.9775 0.9775 -0.2112 -142.0339 241.6454)" fill="#F1F1F1" cx="26.491" cy="178.136" rx="8.5" ry="17.5"/>
<rect x="272.226" y="178.204" fill="#E5E5E5" width="2" height="6"/>
<path fill="#E5E5E5" d="M274.226,312.043h-2V299.26h2V312.043z M274.226,286.476h-2v-12.784h2V286.476z M274.226,260.907h-2v-12.783
	h2V260.907z M274.226,235.34h-2v-12.784h2V235.34z M274.226,209.772h-2v-12.784h2V209.772z"/>
<rect x="272.226" y="324.827" fill="#E5E5E5" width="2" height="6"/>
<rect x="491.225" y="178.204" fill="#E5E5E5" width="2" height="6"/>
<path fill="#E5E5E5" d="M493.225,312.043h-2V299.26h2V312.043z M493.225,286.476h-2v-12.784h2V286.476z M493.225,260.907h-2v-12.783
	h2V260.907z M493.225,235.34h-2v-12.784h2V235.34z M493.225,209.772h-2v-12.784h2V209.772z"/>
<rect x="491.225" y="324.827" fill="#E5E5E5" width="2" height="6"/>
<rect x="601.696" y="60.828" fill="#E5E5E5" width="2" height="6"/>
<path fill="#E5E5E5" d="M603.696,312.542h-2v-12.285h2V312.542z M603.696,287.971h-2v-12.286h2V287.971z M603.696,263.4h-2v-12.286
	h2V263.4z M603.696,238.828h-2v-12.286h2V238.828z M603.696,214.257h-2v-12.286h2V214.257z M603.696,189.685h-2V177.4h2V189.685z
	 M603.696,165.114h-2v-12.285h2V165.114z M603.696,140.542h-2v-12.285h2V140.542z M603.696,115.971h-2v-12.286h2V115.971z
	 M603.696,91.4h-2V79.114h2V91.4z"/>
<rect x="601.696" y="324.827" fill="#E5E5E5" width="2" height="6"/>
<rect x="711.063" y="12.828" fill="#E5E5E5" width="2" height="6"/>
<path fill="#E5E5E5" d="M713.063,312.588h-2v-12.24h2V312.588z M713.063,288.109h-2v-12.24h2V288.109z M713.063,263.628h-2v-12.24h2
	V263.628z M713.063,239.149h-2v-12.24h2V239.149z M713.063,214.668h-2v-12.24h2V214.668z M713.063,190.188h-2v-12.239h2V190.188z
	 M713.063,165.708h-2v-12.24h2V165.708z M713.063,141.228h-2v-12.239h2V141.228z M713.063,116.748h-2v-12.24h2V116.748z
	 M713.063,92.268h-2V80.029h2V92.268z M713.063,67.788h-2v-12.24h2V67.788z M713.063,43.308h-2V31.069h2V43.308z"/>
<rect x="711.063" y="324.827" fill="#E5E5E5" width="2" height="6"/>
<rect x="382.226" y="97.828" fill="#E5E5E5" width="2" height="6"/>
<path fill="#E5E5E5" d="M384.226,313.197h-2v-11.631h2V313.197z M384.226,289.934h-2v-11.632h2V289.934z M384.226,266.67h-2v-11.631
	h2V266.67z M384.226,243.407h-2v-11.632h2V243.407z M384.226,220.144h-2v-11.631h2V220.144z M384.226,196.881h-2v-11.632h2V196.881z
	 M384.226,173.617h-2v-11.631h2V173.617z M384.226,150.355h-2v-11.632h2V150.355z M384.226,127.091h-2V115.46h2V127.091z"/>
<rect x="382.226" y="324.827" fill="#E5E5E5" width="2" height="6"/>
<path fill="#3F3D56" d="M823.991,333.614H161.87c-1.145,0-2.072-0.928-2.072-2.072V14.187c0.004-1.144,0.935-2.068,2.079-2.064
	c1.14,0.004,2.062,0.926,2.065,2.064v315.282h660.049c1.144,0,2.071,0.928,2.071,2.072S825.135,333.614,823.991,333.614
	L823.991,333.614L823.991,333.614z"/>
<polygon fill="#3F3D56" points="493.134,180.989 383.049,98.534 274.468,179.862 271.983,176.545 383.049,93.355 492.61,175.418 
	601.484,56.274 601.921,56.097 711.743,11.848 713.293,15.693 603.906,59.765 "/>
<circle fill="#8BC53F" cx="273.226" cy="178.204" r="12.433"/>
<circle fill="#6C63FF" cx="383.049" cy="97.39" r="12.433"/>
<circle fill="#E5E5E5" cx="492.871" cy="178.204" r="12.433"/>
<circle fill="#6C63FF" cx="489.871" cy="222.204" r="12.433"/>
<circle fill="#6C63FF" cx="602.696" cy="58.02" r="12.433"/>
<circle fill="#F27B91" cx="712.518" cy="12.433" r="12.433"/>
<ellipse transform="matrix(-0.9341 -0.357 0.357 -0.9341 208.1867 520.2028)" fill="#2F2E41" cx="152.109" cy="240.885" rx="6.76" ry="21.534"/>
<circle fill="#2F2E41" cx="112.301" cy="273.407" r="43.067"/>
<rect x="92.675" y="307.207" fill="#2F2E41" width="13.084" height="23.441"/>
<rect x="118.843" y="307.207" fill="#2F2E41" width="13.084" height="23.441"/>
<ellipse fill="#2F2E41" cx="103.578" cy="330.921" rx="10.903" ry="4.089"/>
<ellipse fill="#2F2E41" cx="129.746" cy="330.376" rx="10.903" ry="4.089"/>
<circle fill="#FFFFFF" cx="113.392" cy="262.505" r="14.719"/>
<circle fill="#3F3D56" cx="113.392" cy="262.504" r="4.906"/>
<path fill="#F27B91" d="M70.525,233.356c-3.478-15.573,7.639-31.311,24.828-35.148c17.19-3.839,33.944,5.675,37.422,21.249
	c3.478,15.573-7.915,21.317-25.104,25.155C90.48,248.45,74.002,248.93,70.525,233.356z"/>
<ellipse transform="matrix(-0.9035 -0.4285 0.4285 -0.9035 12.8343 509.7374)" fill="#2F2E41" cx="63.793" cy="253.424" rx="21.533" ry="6.76"/>
<path fill="#FFFFFF" d="M91.147,288.945c0,4.215,10.854,12.538,22.896,12.538s23.335-11.867,23.335-16.082
	s-11.292,0.818-23.335,0.818S91.147,284.729,91.147,288.945z"/>
<circle fill="#2F2E41" cx="437.43" cy="266.553" r="43.067"/>
<rect x="417.805" y="300.354" fill="#2F2E41" width="13.084" height="23.441"/>
<rect x="443.972" y="300.354" fill="#2F2E41" width="13.084" height="23.441"/>
<ellipse transform="matrix(-0.9111 -0.4121 0.4121 -0.9111 682.6217 801.3313)" fill="#2F2E41" cx="427.708" cy="327.068" rx="10.903" ry="4.089"/>
<ellipse transform="matrix(-0.8996 -0.4368 0.4368 -0.8996 718.0892 816.1575)" fill="#2F2E41" cx="452.876" cy="325.522" rx="10.903" ry="4.089"/>
<path fill="#6C63FF" d="M395.654,226.502c-3.478-15.573,7.639-31.311,24.829-35.148c17.189-3.839,33.943,5.675,37.421,21.249
	c3.478,15.573-7.914,21.317-25.104,25.155C415.61,241.597,399.131,242.076,395.654,226.502z"/>
<ellipse transform="matrix(-0.7074 -0.7068 0.7068 -0.7074 645.6712 752.1721)" fill="#2F2E41" cx="478.534" cy="242.433" rx="7.501" ry="23.892"/>
<ellipse transform="matrix(-0.9665 -0.2565 0.2565 -0.9665 704.0062 656.6888)" fill="#2F2E41" cx="394.829" cy="282.433" rx="7.5" ry="23.893"/>
</svg>
