<?xml version="1.0" encoding="utf-8"?>
<!-- Generator: Adobe Illustrator 16.0.0, SVG Export Plug-In . SVG Version: 6.00 Build 0)  -->
<!DOCTYPE svg PUBLIC "-//W3C//DTD SVG 1.1//EN" "http://www.w3.org/Graphics/SVG/1.1/DTD/svg11.dtd">
<svg version="1.1" id="ee2d3d4f-3c64-47e7-8e3b-980da34ff80b"
	 xmlns="http://www.w3.org/2000/svg" xmlns:xlink="http://www.w3.org/1999/xlink" x="0px" y="0px" width="727.893px"
	 height="501.18px" viewBox="0 0 727.893 501.18" enable-background="new 0 0 727.893 501.18" xml:space="preserve">
<path id="a9fff5a8-4449-4722-8691-2681997674a8" fill="#E6E6E6" d="M44.026,0c-1.505,0.001-2.725,1.222-2.727,2.727v93.012
	c0.002,1.506,1.222,2.726,2.727,2.728h317.156c1.506-0.002,2.726-1.222,2.728-2.728V2.727c-0.002-1.505-1.222-2.726-2.728-2.727
	H44.026z"/>
<path id="ef08fdaa-4829-440e-93ff-da8e736c3be7" fill="#FFFFFF" d="M48.132,91.633h308.942v-84.8H48.132V91.633z"/>
<path id="f7452840-914d-46a1-ae61-ea1c2fc2d2a5" fill="#F27B91" d="M318.078,74.04c-2.495,0-4.518,2.022-4.518,4.518
	c0,2.494,2.022,4.518,4.518,4.518l0,0h18.068c2.495,0,4.518-2.023,4.518-4.518c0-2.495-2.022-4.518-4.518-4.518H318.078z"/>
<rect id="b2c9f911-15af-4e19-9f72-89a224d6cf2b" x="132.077" y="65.278" fill="#E6E6E6" width="208.588" height="1.189"/>
<circle id="a570d7cb-c53f-47e1-9372-81d6b1f4b9cc" fill="#F27B91" cx="88.476" cy="49.233" r="26.311"/>
<path id="a3321d5c-167e-43b0-8c0e-18df1c8c5ae5" fill="#3F3D56" d="M132.409,58.641l-0.659-0.989l21.675-14.449l14.863,7.135
	l21.379-13.659l0.289,0.123l42.239,18.019l33.867-16.637l32.888,13.333l41.322,8.4l0.788,0.89l-41.875-7.911l-33.077-13.411
	l-33.88,16.643l-42.452-18.109l-21.407,13.677l-14.851-7.128L132.409,58.641z"/>
<path id="f7b9bcea-10c4-4c80-b4a6-3d8e323f573e" fill="#E6E6E6" d="M135.94,74.663c-2.133,0.034-3.835,1.791-3.8,3.924
	c0.033,2.085,1.715,3.768,3.8,3.801h40.41c2.134,0.034,3.89-1.668,3.924-3.802c0.033-2.132-1.667-3.889-3.8-3.923
	c-0.041-0.001-0.083-0.001-0.124,0H135.94z"/>
<path fill="#FFFFFF" d="M99.06,48.906c-0.616-0.616-1.615-0.616-2.231,0h-0.001l-6.773,6.773V38.977
	c-0.008-0.872-0.72-1.572-1.592-1.564c-0.86,0.007-1.557,0.703-1.564,1.564V55.68l-6.773-6.773
	c-0.616-0.616-1.615-0.617-2.231-0.001c-0.614,0.614-0.617,1.609-0.006,2.227l0.006,0.006l9.468,9.468
	c0.616,0.616,1.615,0.616,2.231,0l9.468-9.468C99.676,50.522,99.676,49.523,99.06,48.906z"/>
<path id="f7c5b60e-33a7-4042-9d2c-5c8c9116b84c" fill="#E6E6E6" d="M168.801,148.963c-1.506,0.002-2.726,1.222-2.727,2.727v93.013
	c0.001,1.505,1.221,2.725,2.727,2.727h317.157c1.505-0.002,2.725-1.222,2.727-2.727V151.69c-0.002-1.505-1.222-2.725-2.727-2.727
	H168.801z"/>
<path id="a8273e4e-93d2-47bb-9b17-df51a96534af" fill="#FFFFFF" d="M172.908,240.596h308.942v-84.8H172.908V240.596z"/>
<path id="a87d1795-16f3-4774-9768-c375c1bdbb9e" fill="#8BC53F" d="M442.854,223.005c-2.495,0-4.518,2.022-4.518,4.518
	s2.022,4.518,4.518,4.518h18.067c2.494,0,4.518-2.022,4.518-4.518s-2.023-4.518-4.518-4.518H442.854z"/>
<rect id="b60d1a48-178f-4eb5-a9a3-9e4316169c72" x="256.853" y="214.242" fill="#E6E6E6" width="208.588" height="1.188"/>
<circle id="f066d7d6-19fd-468d-830f-1318b53822b2" fill="#8BC53F" cx="213.251" cy="198.197" r="26.311"/>
<path id="fcead4ff-5625-4c61-90c0-6a9c2def1900" fill="#3F3D56" d="M257.183,207.605l-0.66-0.989l21.676-14.449l14.863,7.135
	l21.379-13.659l0.289,0.123l42.239,18.02l33.868-16.638l32.887,13.332l41.323-36.6l0.788,0.89l-41.875,37.086l-33.077-13.41
	l-33.879,16.643l-42.452-18.109l-21.408,13.677l-14.846-7.125L257.183,207.605z"/>
<path id="b25442e4-8332-4a87-9c30-01930e0b437c" fill="#E6E6E6" d="M260.716,223.626c-2.133-0.035-3.891,1.666-3.926,3.8
	c-0.034,2.133,1.667,3.891,3.8,3.925l0,0l0,0c0.042,0.001,0.084,0.001,0.126,0h40.41c2.133-0.034,3.835-1.791,3.801-3.924
	c-0.034-2.085-1.716-3.768-3.801-3.801H260.716z"/>
<path fill="#FFFFFF" d="M202.667,198.524c0.616,0.616,1.615,0.616,2.231,0l0,0l0,0l6.774-6.773v16.703
	c0,0.872,0.706,1.578,1.578,1.578c0.871,0,1.578-0.706,1.578-1.578V191.75l6.773,6.773c0.616,0.616,1.615,0.616,2.231,0
	s0.616-1.615,0-2.231l0,0l-9.468-9.468c-0.616-0.616-1.615-0.616-2.231,0l-9.468,9.468
	C202.051,196.908,202.051,197.907,202.667,198.524L202.667,198.524z"/>
<path id="f3e6157c-e0fb-4525-9ebd-9efe95b1618f" fill="#E6E6E6" d="M2.727,297.927c-1.505,0.002-2.726,1.222-2.727,2.727v93.012
	c0.001,1.506,1.222,2.726,2.727,2.728h317.156c1.505-0.002,2.726-1.222,2.727-2.728v-93.012c-0.001-1.505-1.222-2.725-2.727-2.727
	H2.727z"/>
<path id="b96defd0-9a2c-4c45-aa8c-b5fd1840c319" fill="#FFFFFF" d="M6.834,389.56h308.942v-84.8H6.834V389.56z"/>
<path id="a2204f79-048d-45a5-9dbf-3ca685e385ac" fill="#6C63FF" d="M276.779,371.968c-2.494,0-4.517,2.022-4.517,4.518
	c0,2.494,2.022,4.518,4.517,4.518h18.069c2.495,0,4.518-2.023,4.518-4.518c0-2.495-2.022-4.518-4.518-4.518H276.779z"/>
<rect id="ece8f467-8c57-41a5-b787-946f11f73852" x="90.778" y="363.205" fill="#E6E6E6" width="208.589" height="1.189"/>
<circle id="acd23665-8915-4d62-9edc-4433a6bf124b" fill="#6C63FF" cx="47.177" cy="347.16" r="26.311"/>
<path id="b2ebcab4-d8cf-428d-87b9-c73daac40ac9" fill="#3F3D56" d="M91.108,356.569l-0.658-0.989l21.675-14.45l14.862,7.135
	l21.381-13.663l42.527,18.141l33.867-16.637l32.883,13.337l41.323-16.6l0.788,0.89l-41.87,17.089l-33.077-13.41l-33.879,16.643
	l-42.452-18.109l-21.407,13.678l-14.85-7.128L91.108,356.569z"/>
<path id="aca123b7-0fc2-4f3d-89c1-779a89955e8d" fill="#E6E6E6" d="M94.641,372.589c-2.133,0.034-3.835,1.791-3.801,3.924
	c0.034,2.085,1.716,3.768,3.801,3.801h40.41c2.133,0.035,3.891-1.666,3.926-3.8c0.034-2.133-1.667-3.891-3.8-3.925
	c-0.042-0.001-0.084-0.001-0.126,0H94.641z"/>
<path fill="#FFFFFF" d="M36.594,347.487c0.616,0.616,1.615,0.616,2.231,0l0,0l0,0l6.773-6.773v16.703
	c0.004,0.871,0.714,1.574,1.586,1.57c0.861-0.004,1.561-0.698,1.57-1.561v-16.713l6.773,6.773c0.615,0.618,1.614,0.62,2.231,0.006
	c0.618-0.615,0.621-1.614,0.006-2.231l0,0l-0.006-0.006l-9.467-9.468c-0.616-0.616-1.616-0.616-2.232,0l-9.467,9.468
	C35.978,345.871,35.978,346.87,36.594,347.487L36.594,347.487z"/>
<polygon fill="#FFB7B7" points="636.599,471.283 621.369,471.282 614.125,412.545 636.601,412.546 "/>
<path fill="#2F2E41" d="M640.482,486.044l-49.103-0.001v-0.621c0.001-10.556,8.558-19.111,19.112-19.112h0.001l29.99,0.002
	L640.482,486.044z"/>
<polygon fill="#FFB7B7" points="580.702,471.283 565.475,471.282 558.23,412.545 580.705,412.546 "/>
<path fill="#2F2E41" d="M584.586,486.044l-49.103-0.001v-0.621c0.001-10.556,8.558-19.111,19.112-19.112h0.001l29.99,0.002
	L584.586,486.044z"/>
<path fill="#FFB7B7" d="M552,280.766c4.982-4.068,5.723-11.406,1.654-16.389c-0.434-0.531-0.914-1.022-1.434-1.47l8.276-25.297
	l-14.146-8.779l-11.188,35.888c-3.879,5.175-2.829,12.515,2.346,16.395C541.84,284.36,547.83,284.216,552,280.766z"/>
<path fill="#2F2E41" d="M567.09,264.067c0,0-14.214,76.941-14.037,91.876c0.215,18.022,8.233,95.263,8.233,95.263l20.417-5.104
	l3.859-89.526l16.147-57.138l6.211,73.285l6.234,77.09h23.686l5.305-193.402l-77.332-2.553L567.09,264.067z"/>
<path fill="#CBCBCB" d="M637.911,109.026l-40.834,1.276l-25.521,158.23c0,0,54.232,24.883,77.202,7.019
	C671.727,257.686,637.911,109.026,637.911,109.026z"/>
<path fill="#2F2E41" d="M602.82,142.841L568.366,340.63l-21.693-6.381l15.312-71.459l7.656-71.459l-1.275-71.459l26.797-11.484
	l7.656-8.933C602.82,99.455,618.132,118.596,602.82,142.841z"/>
<path fill="#2F2E41" d="M620.685,138.013l2.552,207.721l52.318-8.932l-3.828-192.685l5.104-26.797l-25.521-11.485l-10.334-6.38
	C640.976,99.455,618.132,106.388,620.685,138.013z"/>
<polygon fill="#2F2E41" points="579.851,123.7 568.366,119.872 551.778,193.883 537.74,252.582 558.157,256.41 577.298,192.607 "/>
<path fill="#FFB7B7" d="M694.895,293.187c-4.982-4.068-5.723-11.405-1.654-16.388c0.434-0.531,0.914-1.023,1.434-1.471
	l-8.276-25.296l14.146-8.779l11.188,35.888c3.879,5.175,2.829,12.515-2.346,16.394C705.055,296.781,699.065,296.637,694.895,293.187
	L694.895,293.187z"/>
<polygon fill="#2F2E41" points="665.803,121.216 677.286,117.388 693.875,191.399 709.155,265.003 686.174,268.384 668.355,190.123 
	"/>
<circle fill="#FFB7B7" cx="620.297" cy="64.132" r="28.362"/>
<path fill="#CBCBCB" d="M619.296,493.044h-230c-0.553,0-1-0.447-1-1c0-0.552,0.447-1,1-1h230c0.552,0,1,0.448,1,1
	C620.296,492.597,619.848,493.044,619.296,493.044z"/>
<path fill="#2F2E41" d="M610.406,27.019c27.114-7.818,34.811,14.653,34.811,14.653c13.068,8.671,4.887,19.542,4.887,19.542
	c3.297,0.732-3.296,20.03-5.495,19.542c-1.173-0.261-4.189,3.34-6.748,6.755c-0.878-0.001-1.753,0.083-2.614,0.252l4.965-18.365
	c0,0-16.733-2.563-21.863-10.624c-4.908-7.712-21.066-10.146-25.664-4.995c-0.272-1.481-0.829-2.896-1.641-4.164
	c-0.628-0.964-1.448-1.787-2.41-2.417C592.698,29.92,610.406,27.019,610.406,27.019z"/>
</svg>
