<?xml version="1.0" encoding="utf-8"?>
<!-- Generator: Adobe Illustrator 16.0.0, SVG Export Plug-In . SVG Version: 6.00 Build 0)  -->
<!DOCTYPE svg PUBLIC "-//W3C//DTD SVG 1.1//EN" "http://www.w3.org/Graphics/SVG/1.1/DTD/svg11.dtd">
<svg version="1.1" id="edc472ec-0d65-4f6a-9343-137d03c8e1d4"
	 xmlns="http://www.w3.org/2000/svg" xmlns:xlink="http://www.w3.org/1999/xlink" x="0px" y="0px" width="732px" height="603.793px"
	 viewBox="0 0 732 603.793" enable-background="new 0 0 732 603.793" xml:space="preserve">
<rect x="58.945" y="354.474" fill="#3F3D56" width="144.26" height="134.953"/>
<path fill="#3F3D56" d="M262.15,536.35H0V307.552H262.15V536.35z M1.551,534.8h259.048V309.102H1.551V534.8z"/>
<path fill="#3F3D56" d="M621.574,220.85c-60.986,0-110.425-49.439-110.425-110.425C511.15,49.439,560.588,0,621.574,0
	S732,49.439,732,110.426l0,0C731.931,171.383,682.532,220.782,621.574,220.85z M621.574,1.635
	c-60.082,0-108.789,48.707-108.789,108.79c0,60.082,48.706,108.789,108.789,108.789s108.789-48.707,108.789-108.789
	C730.296,50.371,681.629,1.704,621.574,1.635L621.574,1.635z"/>
<circle fill="#3F3D56" cx="618.303" cy="110.425" r="53.167"/>
<rect x="682.008" y="278.319" transform="matrix(-0.866 0.5 -0.5 -0.866 1454.9459 203.2558)" fill="#FF6584" width="36.469" height="36.469"/>
<rect x="126.026" y="213.319" transform="matrix(-0.866 0.5 -0.5 -0.866 384.9691 359.9542)" fill="#8BC53F" width="36.469" height="36.469"/>
<rect x="200.008" y="101.319" transform="matrix(-0.866 0.5 -0.5 -0.866 467.0215 113.9684)" fill="#3F3D56" width="36.469" height="36.469"/>
<rect x="638.008" y="477.319" transform="matrix(-0.866 0.5 -0.5 -0.866 1472.3405 596.595)" fill="#E5E5E5" width="36.469" height="36.469"/>
<rect x="117.89" y="408.766" fill="#8BC53F" width="26.37" height="26.37"/>
<circle fill="#6C63FF" cx="618.303" cy="110.425" r="13.087"/>
<rect x="520.128" y="302.439" transform="matrix(-0.866 0.5 -0.5 -0.866 1214.3362 357.7263)" fill="#6C63FF" width="78.229" height="78.229"/>
<rect x="179" y="601.793" fill="#CBCBCB" width="420" height="2"/>
<path fill="#FFB8B8" d="M338.39,332.043c-4.598-5.907-3.535-14.424,2.372-19.021c0.63-0.49,1.302-0.924,2.008-1.296l-2.83-30.844
	l18.324-6.292l3.385,43.614c3.06,6.876-0.035,14.931-6.912,17.99C348.983,338.755,342.225,337.038,338.39,332.043L338.39,332.043z"
	/>
<path fill="#CCCCCC" d="M358.061,155.017c0,0,12.575-26.39,23.749-17.106s-15.319,87.312-15.319,87.312l-4.029,75.749l-21.236-2.123
	l-6.004-73.8L358.061,155.017z"/>
<polygon fill="#FFB8B8" points="189.39,545.442 205.154,558.203 261.875,503.472 238.609,484.639 "/>
<path fill="#2F2E41" d="M189.535,537.041l31.045,25.13l0.001,0.001c10.926,8.846,12.612,24.873,3.769,35.8l-0.521,0.643L173,557.469
	L189.535,537.041z"/>
<polygon fill="#FFB8B8" points="408.471,580.865 428.753,580.864 438.401,502.636 408.468,502.637 "/>
<path fill="#2F2E41" d="M403.298,574.244l39.941-0.002h0.001c14.058,0.001,25.453,11.396,25.454,25.453v0.827l-65.396,0.003
	L403.298,574.244z"/>
<path fill="#2F2E41" d="M444.059,214.124c0,0,38.049,46.32,29.777,92.641s-14.889,81.061-14.889,81.061l-13.234,104.221
	c0,0,4.963,28.383-1.654,35.697c0,0,9.926,17.24-8.271,23.857s-28.016-2.286-28.016-2.286s-13.341-19.22-5.07-24.183l3.484-204.53
	L273.667,493.7c0,0-2.436,21.056-19.415,21.28l-20.288,15.114l-23.16-13.234l11.58-14.889c0,0-6.617-16.543,8.271-19.852
	l86.023-112.492l21.506-57.9c0,0,11.58-44.666,43.012-62.863v-19.363L444.059,214.124z"/>
<path fill="#CCCCCC" d="M378.715,133.89L378.715,133.89c10.369-12.254,28.28-14.783,41.637-5.879l1.374,0.916l0,0
	c14.685,16.629,24.554,36.949,28.545,58.771l6.195,33.87l-77.751,16.843l-18.228-62.863
	C355.713,159.083,363.381,141.557,378.715,133.89L378.715,133.89z"/>
<path fill="#FFB8B8" d="M506.456,339.244c-8.144-2.662-12.587-11.421-9.925-19.564c0.283-0.868,0.644-1.709,1.075-2.515
	l-22.429-27.45l13.356-17.698l31.13,39.21c7.305,4.565,9.524,14.188,4.958,21.492C520.802,338.83,513.292,341.528,506.456,339.244
	L506.456,339.244z"/>
<path fill="#CCCCCC" d="M411.8,158.705c0,0-4.963-33.086,11.58-31.432s41.357,92.641,41.357,92.641l44.666,74.443l-21.506,11.58
	l-52.938-66.172L411.8,158.705z"/>
<path fill="#2F2E41" d="M442.094,110.335h-78.775c-3.374-0.004-6.108-2.738-6.112-6.112V70.267c0-25.129,20.371-45.5,45.5-45.5
	s45.5,20.371,45.5,45.5v33.955C448.202,107.596,445.468,110.331,442.094,110.335z"/>
<circle fill="#FFB8B8" cx="412.056" cy="76.185" r="33.359"/>
<path fill="#2F2E41" d="M458.971,73.663h-41.982l-0.431-6.915l-2.152,6.915h-6.464l-0.854-13.707l-4.267,13.707h-12.508v-0.679
	c0-19.847,14.072-35.993,31.369-35.993h5.919c17.297,0,31.369,16.146,31.369,35.993V73.663z"/>
<path fill="#2F2E41" d="M418.726,116.674c-0.513-0.001-1.025-0.04-1.532-0.118l-49.969-7.697V56.812
	c0-11.072,8.975-20.047,20.047-20.047h34.959l-1.361,1.386c-18.948,19.291-4.673,50.57,5.522,67.499
	c1.536,2.498,1.261,5.706-0.678,7.906C423.957,115.574,421.401,116.715,418.726,116.674z"/>
<circle fill="#FF6584" cx="238.72" cy="206.644" r="13.087"/>
</svg>
