<?xml version="1.0" encoding="utf-8"?>
<!-- Generator: Adobe Illustrator 16.0.0, SVG Export Plug-In . SVG Version: 6.00 Build 0)  -->
<!DOCTYPE svg PUBLIC "-//W3C//DTD SVG 1.1//EN" "http://www.w3.org/Graphics/SVG/1.1/DTD/svg11.dtd">
<svg version="1.1" id="b4b2b9fe-f942-49b6-919a-816d625fc7ce"
	 xmlns="http://www.w3.org/2000/svg" xmlns:xlink="http://www.w3.org/1999/xlink" x="0px" y="0px" width="1055.5px"
	 height="670.166px" viewBox="0 0 1055.5 670.166" enable-background="new 0 0 1055.5 670.166" xml:space="preserve">
<title>fill_in</title>
<path fill="#F2F2F2" stroke="#000000" stroke-miterlimit="10" d="M0,119.166v296h476v-296H0z M374.258,325.845
	c-0.02,6.62-5.381,11.98-12,12h-58c-6.62-0.02-11.981-5.38-12-12v-3c0.019-6.619,5.38-11.979,12-12h58
	c6.619,0.021,11.98,5.381,12,12V325.845z"/>
<rect x="682.332" y="159.231" transform="matrix(0.9327 -0.3607 0.3607 0.9327 -15.8428 263.4172)" fill="#6C63FF" width="30.913" height="29.843"/>
<path fill="#3F3D56" d="M712.392,180.325l-30.349,11.737l-11.331-29.298l30.349-11.738L712.392,180.325z M682.994,190.01
	l27.312-10.563l-10.196-26.369l-27.314,10.564L682.994,190.01z"/>
<rect x="232.039" y="523.303" transform="matrix(0.3251 0.9457 -0.9457 0.3251 676.0258 129.1985)" fill="#F27B91" width="30.914" height="29.843"/>
<path fill="#3F3D56" d="M240.789,552.573l-10.579-30.771l29.706-10.213l10.579,30.771L240.789,552.573z M232.225,522.829
	l9.521,27.695l26.736-9.192l-9.521-27.694L232.225,522.829z"/>
<path fill="#3F3D56" d="M515.5,386.666h-478v-298h478V386.666z M39.5,384.666h474v-294h-474V384.666z"/>
<rect x="540" y="374.166" fill="#F2F2F2" width="476" height="296"/>
<path fill="#3F3D56" d="M1055.5,641.666h-478v-298h478V641.666z M579.5,639.666h474v-294h-474V639.666z"/>
<path fill="#3F3D56" d="M160.758,257.845h208c6.627,0,12,5.373,12,12v3c0,6.628-5.373,12-12,12h-208c-6.628,0-12-5.372-12-12v-3
	C148.758,263.219,154.13,257.845,160.758,257.845z"/>
<path fill="none" stroke="#3F3D56" stroke-miterlimit="10" d="M160.758,151.845h208c6.627,0,12,5.373,12,12v3
	c0,6.628-5.373,12-12,12h-208c-6.628,0-12-5.372-12-12v-3C148.758,157.219,154.13,151.845,160.758,151.845z"/>
<path fill="#3F3D56" d="M160.758,204.845h208c6.627,0,12,5.373,12,12v3c0,6.628-5.373,12-12,12h-208c-6.628,0-12-5.372-12-12v-3
	C148.758,210.219,154.13,204.845,160.758,204.845z"/>
<path fill="#3F3D56" d="M178.045,89.951l-1.268-0.476c-0.278-0.104-27.992-10.723-40.975-34.799
	c-12.982-24.077-6.625-53.066-6.56-53.356L129.541,0l1.267,0.476c0.279,0.104,27.992,10.723,40.976,34.799
	c12.982,24.078,6.626,53.067,6.56,53.356L178.045,89.951z M137.881,53.555c10.977,20.356,32.877,30.792,38.426,33.174
	c1.056-5.947,4.364-29.997-6.603-50.334C158.74,16.06,136.83,5.609,131.279,3.221C130.223,9.173,126.915,33.219,137.881,53.555z"/>
<path fill="#8BC53F" d="M145.724,46.231c23.331,14.036,32.317,41.917,32.317,41.917s-28.842,5.123-52.173-8.913
	c-23.332-14.037-32.317-41.918-32.317-41.918S122.393,32.194,145.724,46.231z"/>
<path fill="#FFB9B9" d="M782.413,578.157c0,0-40.606,21.056-25.566,40.605c15.039,19.553,40.606-22.559,40.606-25.565
	C797.453,590.188,782.413,578.157,782.413,578.157z"/>
<path fill="#575A89" d="M827.531,524.015c0,0-27.07,33.087-34.59,37.6c-7.521,4.512-13.536,9.022-13.536,10.526
	s-6.017,9.023-6.017,9.023l24.063,21.056c0,0,27.069-36.095,30.078-36.095C830.538,566.125,827.531,524.015,827.531,524.015z"/>
<polygon fill="#2F2E41" points="917.86,640.666 830.19,640.666 836.84,598.706 842.21,564.816 845.579,543.566 878.67,531.536 
	886.69,543.936 911.75,582.666 913.42,598.556 913.42,598.566 917.82,640.297 "/>
<path fill="#2F2E41" d="M935.82,581.166c0,0-0.569,5.16-2.41,13.52c-0.46,2.12-1.01,4.462-1.649,6.972
	c-0.561,2.18-1.181,4.479-1.891,6.898c-2.225,7.676-4.882,15.218-7.96,22.592v0.01c-1.25,3-2.609,6.06-4.09,9.14
	c-0.061,0.12-0.12,0.25-0.181,0.37H806.91c4.55-18.01,8.95-34.14,12-45.05c2.511-9.01,4.109-14.45,4.109-14.45l19.19-16.35
	l21.42-18.24l23.061-2.64l14.25-1.631l9.8-1.119l1.609-0.182l3.91-0.45L935.82,581.166z"/>
<circle fill="#FFB9B9" cx="849.138" cy="299.263" r="34.591"/>
<path fill="#FFB9B9" d="M877.401,301.004l18.103,38.729l-50.824,35.204c0,0,5.982-41.928-5.288-52.545
	C828.122,311.776,877.401,301.004,877.401,301.004z"/>
<path fill="#575A89" d="M838.06,378.134c0,0,24.062-49.631,43.614-49.631c19.551,0,70.686,34.591,69.182,42.11
	c-1.505,7.521-1.505,9.023-1.505,13.536c0,4.512,10.527,4.512,1.505,7.52c-9.023,3.008-10.527,6.016-10.527,6.016l7.52,192.505
	c0,0-33.087,12.031-45.117,7.521c-12.031-4.511-24.062-34.591-24.062-34.591s3.008,40.605-9.023,39.103
	c-12.031-1.504-57.149-4.512-58.653-10.526c-1.504-6.016,9.022-138.363,9.022-138.363L838.06,378.134z"/>
<path fill="#FFB9B9" d="M954.03,640.666h-30.4c-0.788-3.128-1.362-6.305-1.721-9.51v-0.021c-0.757-7.263-0.864-14.578-0.319-21.858
	c0.3-4.312,0.689-7.062,0.689-7.062l9.479-0.56l16.09-0.94c0,0,0.641,2.36,1.511,6.15C951.18,614.746,953.98,628.816,954.03,640.666
	z"/>
<path fill="#575A89" d="M916.264,366.101l43.615,111.292c0,0,6.016,12.031,0,21.056c-6.017,9.023,3.008,63.166-3.009,75.196
	c-6.017,12.031-6.017,33.088-6.017,33.088l-34.591,3.008l-7.52-132.348l-39.104-84.221
	C869.642,393.173,872.65,358.582,916.264,366.101z"/>
<path opacity="0.1" enable-background="new    " d="M904.985,362.342c0,0,27.07,7.521,36.095,34.591L904.985,362.342z"/>
<path fill="#2F2E41" d="M871.806,315.045c-3.364-0.2-6.65,0.938-9.992,1.381c-11.957,1.587-24.396-7.089-27.036-18.859
	c-0.212-1.566-0.68-3.089-1.383-4.505c-1.841-3.005-6.031-3.577-9.486-2.887c-3.454,0.691-6.729,2.308-10.248,2.492
	c-5.434,0.285-10.647-3.059-13.543-7.665c-2.896-4.605-3.715-10.272-3.324-15.698l2.604,2.733c1.059-2.239,1.467-4.729,1.179-7.189
	c2.807-0.747,5.8,0.019,7.902,2.022c2.297,0.244,0.562-4.26,2.27-5.816c0.714-0.651,1.81-0.528,2.776-0.52
	c4.886,0.047,8.838-3.689,12.688-6.697c6.67-5.2,14.47-8.758,22.771-10.387c5.517-1.075,11.383-1.248,16.613,0.806
	c4.297,1.688,7.894,4.76,11.221,7.959c8.189,7.876,15.442,17.13,18.851,27.97c2.771,8.879,2.849,18.379,0.226,27.303
	c-1.372,4.634-5.511,20.504-11.567,20.874C876.71,328.825,881.281,315.61,871.806,315.045z"/>
<polygon opacity="0.1" enable-background="new    " points="869.349,425.676 904.77,477.625 916.097,598.297 "/>
<path fill="#F27B91" d="M706,596.166h58c6.627,0,12,5.373,12,12v3c0,6.628-5.373,12-12,12h-58c-6.628,0-12-5.372-12-12v-3
	C694,601.539,699.372,596.166,706,596.166z"/>
<g>
	<g>
		<path d="M191.584,171.398h1.473v1.146h-2.251l-3.724-5.586h-1.985v4.44h1.944v1.146h-4.89v-1.146h1.678v-9.842l-1.678-0.205
			v-1.084c0.634,0.144,1.187,0.246,1.882,0.246c1.043,0,2.108-0.246,3.151-0.246c2.026,0,3.908,0.921,3.908,3.172
			c0,1.739-1.043,2.844-2.66,3.315L191.584,171.398z M185.097,165.853l1.064,0.021c2.599,0.041,3.601-0.962,3.601-2.292
			c0-1.555-1.125-2.169-2.558-2.169c-0.675,0-1.371,0.062-2.108,0.143L185.097,165.853L185.097,165.853z"/>
		<path d="M196.637,168.8c0.123,1.78,1.514,2.844,3.704,2.844c1.289,0,2.517-0.409,3.785-0.961l0.369,1.043
			c-1.289,0.634-2.885,1.064-4.317,1.064c-3.704,0-4.87-2.456-4.87-4.297c0-2.619,1.923-4.666,4.563-4.666
			c2.517,0,4.174,1.576,4.174,4.113c0,0.287-0.021,0.573-0.082,0.859L196.637,168.8L196.637,168.8z M202.756,167.654
			c0-1.596-1.33-2.68-2.865-2.68c-1.555,0-2.947,1.146-3.253,2.68H202.756z"/>
		<path d="M214.807,163.398l1.125,0.225c-0.164,0.655-0.287,1.31-0.287,1.985c0,0.45,0.041,0.88,0.143,1.31l-1.228,0.102
			l-0.062-0.45c-0.143-1.002-0.45-1.596-2.476-1.596c-0.961,0-2.374,0.286-2.374,1.514c0,2.169,6.384,0.307,6.384,3.826
			c0,1.964-2.353,2.476-3.949,2.476c-1.146,0-1.882-0.205-2.926-0.655l-0.205,0.736l-1.084-0.327
			c0.164-0.532,0.245-1.084,0.245-1.637c0-0.512-0.061-1.044-0.266-1.515l1.269-0.164c0.246,1.698,0.614,2.415,3.069,2.415
			c0.757,0,2.517-0.225,2.517-1.351c0-2.271-6.384-0.246-6.384-3.724c0-1.882,1.883-2.742,3.663-2.742c0.9,0,1.76,0.184,2.619,0.471
			L214.807,163.398z"/>
		<path d="M221.191,168.8c0.123,1.78,1.514,2.844,3.704,2.844c1.289,0,2.517-0.409,3.785-0.961l0.369,1.043
			c-1.289,0.634-2.885,1.064-4.317,1.064c-3.704,0-4.87-2.456-4.87-4.297c0-2.619,1.923-4.666,4.563-4.666
			c2.517,0,4.174,1.576,4.174,4.113c0,0.287-0.021,0.573-0.082,0.859L221.191,168.8L221.191,168.8z M227.309,167.654
			c0-1.596-1.33-2.68-2.865-2.68c-1.555,0-2.947,1.146-3.253,2.68H227.309z"/>
		<path d="M235.739,164.073h4.768v1.146h-4.768v4.092c0,1.064-0.123,2.333,1.31,2.333c1.105,0,2.497-0.348,3.581-0.675l0.409,1.084
			c-1.248,0.348-2.844,0.737-4.113,0.737c-1.535,0-2.456-0.9-2.456-2.906v-4.665h-2.946v-1.146h2.946v-2.271h1.269V164.073
			L235.739,164.073z"/>
		<path d="M256.384,160.267c0.716,0.082,1.412,0.246,2.128,0.246c1.166,0,2.333-0.246,3.499-0.246c1.944,0,3.602,0.921,3.602,3.213
			c0,2.312-1.535,3.908-4.522,3.847l-1.739-0.041v4.113h3.069v1.146h-6.037v-1.146h1.698v-9.944l-1.698-0.205V160.267
			L256.384,160.267z M261.049,166.18c2.189,0.062,3.233-0.961,3.233-2.681c0-1.535-1.084-2.292-2.517-2.292
			c-0.819,0-1.617,0.164-2.415,0.246v4.686L261.049,166.18z"/>
		<path d="M275.27,171.93c-1.228,0.511-2.415,0.859-3.724,0.859c-1.494,0-2.865-0.696-2.865-2.353c0-1.678,1.289-2.271,2.701-2.599
			c1.269-0.307,2.517-0.369,3.888-0.41v-0.532c0-1.167,0.184-1.923-1.371-1.923c-1.023,0-2.046,0.225-2.905,0.798v1.208h-1.269
			v-1.965c1.187-0.716,2.66-1.187,3.99-1.187c2.087,0,2.824,0.552,2.824,2.558v5.013h1.698v1.146h-2.967V171.93L275.27,171.93z
			 M275.27,168.513c-1.167,0.041-2.435,0.144-3.54,0.41c-0.839,0.205-1.719,0.491-1.719,1.514c0,0.961,0.777,1.207,1.596,1.207
			c1.269,0,2.517-0.471,3.663-1.002V168.513z"/>
		<path d="M288.468,163.398l1.125,0.225c-0.164,0.655-0.287,1.31-0.287,1.985c0,0.45,0.041,0.88,0.143,1.31l-1.228,0.102
			l-0.062-0.45c-0.143-1.002-0.45-1.596-2.476-1.596c-0.962,0-2.374,0.286-2.374,1.514c0,2.169,6.384,0.307,6.384,3.826
			c0,1.964-2.353,2.476-3.949,2.476c-1.146,0-1.882-0.205-2.926-0.655l-0.205,0.736l-1.084-0.327
			c0.164-0.532,0.245-1.084,0.245-1.637c0-0.512-0.061-1.044-0.266-1.515l1.269-0.164c0.246,1.698,0.614,2.415,3.069,2.415
			c0.757,0,2.517-0.225,2.517-1.351c0-2.271-6.384-0.246-6.384-3.724c0-1.882,1.883-2.742,3.663-2.742c0.9,0,1.76,0.184,2.619,0.471
			L288.468,163.398z"/>
		<path d="M300.744,163.398l1.125,0.225c-0.164,0.655-0.287,1.31-0.287,1.985c0,0.45,0.041,0.88,0.143,1.31l-1.228,0.102
			l-0.062-0.45c-0.143-1.002-0.45-1.596-2.476-1.596c-0.962,0-2.374,0.286-2.374,1.514c0,2.169,6.384,0.307,6.384,3.826
			c0,1.964-2.353,2.476-3.949,2.476c-1.146,0-1.882-0.205-2.926-0.655l-0.205,0.736l-1.084-0.327
			c0.164-0.532,0.245-1.084,0.245-1.637c0-0.512-0.061-1.044-0.266-1.515l1.269-0.164c0.246,1.698,0.614,2.415,3.069,2.415
			c0.757,0,2.517-0.225,2.517-1.351c0-2.271-6.384-0.246-6.384-3.724c0-1.882,1.883-2.742,3.663-2.742c0.9,0,1.76,0.184,2.619,0.471
			L300.744,163.398z"/>
		<path d="M308.13,164.073v1.146h-1.453l1.678,5.893l1.576-4.809h0.777l1.637,4.809l1.637-5.893h-1.535v-1.146h3.745v1.146h-1.064
			l-2.026,7.571h-1.412l-1.371-3.99l-1.289,3.99h-1.453l-2.087-7.571h-1.371v-1.146H308.13z"/>
		<path d="M317.972,168.308c0-2.537,1.924-4.481,4.461-4.481c2.537,0,4.46,1.944,4.46,4.481c0,2.517-1.923,4.481-4.46,4.481
			C319.896,172.789,317.972,170.825,317.972,168.308z M325.564,168.308c0-1.821-1.249-3.335-3.131-3.335
			c-1.883,0-3.131,1.514-3.131,3.335c0,1.801,1.248,3.335,3.131,3.335C324.315,171.644,325.564,170.109,325.564,168.308z"/>
		<path d="M333.707,171.398h3.704v1.146h-6.752v-1.146h1.78v-6.159l-1.494,0.205l-0.184-1.044c0.655-0.041,1.33-0.123,1.801-0.552
			c0.164-0.184,0.286-0.348,0.552-0.348c0.593,0,0.593,0.573,0.593,1.023v1.084c1.125-0.818,2.21-1.78,3.684-1.78
			c1.064,0,1.739,0.716,2.066,1.657l-1.269,0.512c-0.164-0.43-0.368-1.023-0.921-1.023c-1.043,0-2.762,1.453-3.561,2.169
			L333.707,171.398L333.707,171.398z"/>
		<path d="M348.889,172.217c-0.777,0.327-1.391,0.573-2.251,0.573c-2.414,0-4.153-2.087-4.153-4.42s1.698-4.542,4.153-4.542
			c0.716,0,1.555,0.225,2.251,0.43v-3.396l-1.841,0.245l-0.185-1.043c0.655-0.123,1.678-0.041,2.149-0.593
			c0.164-0.184,0.286-0.348,0.552-0.348c0.593,0,0.593,0.573,0.593,1.023V171.4h1.596v1.146h-2.865L348.889,172.217L348.889,172.217
			z M348.889,165.546c-0.593-0.348-1.269-0.573-1.964-0.573c-1.964,0-3.11,1.555-3.11,3.417c0,1.657,1.146,3.253,2.906,3.253
			c0.778,0,1.555-0.287,2.169-0.736L348.889,165.546L348.889,165.546z"/>
	</g>
</g>
<g>
	<g>
		<path d="M313.584,329.357h1.473v1.146h-2.251l-3.724-5.586h-1.985v4.44h1.944v1.146h-4.89v-1.146h1.678v-9.843l-1.678-0.205
			v-1.084c0.634,0.145,1.187,0.246,1.882,0.246c1.043,0,2.108-0.246,3.151-0.246c2.026,0,3.908,0.921,3.908,3.173
			c0,1.738-1.043,2.844-2.66,3.314L313.584,329.357z M307.097,323.812l1.064,0.021c2.599,0.041,3.601-0.962,3.601-2.292
			c0-1.555-1.125-2.169-2.558-2.169c-0.675,0-1.371,0.062-2.108,0.143L307.097,323.812L307.097,323.812z"/>
		<path d="M318.637,326.759c0.123,1.78,1.514,2.844,3.704,2.844c1.289,0,2.517-0.408,3.785-0.961l0.369,1.043
			c-1.289,0.635-2.885,1.064-4.317,1.064c-3.704,0-4.87-2.456-4.87-4.297c0-2.619,1.923-4.666,4.563-4.666
			c2.517,0,4.174,1.576,4.174,4.113c0,0.286-0.021,0.572-0.082,0.858L318.637,326.759L318.637,326.759z M324.756,325.613
			c0-1.597-1.33-2.681-2.865-2.681c-1.555,0-2.947,1.146-3.253,2.681H324.756z"/>
		<path d="M336.807,321.357l1.125,0.225c-0.164,0.655-0.287,1.31-0.287,1.985c0,0.449,0.041,0.88,0.143,1.31l-1.228,0.102
			l-0.062-0.449c-0.143-1.002-0.45-1.597-2.476-1.597c-0.961,0-2.374,0.286-2.374,1.515c0,2.169,6.384,0.307,6.384,3.826
			c0,1.964-2.353,2.476-3.949,2.476c-1.146,0-1.882-0.205-2.926-0.655l-0.205,0.736l-1.084-0.327
			c0.164-0.532,0.245-1.084,0.245-1.637c0-0.513-0.061-1.044-0.266-1.516l1.269-0.164c0.246,1.698,0.614,2.415,3.069,2.415
			c0.757,0,2.517-0.225,2.517-1.351c0-2.271-6.384-0.246-6.384-3.724c0-1.883,1.883-2.742,3.663-2.742c0.9,0,1.76,0.184,2.619,0.471
			L336.807,321.357z"/>
		<path d="M343.191,326.759c0.123,1.78,1.514,2.844,3.704,2.844c1.289,0,2.517-0.408,3.785-0.961l0.369,1.043
			c-1.289,0.635-2.885,1.064-4.317,1.064c-3.704,0-4.87-2.456-4.87-4.297c0-2.619,1.923-4.666,4.563-4.666
			c2.517,0,4.174,1.576,4.174,4.113c0,0.286-0.021,0.572-0.082,0.858L343.191,326.759L343.191,326.759z M349.309,325.613
			c0-1.597-1.33-2.681-2.865-2.681c-1.555,0-2.947,1.146-3.253,2.681H349.309z"/>
		<path d="M357.739,322.032h4.768v1.146h-4.768v4.092c0,1.064-0.123,2.334,1.31,2.334c1.105,0,2.497-0.349,3.581-0.676l0.409,1.084
			c-1.248,0.349-2.844,0.737-4.113,0.737c-1.535,0-2.456-0.9-2.456-2.906v-4.665h-2.946v-1.146h2.946v-2.271h1.269V322.032z"/>
	</g>
</g>
<g>
	<path fill="#8CC63F" d="M201.963,222.482c-0.219,0-0.429-0.085-0.581-0.247c-0.161-0.162-0.252-0.391-0.247-0.619
		c0-0.195,0.057-0.386,0.152-0.557l1.247-1.933h-2.542c-0.238,0.014-0.472-0.076-0.638-0.248c-0.296-0.343-0.296-0.848,0-1.19
		c0.166-0.171,0.399-0.262,0.638-0.247l2.499,0.071l-1.109-1.8c-0.104-0.181-0.171-0.391-0.176-0.609
		c-0.005-0.229,0.081-0.457,0.248-0.619c0.156-0.161,0.371-0.252,0.595-0.247c0.314-0.005,0.604,0.176,0.733,0.467l1.219,2.171
		l1.156-2.071c0.147-0.328,0.472-0.548,0.829-0.566c0.224,0,0.433,0.086,0.58,0.247c0.167,0.152,0.253,0.367,0.253,0.596
		c-0.005,0.195-0.062,0.386-0.172,0.552l-1.214,1.947l2.528-0.071c0.237-0.01,0.471,0.081,0.638,0.252
		c0.295,0.343,0.295,0.848,0,1.186c-0.167,0.172-0.4,0.267-0.638,0.253h-2.552l1.133,1.766c0.124,0.215,0.195,0.457,0.205,0.705
		c0.004,0.229-0.076,0.447-0.233,0.609c-0.152,0.157-0.353,0.247-0.571,0.247c-0.348-0.01-0.657-0.219-0.8-0.538l-1.143-2.032
		l-1.152,2.032C202.682,222.316,202.334,222.511,201.963,222.482z"/>
	<path fill="#8CC63F" d="M214.65,222.482c-0.219,0-0.429-0.085-0.576-0.247c-0.171-0.162-0.257-0.391-0.252-0.619
		c0-0.195,0.052-0.386,0.152-0.557l1.242-1.933h-2.542c-0.238,0.014-0.467-0.076-0.638-0.248c-0.291-0.343-0.291-0.848,0-1.19
		c0.171-0.171,0.399-0.262,0.638-0.247l2.504,0.071l-1.176-1.866c-0.109-0.186-0.176-0.396-0.181-0.609
		c-0.005-0.233,0.081-0.457,0.252-0.624c0.152-0.157,0.366-0.247,0.591-0.247c0.313-0.005,0.604,0.181,0.732,0.471l1.219,2.167
		l1.157-2.071c0.147-0.328,0.471-0.548,0.833-0.566c0.219,0,0.429,0.09,0.581,0.247c0.162,0.157,0.247,0.372,0.247,0.596
		c-0.005,0.195-0.062,0.39-0.171,0.552l-1.214,1.952l2.527-0.071c0.238-0.015,0.472,0.076,0.638,0.247
		c0.296,0.343,0.296,0.848,0,1.19c-0.166,0.172-0.399,0.262-0.638,0.248h-2.552l1.133,1.771c0.124,0.209,0.2,0.452,0.205,0.704
		c0.005,0.225-0.076,0.443-0.233,0.605c-0.147,0.156-0.353,0.247-0.571,0.252c-0.348-0.005-0.661-0.219-0.8-0.543l-1.143-2.027
		l-1.151,2.027C215.331,222.249,215.008,222.468,214.65,222.482z"/>
	<path fill="#8CC63F" d="M227.338,222.482c-0.22,0-0.429-0.085-0.581-0.247c-0.167-0.162-0.257-0.391-0.248-0.619
		c0-0.195,0.048-0.386,0.152-0.557l1.243-1.933h-2.542c-0.238,0.014-0.472-0.076-0.639-0.248c-0.29-0.343-0.29-0.848,0-1.19
		c0.167-0.171,0.4-0.262,0.639-0.247l2.499,0.071l-1.171-1.866c-0.114-0.186-0.177-0.396-0.182-0.609
		c-0.009-0.233,0.081-0.457,0.248-0.624c0.157-0.157,0.371-0.247,0.59-0.247c0.319-0.005,0.609,0.181,0.733,0.471l1.219,2.167
		l1.162-2.071c0.147-0.328,0.466-0.548,0.828-0.566c0.219,0,0.429,0.09,0.581,0.247c0.161,0.157,0.257,0.372,0.247,0.596
		c0,0.195-0.057,0.39-0.162,0.552l-1.219,1.952l2.528-0.071c0.238-0.015,0.472,0.076,0.633,0.247c0.296,0.343,0.296,0.848,0,1.19
		c-0.161,0.172-0.395,0.262-0.633,0.248h-2.557l1.133,1.771c0.129,0.209,0.2,0.452,0.21,0.704c0.01,0.225-0.076,0.443-0.238,0.605
		c-0.143,0.156-0.353,0.247-0.566,0.252c-0.348-0.005-0.662-0.219-0.8-0.543l-1.147-2.027l-1.147,2.027
		C228.014,222.249,227.694,222.468,227.338,222.482z"/>
	<path fill="#8CC63F" d="M240.077,222.482c-0.219,0-0.429-0.085-0.581-0.247c-0.161-0.162-0.257-0.391-0.247-0.619
		c0-0.195,0.052-0.386,0.152-0.557l1.242-1.933h-2.542c-0.238,0.014-0.472-0.076-0.633-0.248c-0.296-0.343-0.296-0.848,0-1.19
		c0.161-0.171,0.395-0.262,0.633-0.247l2.499,0.071l-1.171-1.866c-0.114-0.186-0.171-0.396-0.181-0.609
		c-0.01-0.233,0.086-0.457,0.247-0.624c0.157-0.157,0.372-0.247,0.596-0.247c0.318-0.005,0.604,0.181,0.732,0.471l1.215,2.167
		l1.161-2.071c0.152-0.328,0.467-0.548,0.828-0.566c0.22,0,0.429,0.09,0.581,0.247c0.162,0.157,0.257,0.372,0.248,0.596
		c0,0.195-0.058,0.39-0.162,0.552l-1.219,1.952l2.532-0.071c0.238-0.015,0.467,0.076,0.634,0.247c0.29,0.343,0.29,0.848,0,1.19
		c-0.167,0.172-0.396,0.262-0.634,0.248h-2.562l1.134,1.771c0.128,0.209,0.2,0.452,0.209,0.704c0.01,0.225-0.076,0.443-0.237,0.605
		c-0.144,0.156-0.353,0.247-0.562,0.252c-0.352-0.01-0.666-0.219-0.805-0.543l-1.146-2.027l-1.143,2.027
		C240.753,222.249,240.439,222.468,240.077,222.482z"/>
	<path fill="#8CC63F" d="M252.707,222.482c-0.219,0-0.428-0.085-0.58-0.247c-0.167-0.162-0.253-0.391-0.248-0.619
		c0.005-0.195,0.058-0.386,0.152-0.557l1.242-1.933h-2.542c-0.238,0.014-0.467-0.076-0.638-0.248c-0.29-0.343-0.29-0.848,0-1.19
		c0.171-0.171,0.399-0.262,0.638-0.247l2.504,0.071l-1.181-1.866c-0.104-0.186-0.171-0.396-0.176-0.609
		c-0.005-0.233,0.081-0.457,0.248-0.624c0.156-0.157,0.371-0.247,0.595-0.247c0.314-0.005,0.604,0.181,0.733,0.471l1.214,2.167
		l1.161-2.071c0.147-0.328,0.472-0.548,0.828-0.566c0.225-0.005,0.434,0.086,0.581,0.247c0.167,0.157,0.253,0.372,0.253,0.596
		c-0.005,0.195-0.062,0.39-0.172,0.552l-1.214,1.952l2.528-0.071c0.237-0.015,0.471,0.076,0.638,0.247
		c0.295,0.343,0.295,0.848,0,1.19c-0.167,0.172-0.4,0.262-0.638,0.248h-2.552l1.133,1.771c0.124,0.209,0.195,0.452,0.204,0.704
		c0.005,0.225-0.08,0.443-0.232,0.605c-0.152,0.156-0.353,0.247-0.571,0.252c-0.348-0.01-0.657-0.219-0.8-0.543l-1.147-2.027
		l-1.147,2.027C253.383,222.249,253.064,222.468,252.707,222.482z"/>
	<path fill="#8CC63F" d="M265.395,222.482c-0.219,0-0.429-0.085-0.581-0.247c-0.166-0.162-0.257-0.391-0.247-0.619
		c0.005-0.195,0.057-0.386,0.152-0.557l1.237-1.933h-2.522c-0.248,0.014-0.481-0.076-0.652-0.248c-0.291-0.343-0.291-0.848,0-1.19
		c0.171-0.171,0.404-0.262,0.652-0.247l2.484,0.071l-1.176-1.866c-0.109-0.186-0.171-0.396-0.176-0.609
		c-0.01-0.233,0.081-0.457,0.247-0.624c0.152-0.157,0.372-0.247,0.591-0.247c0.318-0.005,0.609,0.181,0.732,0.471l1.219,2.167
		l1.162-2.071c0.147-0.328,0.467-0.548,0.828-0.566c0.219-0.005,0.429,0.086,0.581,0.247c0.162,0.157,0.252,0.372,0.247,0.596
		c0,0.195-0.057,0.39-0.166,0.552l-1.214,1.952l2.527-0.071c0.238-0.015,0.472,0.076,0.634,0.247c0.295,0.343,0.295,0.848,0,1.19
		c-0.162,0.172-0.396,0.262-0.634,0.248h-2.556l1.133,1.771c0.128,0.209,0.199,0.452,0.209,0.704
		c0.005,0.225-0.076,0.443-0.238,0.605c-0.147,0.156-0.352,0.247-0.566,0.252c-0.348-0.01-0.661-0.219-0.8-0.543l-1.147-2.027
		l-1.146,2.027C266.07,222.249,265.752,222.468,265.395,222.482z"/>
	<path fill="#8CC63F" d="M278.077,222.482c-0.219,0-0.429-0.085-0.581-0.247c-0.162-0.162-0.252-0.391-0.247-0.619
		c0-0.195,0.052-0.386,0.152-0.557l1.247-1.933h-2.547c-0.233,0.014-0.472-0.076-0.634-0.248c-0.295-0.343-0.295-0.848,0-1.19
		c0.162-0.171,0.4-0.262,0.634-0.247l2.499,0.071l-1.214-1.8c-0.109-0.181-0.172-0.391-0.176-0.609
		c-0.01-0.229,0.08-0.457,0.247-0.619c0.152-0.161,0.371-0.252,0.591-0.247c0.318-0.005,0.609,0.176,0.732,0.467l1.219,2.171
		l1.162-2.071c0.147-0.328,0.467-0.548,0.828-0.566c0.219-0.005,0.429,0.086,0.581,0.247c0.162,0.152,0.252,0.367,0.247,0.596
		c0,0.195-0.057,0.386-0.166,0.552l-1.214,1.947l2.527-0.071c0.238-0.01,0.472,0.081,0.634,0.252c0.295,0.343,0.295,0.848,0,1.186
		c-0.162,0.172-0.396,0.267-0.634,0.253h-2.557l1.134,1.766c0.123,0.215,0.199,0.457,0.209,0.705
		c0.005,0.229-0.081,0.447-0.238,0.609c-0.147,0.157-0.352,0.247-0.566,0.247c-0.348-0.01-0.661-0.219-0.805-0.538L280,219.955
		l-1.146,2.032C278.701,222.278,278.405,222.468,278.077,222.482z"/>
	<path fill="#8CC63F" d="M290.765,222.482c-0.22,0-0.429-0.085-0.581-0.247c-0.167-0.162-0.252-0.391-0.248-0.619
		c0.005-0.195,0.058-0.386,0.148-0.557l1.247-1.933h-2.533c-0.237,0.019-0.466-0.072-0.633-0.248c-0.31-0.333-0.31-0.853,0-1.19
		c0.167-0.176,0.396-0.267,0.633-0.247l2.49,0.071l-1.176-1.866c-0.109-0.186-0.172-0.396-0.181-0.609
		c-0.01-0.467,0.352-0.857,0.818-0.871c0.01,0,0.02,0,0.028,0c0.314-0.005,0.604,0.181,0.733,0.471l1.214,2.167l1.162-2.071
		c0.147-0.328,0.471-0.548,0.828-0.566c0.224-0.005,0.433,0.086,0.581,0.247c0.166,0.157,0.252,0.372,0.247,0.596
		c0,0.195-0.062,0.39-0.167,0.552l-1.214,1.947l2.528-0.066c0.238-0.015,0.472,0.076,0.638,0.247c0.295,0.343,0.295,0.848,0,1.19
		c-0.166,0.172-0.399,0.262-0.638,0.248h-2.557l1.133,1.771c0.129,0.209,0.2,0.452,0.205,0.704c0.019,0.457-0.343,0.838-0.8,0.857
		l0,0c-0.348-0.01-0.657-0.219-0.8-0.543l-1.147-2.027l-1.147,2.027C291.44,222.249,291.121,222.468,290.765,222.482z"/>
	<path fill="#8CC63F" d="M303.451,222.482c-0.219,0-0.428-0.085-0.58-0.247c-0.167-0.162-0.258-0.391-0.248-0.619
		c0-0.195,0.058-0.386,0.152-0.557l1.238-1.933h-2.543c-0.229,0.014-0.457-0.076-0.618-0.248c-0.314-0.333-0.314-0.853,0-1.19
		c0.161-0.171,0.39-0.262,0.618-0.247l2.505,0.071l-1.177-1.866c-0.109-0.186-0.171-0.396-0.176-0.609
		c-0.019-0.467,0.348-0.857,0.81-0.871c0.01,0,0.019,0,0.028,0c0.319-0.005,0.609,0.181,0.733,0.471l1.219,2.167l1.161-2.071
		c0.147-0.328,0.467-0.548,0.829-0.566c0.219-0.005,0.428,0.086,0.58,0.247c0.162,0.157,0.253,0.372,0.248,0.596
		c0,0.195-0.058,0.39-0.167,0.552l-1.214,1.947l2.523-0.066c0.238-0.015,0.476,0.076,0.638,0.247c0.295,0.343,0.295,0.848,0,1.19
		c-0.162,0.172-0.399,0.262-0.638,0.248h-2.552l1.133,1.771c0.124,0.209,0.2,0.452,0.21,0.704c0.009,0.457-0.348,0.838-0.805,0.857
		l0,0c-0.348-0.01-0.662-0.219-0.805-0.543l-1.143-2.027l-1.147,2.027C304.128,222.249,303.809,222.468,303.451,222.482z"/>
	<path fill="#8CC63F" d="M316.077,222.482c-0.22,0-0.429-0.085-0.581-0.247c-0.162-0.162-0.252-0.391-0.248-0.619
		c0.01-0.195,0.058-0.386,0.152-0.557l1.248-1.933h-2.543c-0.237,0.014-0.466-0.076-0.623-0.248c-0.314-0.333-0.314-0.853,0-1.19
		c0.157-0.171,0.386-0.262,0.623-0.247l2.5,0.071l-1.176-1.866c-0.109-0.186-0.172-0.396-0.182-0.609
		c-0.004-0.233,0.086-0.457,0.248-0.624c0.162-0.157,0.371-0.247,0.6-0.247c0.314-0.005,0.6,0.181,0.729,0.471l1.214,2.167
		l1.162-2.071c0.152-0.328,0.471-0.548,0.828-0.566c0.224-0.005,0.438,0.086,0.581,0.247c0.166,0.157,0.257,0.372,0.252,0.596
		c-0.005,0.195-0.062,0.39-0.167,0.552l-1.219,1.952l2.533-0.071c0.238-0.015,0.467,0.076,0.633,0.247
		c0.296,0.343,0.296,0.848,0,1.19c-0.166,0.172-0.395,0.262-0.633,0.248h-2.557l1.133,1.771c0.129,0.209,0.195,0.452,0.205,0.704
		c0.01,0.225-0.076,0.443-0.233,0.605c-0.147,0.156-0.353,0.247-0.566,0.252c-0.353-0.01-0.662-0.219-0.8-0.543l-1.152-2.027
		l-1.143,2.027C316.753,222.249,316.438,222.468,316.077,222.482z"/>
</g>
<g>
	<path fill="#8CC63F" d="M201.963,275.482c-0.219,0-0.429-0.085-0.581-0.247c-0.161-0.162-0.252-0.391-0.247-0.619
		c0-0.195,0.057-0.386,0.152-0.557l1.247-1.933h-2.542c-0.238,0.014-0.472-0.076-0.638-0.248c-0.296-0.343-0.296-0.848,0-1.19
		c0.166-0.171,0.399-0.262,0.638-0.247l2.499,0.071l-1.109-1.8c-0.104-0.181-0.171-0.391-0.176-0.609
		c-0.005-0.229,0.081-0.457,0.248-0.619c0.156-0.161,0.371-0.252,0.595-0.247c0.314-0.005,0.604,0.176,0.733,0.467l1.219,2.171
		l1.156-2.071c0.147-0.328,0.472-0.548,0.829-0.566c0.224,0,0.433,0.086,0.58,0.247c0.167,0.152,0.253,0.367,0.253,0.596
		c-0.005,0.195-0.062,0.386-0.172,0.552l-1.214,1.947l2.528-0.071c0.237-0.01,0.471,0.081,0.638,0.252
		c0.295,0.343,0.295,0.848,0,1.186c-0.167,0.172-0.4,0.267-0.638,0.253h-2.552l1.133,1.766c0.124,0.215,0.195,0.457,0.205,0.705
		c0.004,0.229-0.076,0.447-0.233,0.609c-0.152,0.157-0.353,0.247-0.571,0.247c-0.348-0.01-0.657-0.219-0.8-0.538l-1.143-2.032
		l-1.152,2.032C202.682,275.316,202.334,275.511,201.963,275.482z"/>
	<path fill="#8CC63F" d="M214.65,275.482c-0.219,0-0.429-0.085-0.576-0.247c-0.171-0.162-0.257-0.391-0.252-0.619
		c0-0.195,0.052-0.386,0.152-0.557l1.242-1.933h-2.542c-0.238,0.014-0.467-0.076-0.638-0.248c-0.291-0.343-0.291-0.848,0-1.19
		c0.171-0.171,0.399-0.262,0.638-0.247l2.504,0.071l-1.176-1.866c-0.109-0.186-0.176-0.396-0.181-0.609
		c-0.005-0.233,0.081-0.457,0.252-0.624c0.152-0.157,0.366-0.247,0.591-0.247c0.313-0.005,0.604,0.181,0.732,0.471l1.219,2.167
		l1.157-2.071c0.147-0.328,0.471-0.548,0.833-0.566c0.219,0,0.429,0.09,0.581,0.247c0.162,0.157,0.247,0.372,0.247,0.596
		c-0.005,0.195-0.062,0.39-0.171,0.552l-1.214,1.952l2.527-0.071c0.238-0.015,0.472,0.076,0.638,0.247
		c0.296,0.343,0.296,0.848,0,1.19c-0.166,0.172-0.399,0.262-0.638,0.248h-2.552l1.133,1.771c0.124,0.209,0.2,0.452,0.205,0.704
		c0.005,0.225-0.076,0.443-0.233,0.605c-0.147,0.156-0.353,0.247-0.571,0.252c-0.348-0.005-0.661-0.219-0.8-0.543l-1.143-2.027
		l-1.151,2.027C215.331,275.249,215.008,275.468,214.65,275.482z"/>
	<path fill="#8CC63F" d="M227.338,275.482c-0.22,0-0.429-0.085-0.581-0.247c-0.167-0.162-0.257-0.391-0.248-0.619
		c0-0.195,0.048-0.386,0.152-0.557l1.243-1.933h-2.542c-0.238,0.014-0.472-0.076-0.639-0.248c-0.29-0.343-0.29-0.848,0-1.19
		c0.167-0.171,0.4-0.262,0.639-0.247l2.499,0.071l-1.171-1.866c-0.114-0.186-0.177-0.396-0.182-0.609
		c-0.009-0.233,0.081-0.457,0.248-0.624c0.157-0.157,0.371-0.247,0.59-0.247c0.319-0.005,0.609,0.181,0.733,0.471l1.219,2.167
		l1.162-2.071c0.147-0.328,0.466-0.548,0.828-0.566c0.219,0,0.429,0.09,0.581,0.247c0.161,0.157,0.257,0.372,0.247,0.596
		c0,0.195-0.057,0.39-0.162,0.552l-1.219,1.952l2.528-0.071c0.238-0.015,0.472,0.076,0.633,0.247c0.296,0.343,0.296,0.848,0,1.19
		c-0.161,0.172-0.395,0.262-0.633,0.248h-2.557l1.133,1.771c0.129,0.209,0.2,0.452,0.21,0.704c0.01,0.225-0.076,0.443-0.238,0.605
		c-0.143,0.156-0.353,0.247-0.566,0.252c-0.348-0.005-0.662-0.219-0.8-0.543l-1.147-2.027l-1.147,2.027
		C228.014,275.249,227.694,275.468,227.338,275.482z"/>
	<path fill="#8CC63F" d="M240.077,275.482c-0.219,0-0.429-0.085-0.581-0.247c-0.161-0.162-0.257-0.391-0.247-0.619
		c0-0.195,0.052-0.386,0.152-0.557l1.242-1.933h-2.542c-0.238,0.014-0.472-0.076-0.633-0.248c-0.296-0.343-0.296-0.848,0-1.19
		c0.161-0.171,0.395-0.262,0.633-0.247l2.499,0.071l-1.171-1.866c-0.114-0.186-0.171-0.396-0.181-0.609
		c-0.01-0.233,0.086-0.457,0.247-0.624c0.157-0.157,0.372-0.247,0.596-0.247c0.318-0.005,0.604,0.181,0.732,0.471l1.215,2.167
		l1.161-2.071c0.152-0.328,0.467-0.548,0.828-0.566c0.22,0,0.429,0.09,0.581,0.247c0.162,0.157,0.257,0.372,0.248,0.596
		c0,0.195-0.058,0.39-0.162,0.552l-1.219,1.952l2.532-0.071c0.238-0.015,0.467,0.076,0.634,0.247c0.29,0.343,0.29,0.848,0,1.19
		c-0.167,0.172-0.396,0.262-0.634,0.248h-2.562l1.134,1.771c0.128,0.209,0.2,0.452,0.209,0.704c0.01,0.225-0.076,0.443-0.237,0.605
		c-0.144,0.156-0.353,0.247-0.562,0.252c-0.352-0.01-0.666-0.219-0.805-0.543l-1.146-2.027l-1.143,2.027
		C240.753,275.249,240.439,275.468,240.077,275.482z"/>
	<path fill="#8CC63F" d="M252.707,275.482c-0.219,0-0.428-0.085-0.58-0.247c-0.167-0.162-0.253-0.391-0.248-0.619
		c0.005-0.195,0.058-0.386,0.152-0.557l1.242-1.933h-2.542c-0.238,0.014-0.467-0.076-0.638-0.248c-0.29-0.343-0.29-0.848,0-1.19
		c0.171-0.171,0.399-0.262,0.638-0.247l2.504,0.071l-1.181-1.866c-0.104-0.186-0.171-0.396-0.176-0.609
		c-0.005-0.233,0.081-0.457,0.248-0.624c0.156-0.157,0.371-0.247,0.595-0.247c0.314-0.005,0.604,0.181,0.733,0.471l1.214,2.167
		l1.161-2.071c0.147-0.328,0.472-0.548,0.828-0.566c0.225-0.005,0.434,0.086,0.581,0.247c0.167,0.157,0.253,0.372,0.253,0.596
		c-0.005,0.195-0.062,0.39-0.172,0.552l-1.214,1.952l2.528-0.071c0.237-0.015,0.471,0.076,0.638,0.247
		c0.295,0.343,0.295,0.848,0,1.19c-0.167,0.172-0.4,0.262-0.638,0.248h-2.552l1.133,1.771c0.124,0.209,0.195,0.452,0.204,0.704
		c0.005,0.225-0.08,0.443-0.232,0.605c-0.152,0.156-0.353,0.247-0.571,0.252c-0.348-0.01-0.657-0.219-0.8-0.543l-1.147-2.027
		l-1.147,2.027C253.383,275.249,253.064,275.468,252.707,275.482z"/>
	<path fill="#8CC63F" d="M265.395,275.482c-0.219,0-0.429-0.085-0.581-0.247c-0.166-0.162-0.257-0.391-0.247-0.619
		c0.005-0.195,0.057-0.386,0.152-0.557l1.237-1.933h-2.522c-0.248,0.014-0.481-0.076-0.652-0.248c-0.291-0.343-0.291-0.848,0-1.19
		c0.171-0.171,0.404-0.262,0.652-0.247l2.484,0.071l-1.176-1.866c-0.109-0.186-0.171-0.396-0.176-0.609
		c-0.01-0.233,0.081-0.457,0.247-0.624c0.152-0.157,0.372-0.247,0.591-0.247c0.318-0.005,0.609,0.181,0.732,0.471l1.219,2.167
		l1.162-2.071c0.147-0.328,0.467-0.548,0.828-0.566c0.219-0.005,0.429,0.086,0.581,0.247c0.162,0.157,0.252,0.372,0.247,0.596
		c0,0.195-0.057,0.39-0.166,0.552l-1.214,1.952l2.527-0.071c0.238-0.015,0.472,0.076,0.634,0.247c0.295,0.343,0.295,0.848,0,1.19
		c-0.162,0.172-0.396,0.262-0.634,0.248h-2.556l1.133,1.771c0.128,0.209,0.199,0.452,0.209,0.704
		c0.005,0.225-0.076,0.443-0.238,0.605c-0.147,0.156-0.352,0.247-0.566,0.252c-0.348-0.01-0.661-0.219-0.8-0.543l-1.147-2.027
		l-1.146,2.027C266.07,275.249,265.752,275.468,265.395,275.482z"/>
	<path fill="#8CC63F" d="M278.077,275.482c-0.219,0-0.429-0.085-0.581-0.247c-0.162-0.162-0.252-0.391-0.247-0.619
		c0-0.195,0.052-0.386,0.152-0.557l1.247-1.933h-2.547c-0.233,0.014-0.472-0.076-0.634-0.248c-0.295-0.343-0.295-0.848,0-1.19
		c0.162-0.171,0.4-0.262,0.634-0.247l2.499,0.071l-1.214-1.8c-0.109-0.181-0.172-0.391-0.176-0.609
		c-0.01-0.229,0.08-0.457,0.247-0.619c0.152-0.161,0.371-0.252,0.591-0.247c0.318-0.005,0.609,0.176,0.732,0.467l1.219,2.171
		l1.162-2.071c0.147-0.328,0.467-0.548,0.828-0.566c0.219-0.005,0.429,0.086,0.581,0.247c0.162,0.152,0.252,0.367,0.247,0.596
		c0,0.195-0.057,0.386-0.166,0.552l-1.214,1.947l2.527-0.071c0.238-0.01,0.472,0.081,0.634,0.252c0.295,0.343,0.295,0.848,0,1.186
		c-0.162,0.172-0.396,0.267-0.634,0.253h-2.557l1.134,1.766c0.123,0.215,0.199,0.457,0.209,0.705
		c0.005,0.229-0.081,0.447-0.238,0.609c-0.147,0.157-0.352,0.247-0.566,0.247c-0.348-0.01-0.661-0.219-0.805-0.538L280,272.955
		l-1.146,2.032C278.701,275.278,278.405,275.468,278.077,275.482z"/>
	<path fill="#8CC63F" d="M290.765,275.482c-0.22,0-0.429-0.085-0.581-0.247c-0.167-0.162-0.252-0.391-0.248-0.619
		c0.005-0.195,0.058-0.386,0.148-0.557l1.247-1.933h-2.533c-0.237,0.019-0.466-0.072-0.633-0.248c-0.31-0.333-0.31-0.853,0-1.19
		c0.167-0.176,0.396-0.267,0.633-0.247l2.49,0.071l-1.176-1.866c-0.109-0.186-0.172-0.396-0.181-0.609
		c-0.01-0.467,0.352-0.857,0.818-0.871c0.01,0,0.02,0,0.028,0c0.314-0.005,0.604,0.181,0.733,0.471l1.214,2.167l1.162-2.071
		c0.147-0.328,0.471-0.548,0.828-0.566c0.224-0.005,0.433,0.086,0.581,0.247c0.166,0.157,0.252,0.372,0.247,0.596
		c0,0.195-0.062,0.39-0.167,0.552l-1.214,1.947l2.528-0.066c0.238-0.015,0.472,0.076,0.638,0.247c0.295,0.343,0.295,0.848,0,1.19
		c-0.166,0.172-0.399,0.262-0.638,0.248h-2.557l1.133,1.771c0.129,0.209,0.2,0.452,0.205,0.704c0.019,0.457-0.343,0.838-0.8,0.857
		l0,0c-0.348-0.01-0.657-0.219-0.8-0.543l-1.147-2.027l-1.147,2.027C291.44,275.249,291.121,275.468,290.765,275.482z"/>
	<path fill="#8CC63F" d="M303.451,275.482c-0.219,0-0.428-0.085-0.58-0.247c-0.167-0.162-0.258-0.391-0.248-0.619
		c0-0.195,0.058-0.386,0.152-0.557l1.238-1.933h-2.543c-0.229,0.014-0.457-0.076-0.618-0.248c-0.314-0.333-0.314-0.853,0-1.19
		c0.161-0.171,0.39-0.262,0.618-0.247l2.505,0.071l-1.177-1.866c-0.109-0.186-0.171-0.396-0.176-0.609
		c-0.019-0.467,0.348-0.857,0.81-0.871c0.01,0,0.019,0,0.028,0c0.319-0.005,0.609,0.181,0.733,0.471l1.219,2.167l1.161-2.071
		c0.147-0.328,0.467-0.548,0.829-0.566c0.219-0.005,0.428,0.086,0.58,0.247c0.162,0.157,0.253,0.372,0.248,0.596
		c0,0.195-0.058,0.39-0.167,0.552l-1.214,1.947l2.523-0.066c0.238-0.015,0.476,0.076,0.638,0.247c0.295,0.343,0.295,0.848,0,1.19
		c-0.162,0.172-0.399,0.262-0.638,0.248h-2.552l1.133,1.771c0.124,0.209,0.2,0.452,0.21,0.704c0.009,0.457-0.348,0.838-0.805,0.857
		l0,0c-0.348-0.01-0.662-0.219-0.805-0.543l-1.143-2.027l-1.147,2.027C304.128,275.249,303.809,275.468,303.451,275.482z"/>
	<path fill="#8CC63F" d="M316.077,275.482c-0.22,0-0.429-0.085-0.581-0.247c-0.162-0.162-0.252-0.391-0.248-0.619
		c0.01-0.195,0.058-0.386,0.152-0.557l1.248-1.933h-2.543c-0.237,0.014-0.466-0.076-0.623-0.248c-0.314-0.333-0.314-0.853,0-1.19
		c0.157-0.171,0.386-0.262,0.623-0.247l2.5,0.071l-1.176-1.866c-0.109-0.186-0.172-0.396-0.182-0.609
		c-0.004-0.233,0.086-0.457,0.248-0.624c0.162-0.157,0.371-0.247,0.6-0.247c0.314-0.005,0.6,0.181,0.729,0.471l1.214,2.167
		l1.162-2.071c0.152-0.328,0.471-0.548,0.828-0.566c0.224-0.005,0.438,0.086,0.581,0.247c0.166,0.157,0.257,0.372,0.252,0.596
		c-0.005,0.195-0.062,0.39-0.167,0.552l-1.219,1.952l2.533-0.071c0.238-0.015,0.467,0.076,0.633,0.247
		c0.296,0.343,0.296,0.848,0,1.19c-0.166,0.172-0.395,0.262-0.633,0.248h-2.557l1.133,1.771c0.129,0.209,0.195,0.452,0.205,0.704
		c0.01,0.225-0.076,0.443-0.233,0.605c-0.147,0.156-0.353,0.247-0.566,0.252c-0.353-0.01-0.662-0.219-0.8-0.543l-1.152-2.027
		l-1.143,2.027C316.753,275.249,316.438,275.468,316.077,275.482z"/>
</g>
</svg>
