<?xml version="1.0" encoding="utf-8"?>
<!-- Generator: Adobe Illustrator 16.0.0, SVG Export Plug-In . SVG Version: 6.00 Build 0)  -->
<!DOCTYPE svg PUBLIC "-//W3C//DTD SVG 1.1//EN" "http://www.w3.org/Graphics/SVG/1.1/DTD/svg11.dtd">
<svg version="1.1" id="af1e465b-e5dc-47c7-a754-85264e3dba56"
	 xmlns="http://www.w3.org/2000/svg" xmlns:xlink="http://www.w3.org/1999/xlink" x="0px" y="0px" width="916px" height="587.365px"
	 viewBox="0 0 916 587.365" enable-background="new 0 0 916 587.365" xml:space="preserve">
<circle fill="#FF6584" cx="248.807" cy="123.96" r="73"/>
<polygon fill="#F2F2F2" points="636.807,425.96 40.957,425.96 255.127,119.74 338.877,0 402.627,91.14 "/>
<polygon fill="#F2F2F2" points="610.779,115.96 393.956,425.96 827.602,425.96 610.779,115.96 393.956,425.96 827.602,425.96 "/>
<path fill="#E6E6E6" d="M338.877,0l4.93,85.96l-16.291,123.694c0,0,134.566,70.848,134.929,74.077
	c0.362,3.229-28.347,94.064-28.347,94.064l202.709,48.164L338.877,0z"/>
<path fill="#E6E6E6" d="M610.779,115.96l35.352,83.178l62.677,125.822l37.103,18.969c0,0-2.434,29.463-2.268,33.247
	c0.165,3.784,83.96,48.784,83.96,48.784L610.779,115.96z"/>
<path fill="#CCCCCC" d="M915.029,425.96H27.083c-0.537,0-0.972-0.448-0.972-1c0-0.553,0.435-1,0.972-1h887.945
	c0.536,0,0.972,0.447,0.972,1C916,425.512,915.565,425.96,915.029,425.96z"/>
<circle fill="#CCCCCC" cx="202.571" cy="288.552" r="78.237"/>
<path opacity="0.2" enable-background="new    " d="M144.803,236.297c-16.986,39.733,1.454,85.714,41.188,102.7
	c30.913,13.215,66.813,5.205,89.177-19.897c-16.984,39.734-62.964,58.178-102.699,41.193
	c-39.734-16.984-58.178-62.964-41.193-102.699C134.603,249.81,139.171,242.617,144.803,236.297z"/>
<polygon fill="#3F3D56" points="202.785,288.553 203.001,288.553 206.869,510.365 198.702,510.365 "/>
<circle fill="#6C63FF" cx="303.571" cy="396.739" r="67.237"/>
<path opacity="0.2" enable-background="new    " d="M253.925,351.83c-14.598,34.147,1.25,73.663,35.397,88.261
	c26.566,11.357,57.419,4.474,76.639-17.1c-14.597,34.148-54.111,49.998-88.26,35.402c-34.148-14.597-49.998-54.112-35.401-88.26
	C245.159,363.444,249.085,357.262,253.925,351.83L253.925,351.83z"/>
<polygon fill="#3F3D56" points="303.755,393.739 303.94,393.739 307.265,584.365 300.246,584.365 "/>
<circle fill="#6C63FF" cx="395.042" cy="201.195" r="94.235"/>
<path opacity="0.2" enable-background="new    " d="M464.621,138.253c20.46,47.859-1.752,103.242-49.61,123.701
	c-37.234,15.918-80.476,6.271-107.412-23.966c20.457,47.86,75.84,70.074,123.699,49.617c47.86-20.457,70.074-75.84,49.617-123.699
	C476.907,154.531,471.405,145.866,464.621,138.253z"/>
<polygon fill="#3F3D56" points="394.783,201.195 394.524,201.195 389.864,468.365 399.701,468.365 "/>
<path fill="#3F3D56" d="M538.763,116.587l12.794-10.233c-9.939-1.097-14.023,4.324-15.694,8.615
	c-7.766-3.225-16.22,1.001-16.22,1.001l25.601,9.294C543.951,121.815,541.703,118.805,538.763,116.587z"/>
<path fill="#3F3D56" d="M555.346,36.828l12.795-10.233c-9.939-1.097-14.023,4.324-15.695,8.615
	c-7.765-3.225-16.219,1.001-16.219,1.001l25.601,9.294C560.535,42.056,558.287,39.046,555.346,36.828z"/>
<path fill="#3F3D56" d="M647.474,120.781l12.795-10.233c-9.94-1.097-14.024,4.324-15.695,8.614
	c-7.766-3.224-16.219,1.002-16.219,1.002l25.6,9.294C652.663,126.008,650.415,122.998,647.474,120.781z"/>
<path fill="#8BC53F" d="M677.562,571.734c0,0,0.49-10.258,10.526-9.065"/>
<path fill="#8BC53F" d="M720.099,571.734c0,0,0.49-10.258,10.526-9.065"/>
<path fill="#8BC53F" d="M700.248,571.734c0,0,0.49-10.258,10.526-9.065"/>
<path fill="#8BC53F" d="M659.3,571.734c0,0-0.489-10.258-10.525-9.065"/>
<path fill="#8BC53F" d="M701.837,572.443c0,0-0.489-10.258-10.525-9.065"/>
<rect x="562.541" y="412.396" transform="matrix(-0.8347 0.5507 -0.5507 -0.8347 1297.8961 571.7078)" fill="#2F2E41" width="1.197" height="136.524"/>
<polygon fill="#A0616A" points="480.961,563.067 488.299,563.066 491.789,534.76 480.959,534.761 "/>
<path fill="#2F2E41" d="M479.088,560.67h14.452h0.001c5.086,0,9.21,4.123,9.21,9.21v0.299l-23.662,0.001L479.088,560.67z"/>
<polygon fill="#A0616A" points="432.998,556.043 439.895,558.553 452.858,533.148 442.68,529.444 "/>
<path fill="#2F2E41" d="M432.059,553.151l13.581,4.943h0.001c4.779,1.74,7.243,7.025,5.504,11.805l-0.103,0.281l-22.235-8.093
	L432.059,553.151z"/>
<path fill="#2F2E41" d="M478.868,369.821l15.562,4.789l12.57,20.95l-4.788,24.542l-2.395,21.55v95.773c0,0-18.42,4.789-26.27,0
	l2.925-55.668l-19.754,59.26l-22.147-8.38l25.141-83.204c-0.404-6.152,0.625-12.315,3.008-18.003
	c2.157-5.063,5.944-9.262,10.76-11.927v-4.788l-4.789-30.528L478.868,369.821z"/>
<circle fill="#A0616A" cx="490.664" cy="352.702" r="14.702"/>
<path fill="#2F2E41" d="M504.858,348.869c-4.08-0.814-8.227,1.052-10.324,4.645c-0.505-1.86-3.506-1.765-4.616-0.189
	c-1.11,1.576-0.864,3.705-0.505,5.599c0.36,1.894,0.769,3.951-0.105,5.67c-0.95,1.633-2.704,2.63-4.594,2.611
	c-1.861-0.045-3.671-0.62-5.216-1.659c-8.201-5.047-10.759-15.786-5.712-23.987c2.276-3.7,5.853-6.417,10.027-7.618
	c3.633-1.046,7.491-0.884,11.266-0.674c3.077,0.005,6.13,0.539,9.025,1.579c2.827,1.197,5.34,3.577,5.861,6.603
	s-1.249,8.443-4.308,8.709"/>
<path fill="#2F2E41" d="M481.684,336.006c1.333-0.222,2.627-0.636,3.841-1.229c1.215-0.599,2.102-1.706,2.418-3.023
	c0.255-1.344-0.55-2.662-1.861-3.05c-0.97-0.08-1.943,0.081-2.836,0.469c-0.902,0.386-1.938,0.286-2.75-0.267
	c-0.791-0.741-0.602-2.082-1.278-2.925c-0.743-0.748-1.873-0.957-2.835-0.524c-0.938,0.437-1.776,1.062-2.46,1.84l-3.623,3.589
	c-0.705,0.698-1.468,1.564-1.289,2.517c0.343,1.014,1.39,1.611,2.437,1.39c1.024-0.237,1.976-0.722,2.769-1.411
	c-1.136,0.707-2.051,1.72-2.641,2.921c-0.575,1.208-0.425,2.635,0.39,3.695c1.294,1.491,3.746,1.287,5.63,0.543
	c2.489-0.984,4.644-2.662,6.21-4.832"/>
<path fill="#2F2E41" d="M481.714,331.655c-3.317-0.76-6.595-1.847-8.9-3.658c-2.305-1.812-3.452-4.471-2.145-6.705
	c-1.349,2.315-1.215,5.207,0.342,7.388c1.987,2.56,4.843,4.303,8.027,4.9c0.673,0.209,1.392,0.207,2.062-0.005
	c0.599-0.267,0.618-1.05-0.079-1.151"/>
<path fill="#A0616A" d="M522.917,418.199c-0.287,0.165-0.561,0.353-0.818,0.561l-28.34-8.84l-1.594-7.033l-10.929,1.018
	l1.611,12.726c0.268,2.112,1.896,3.794,3.999,4.128l33.354,5.304c1.321,3.209,4.994,4.738,8.203,3.417s4.738-4.994,3.417-8.202
	c-1.321-3.209-4.993-4.739-8.202-3.418C523.377,417.958,523.144,418.072,522.917,418.199L522.917,418.199z"/>
<path fill="#2F2E41" d="M480.065,379.997c0,0,2.561-7.316,10.26-6.651c7.698,0.665,3.508,29.996,3.508,29.996l-14.964,20.352
	L480.065,379.997z"/>
<path fill="#6C63FF" d="M565.576,562.388l-5.353-11.454l8.272-3.865l5.353,11.454l0,0c1.067,2.284,0.081,5.001-2.203,6.068
	C569.361,565.659,566.644,564.672,565.576,562.388L565.576,562.388z"/>
<circle fill="#6C63FF" cx="547.159" cy="532.259" r="5.619"/>
<path fill="#6C63FF" d="M590.193,564.677l-5.353-11.454l8.272-3.866l5.353,11.454c1.067,2.284,0.081,5.001-2.203,6.069
	C593.977,567.948,591.26,566.961,590.193,564.677L590.193,564.677z"/>
<path fill="#3F3D56" d="M547.175,543.629c0.617-6.562,6.431-11.387,12.994-10.783l37.636,3.499c2.773,0.261,4.812,2.718,4.558,5.492
	l-0.398,4.282c-0.751,7.987-7.826,13.858-15.815,13.125l-28.19-2.621C551.396,556.006,546.572,550.193,547.175,543.629z"/>
<path fill="#3F3D56" d="M554.153,562.739l1.17-12.588l9.092,0.845l-1.171,12.589c-0.238,2.51-2.466,4.352-4.976,4.113
	C555.764,567.46,553.924,565.243,554.153,562.739L554.153,562.739z"/>
<path fill="#3F3D56" d="M580.533,565.192l1.17-12.589l9.092,0.846l-1.17,12.589c-0.238,2.51-2.467,4.352-4.977,4.113
	C582.146,569.913,580.306,567.696,580.533,565.192z"/>
<path fill="#6C63FF" d="M622.155,518.825c2.151-2.236,5.708-2.305,7.944-0.152c2.236,2.151,2.305,5.709,0.153,7.944
	c-0.009,0.009-0.017,0.018-0.025,0.026l-10.261,10.596l-8.073-7.818L622.155,518.825z"/>
<path fill="#3F3D56" d="M597.904,539.323l8.221-8.488c4.161-4.286,11.007-4.396,15.303-0.245l2.13,2.062
	c5.111,4.961,5.242,13.123,0.293,18.245l-6.773,6.994c-1.558,1.604-4.12,1.646-5.729,0.092l-13.353-12.931
	C596.391,543.494,596.35,540.931,597.904,539.323z"/>
<path fill="#3F3D56" d="M623.375,517.564c1.484-1.532,3.931-1.571,5.463-0.087s1.572,3.93,0.088,5.462l-11.483,11.857l-5.55-5.375
	L623.375,517.564z"/>
<path fill="#3F3D56" d="M606.641,537.613l14.633,14.17c2.222,2.166,2.268,5.724,0.102,7.945c-2.156,2.213-5.694,2.27-7.92,0.127
	l-14.632-14.17L606.641,537.613z"/>
<ellipse transform="matrix(-0.7183 -0.6957 0.6957 -0.7183 678.1335 1393.1394)" fill="#6C63FF" cx="621.093" cy="559.289" rx="1.317" ry="2.371"/>
<rect x="599.483" y="534.732" fill="#2F2E41" width="2.993" height="16.76"/>
<polygon fill="#FFB8B8" points="773.406,480.409 764.82,480.409 760.736,447.293 773.407,447.293 "/>
<path fill="#2F2E41" d="M775.596,488.733l-27.686-0.001v-0.35c0.001-5.951,4.825-10.775,10.776-10.775l0,0h16.909V488.733z"/>
<polygon fill="#FFB8B8" points="863.409,393.956 865.068,402.381 833.364,412.785 830.916,400.353 "/>
<path fill="#2F2E41" d="M871.153,390.2l5.348,27.163l-0.344,0.067c-5.839,1.149-11.505-2.652-12.654-8.491l0,0l-3.267-16.591
	L871.153,390.2z"/>
<path fill="#2F2E41" d="M764.225,378.715c0,0,24.727,25.377,34.486,37.089c9.761,11.713,15.617,3.254,15.617,3.254l24.952-6.686
	l14.089-4.376c0,0-2.603-12.363-3.253-11.713c-0.651,0.65-38.849,4.184-38.849,4.184s-9.953-11.992-10.604-19.8
	c-0.65-7.809-17.568-16.918-17.568-16.918L764.225,378.715z"/>
<path fill="#2F2E41" d="M768.78,378.064c0,0-5.205,22.124-12.696,28.484c-7.49,6.36-3.571,11.859-3.571,11.859l10.411,44.897
	l13.015-0.65c0,0-4.639-36.623-5.289-41.178c-0.651-4.555,15.699-25.844,15.699-25.844L768.78,378.064z"/>
<circle fill="#FFB8B8" cx="725.921" cy="335.806" r="11.062"/>
<path fill="#6C63FF" d="M749.909,367.654c1.952,0,7.809,11.062,7.809,11.062s13.014,3.904,14.966,0.65s7.157-8.459,11.713-10.411
	c4.555-1.952,2.603-3.904,0-5.856c-2.604-1.952-11.062-7.157-18.87-16.267c-7.809-9.11-20.172-11.062-21.474-11.062
	c-1.301,0-4.555,13.015-4.555,13.015C737.546,352.687,747.957,367.654,749.909,367.654z"/>
<path fill="#2F2E41" d="M721.432,330.658c2.261,1.053,4.893,6.568,8.066,4.168c0.268-0.25,0.552-0.48,0.852-0.691
	c0.927-0.358,1.979-0.058,2.575,0.736c0.645,0.719,1.024,1.64,1.643,2.381c0.563,0.815,1.579,1.187,2.536,0.928l1.516-3.292
	c0.396-0.776,0.697-1.597,0.9-2.443c0.314-2.306-0.455-4.627-2.085-6.287c-1.621-1.623-3.482-2.986-5.52-4.041
	c-1.346-0.887-2.825-1.55-4.382-1.964c-1.585-0.405-3.269-0.02-4.52,1.035c-0.407,0.489-0.852,0.946-1.328,1.368
	c-0.862,0.415-1.772,0.723-2.709,0.916c-1.746,0.669-2.766,2.446-3.646,4.097c-0.459,0.721-0.743,1.538-0.829,2.388
	C714.418,333.823,719.41,329.716,721.432,330.658z"/>
<path fill="#2F2E41" d="M745.682,489.272c17.991-0.642,46.524-0.006,46.812,0l0.398,0.009l0.188-0.351
	c0.044-0.08,4.408-8.022,10.361-6.828l0.256-1.276c-6.195-1.241-10.584,5.48-11.562,7.137c-3.491-0.074-29.616-0.595-46.501,0.009
	c-17.395,0.622-20.171-5.394-20.197-5.455l-1.205,0.491c0.107,0.27,2.72,6.311,18.936,6.311
	C743.971,489.318,744.809,489.303,745.682,489.272z"/>
<path fill="#2F2E41" d="M742.864,490.573h0.383c1.332,0,2.412,1.08,2.412,2.411v0.383c0,1.332-1.08,2.411-2.412,2.411h-0.383
	c-1.331,0-2.411-1.079-2.411-2.411v-0.383C740.452,491.654,741.532,490.573,742.864,490.573z"/>
<path fill="#2F2E41" d="M787.762,490.573h0.382c1.332,0,2.412,1.08,2.412,2.411v0.383c0,1.332-1.08,2.411-2.412,2.411l0,0h-0.382
	c-1.332,0-2.412-1.079-2.412-2.411l0,0v-0.383C785.35,491.654,786.43,490.573,787.762,490.573L787.762,490.573z"/>
<path fill="#FFB8B8" d="M745.823,391.3c0.22-0.075,0.444-0.134,0.673-0.174l8.4-19.017l-2.974-4.082l5.573-5.294l5.968,6.715
	c0.99,1.114,1.126,2.749,0.334,4.011l-12.577,20.032c1.083,2.176,0.197,4.817-1.979,5.9c-2.176,1.082-4.817,0.196-5.9-1.979
	c-1.083-2.175-0.197-4.817,1.979-5.899C745.484,391.431,745.652,391.361,745.823,391.3z"/>
<path fill="#6C63FF" d="M764.225,363.749c0,0.65-7.809,9.76-10.02,8.89c-2.211-0.871-2.994-3.685-6.328-6.589
	c-3.333-2.904-6.427-18.568-6.427-18.568S764.225,363.098,764.225,363.749z"/>
<circle fill="#BCDD87" cx="75.957" cy="463.305" r="35"/>
<path fill="#5B5B5B" d="M778.954,584.365H-0.147c-0.471,0-0.853-0.448-0.853-1c0-0.553,0.381-1,0.853-1h779.102
	c0.472,0,0.853,0.447,0.853,1C779.807,583.917,779.426,584.365,778.954,584.365z"/>
</svg>
